<svg width="44" height="44" viewBox="0 0 44 44" fill="none" xmlns="http://www.w3.org/2000/svg">
<path d="M16.4153 13.0275C17.4932 9.87314 21.8517 9.77761 23.1296 12.7409L23.2378 13.0293L24.6924 17.2832C25.0258 18.2588 25.5644 19.1515 26.2722 19.9012C26.9799 20.6509 27.8401 21.2401 28.7949 21.629L29.186 21.775L33.4399 23.2279C36.5943 24.3057 36.6898 28.6642 33.7283 29.9422L33.4399 30.0503L29.186 31.5049C28.2101 31.8381 27.317 32.3767 26.567 33.0844C25.817 33.7921 25.2275 34.6525 24.8384 35.6074L24.6924 35.9968L23.2396 40.2525C22.1617 43.4068 17.8032 43.5024 16.5271 40.5409L16.4153 40.2525L14.9625 35.9986C14.6294 35.0227 14.0908 34.1296 13.383 33.3796C12.6753 32.6296 11.815 32.0401 10.86 31.6509L10.4707 31.5049L6.21678 30.0521C3.0606 28.9742 2.96507 24.6158 5.92838 23.3396L6.21678 23.2279L10.4707 21.775C11.4462 21.4417 12.339 20.903 13.0887 20.1953C13.8383 19.4876 14.4275 18.6273 14.8165 17.6726L14.9625 17.2832L16.4153 13.0275ZM34.2474 6.8125C34.5846 6.8125 34.9151 6.90709 35.2012 7.08553C35.4874 7.26396 35.7177 7.51908 35.8661 7.8219L35.9526 8.03279L36.5835 9.88216L38.4346 10.513C38.7726 10.6278 39.0688 10.8404 39.2858 11.1237C39.5028 11.4071 39.6309 11.7485 39.6536 12.1047C39.6764 12.4609 39.5929 12.8158 39.4138 13.1245C39.2346 13.4332 38.9679 13.6817 38.6473 13.8386L38.4346 13.9252L36.5853 14.556L35.9544 16.4072C35.8394 16.745 35.6267 17.0411 35.3432 17.258C35.0598 17.4748 34.7183 17.6026 34.3622 17.6252C34.006 17.6478 33.6511 17.5641 33.3426 17.3848C33.034 17.2056 32.7856 16.9387 32.6288 16.6181L32.5423 16.4072L31.9114 14.5578L30.0602 13.927C29.7223 13.8122 29.4261 13.5996 29.209 13.3162C28.992 13.0329 28.864 12.6915 28.8412 12.3353C28.8185 11.9791 28.9019 11.6242 29.0811 11.3155C29.2602 11.0068 29.527 10.7583 29.8475 10.6014L30.0602 10.5148L31.9096 9.88396L32.5405 8.03279C32.662 7.67666 32.892 7.3675 33.1981 7.14866C33.5042 6.92982 33.8711 6.81227 34.2474 6.8125Z" fill="#E53888"/>
</svg>
