<svg width="63" height="63" viewBox="0 0 63 63" fill="none" xmlns="http://www.w3.org/2000/svg">
<path d="M22.1188 11.06C23.9852 5.6245 31.5318 5.45988 33.7446 10.5662L33.9318 11.0631L36.4505 18.3934C37.0277 20.0744 37.9604 21.6128 39.1858 22.9046C40.4112 24.1965 41.9007 25.2117 43.5539 25.882L44.2311 26.1336L51.5967 28.637C57.0585 30.4944 57.2239 38.0048 52.0961 40.207L51.5967 40.3933L44.2311 42.8999C42.5414 43.474 40.995 44.4021 39.6964 45.6216C38.3978 46.8411 37.3771 48.3237 36.7033 49.9692L36.4505 50.6401L33.9349 57.9734C32.0686 63.409 24.522 63.5736 22.3123 58.4704L22.1188 57.9734L19.6033 50.6432C19.0265 48.9616 18.0939 47.4226 16.8685 46.1302C15.6431 44.8378 14.1534 43.8221 12.4999 43.1515L11.8257 42.8999L4.46017 40.3964C-1.00471 38.539 -1.17012 31.0287 3.96081 28.8296L4.46017 28.637L11.8257 26.1336C13.5149 25.5591 15.0607 24.6309 16.3588 23.4114C17.6568 22.1919 18.677 20.7095 19.3505 19.0643L19.6033 18.3934L22.1188 11.06ZM52.9949 0.350464C53.5788 0.350463 54.151 0.513463 54.6464 0.820938C55.1418 1.12841 55.5407 1.56803 55.7976 2.08984L55.9474 2.45324L57.0397 5.64003L60.245 6.72713C60.8301 6.92497 61.3431 7.29124 61.7188 7.7795C62.0946 8.26777 62.3162 8.85606 62.3557 9.46982C62.3951 10.0836 62.2506 10.6952 61.9404 11.2271C61.6302 11.759 61.1683 12.1873 60.6133 12.4578L60.245 12.6068L57.0429 13.6939L55.9505 16.8838C55.7514 17.466 55.3831 17.9762 54.8923 18.3499C54.4014 18.7235 53.8102 18.9437 53.1935 18.9826C52.5768 19.0216 51.9624 18.8774 51.4281 18.5685C50.8938 18.2595 50.4637 17.7997 50.1923 17.2472L50.0425 16.8838L48.9501 13.6971L45.7448 12.6099C45.1597 12.4121 44.6468 12.0458 44.271 11.5576C43.8952 11.0693 43.6736 10.481 43.6342 9.86726C43.5947 9.2535 43.7393 8.6419 44.0494 8.10998C44.3596 7.57805 44.8215 7.14974 45.3765 6.87933L45.7448 6.73024L48.947 5.64313L50.0393 2.45324C50.2498 1.83957 50.6479 1.30684 51.178 0.929734C51.708 0.552632 52.3434 0.350075 52.9949 0.350464Z" fill="#FAFAFA"/>
</svg>
