<svg width="289" height="216" viewBox="0 0 289 216" fill="none" xmlns="http://www.w3.org/2000/svg">
<g opacity="0.7">
<path d="M289 189.237H0V189.382H289V189.237Z" fill="#EBEBEB"/>
<path d="M260.042 198.537H240.899V198.682H260.042V198.537Z" fill="#EBEBEB"/>
<path d="M191.445 200.11H186.422V200.254H191.445V200.11Z" fill="#EBEBEB"/>
<path d="M240.321 193.173H229.229V193.318H240.321V193.173Z" fill="#EBEBEB"/>
<path d="M55.2857 194.145H30.3219V194.289H55.2857V194.145Z" fill="#EBEBEB"/>
<path d="M64.0946 194.145H60.4359V194.289H64.0946V194.145Z" fill="#EBEBEB"/>
<path d="M130.137 196.584H75.9898V196.728H130.137V196.584Z" fill="#EBEBEB"/>
<path d="M136.986 163.458H25.3799C24.5055 163.457 23.6676 163.109 23.0499 162.49C22.4322 161.871 22.0853 161.032 22.0853 160.158V3.27148C22.0929 2.40218 22.4431 1.57099 23.06 0.95845C23.6769 0.345909 24.5105 0.00148915 25.3799 0H136.986C137.861 0 138.701 0.347718 139.32 0.966659C139.939 1.5856 140.286 2.42506 140.286 3.30038V160.158C140.286 161.033 139.939 161.873 139.32 162.492C138.701 163.111 137.861 163.458 136.986 163.458ZM25.3799 0.1156C24.5439 0.117132 23.7426 0.4503 23.152 1.04198C22.5615 1.63365 22.2298 2.43549 22.2298 3.27148V160.158C22.2298 160.994 22.5615 161.796 23.152 162.388C23.7426 162.979 24.5439 163.312 25.3799 163.314H136.986C137.822 163.312 138.624 162.979 139.216 162.388C139.807 161.796 140.14 160.995 140.142 160.158V3.27148C140.14 2.43496 139.807 1.63313 139.216 1.04162C138.624 0.450112 137.822 0.117128 136.986 0.1156H25.3799Z" fill="#EBEBEB"/>
<path d="M262.013 163.458H150.401C149.527 163.457 148.688 163.109 148.069 162.49C147.451 161.871 147.103 161.033 147.101 160.158V3.27148C147.11 2.40166 147.462 1.57047 148.08 0.958089C148.697 0.345707 149.532 0.00147291 150.401 0H262.013C262.882 0.0030082 263.714 0.3481 264.329 0.960479C264.945 1.57286 265.294 2.40318 265.302 3.27148V160.158C265.302 161.031 264.956 161.869 264.34 162.488C263.723 163.106 262.887 163.455 262.013 163.458ZM150.401 0.1156C149.565 0.117128 148.763 0.450112 148.172 1.04162C147.58 1.63313 147.247 2.43496 147.246 3.27148V160.158C147.247 160.995 147.58 161.796 148.172 162.388C148.763 162.979 149.565 163.312 150.401 163.314H262.013C262.85 163.312 263.652 162.979 264.243 162.388C264.835 161.796 265.168 160.995 265.169 160.158V3.27148C265.168 2.43496 264.835 1.63313 264.243 1.04162C263.652 0.450112 262.85 0.117128 262.013 0.1156H150.401Z" fill="#EBEBEB"/>
<path d="M186.567 29.6051H38.5814V151.794H186.567V29.6051Z" fill="#F5F5F5"/>
<path d="M186.561 32.2002H40.9515V149.315H186.561V32.2002Z" fill="#FAFAFA"/>
<path d="M42.0265 115.993V74.6139H46.3268V69.1518L56.0025 64.6261V59.031H57.6094V74.6139H59.2278V115.993H61.3722V94.4971H66.21V83.2146H67.8226V115.993H71.5854V103.635H74.2731V100.41H80.1803V89.1275H83.4055V81.6019H87.1683V70.3194H88.7809V81.6019H92.5437V89.1275H95.7632V100.41H101.676V103.635H104.364V115.993H107.589V100.41H113.496V66.0191H115.109V62.2563H128.01V66.0191H130.697V90.7401H141.443V93.4221H145.205V95.0347H141.443V104.71H152.725V72.4695H154.875V66.0191H160.251V41.298H161.863V66.0191H165.626V72.4695H186.561V149.309H40.9572V115.993H42.0265Z" fill="#F0F0F0"/>
<path d="M175.371 74.1516H173.851V75.6717H175.371V74.1516Z" fill="#F5F5F5"/>
<path d="M175.371 76.7066H173.851V78.2267H175.371V76.7066Z" fill="#F5F5F5"/>
<path d="M175.371 86.9136H173.851V88.4337H175.371V86.9136Z" fill="#F5F5F5"/>
<path d="M175.371 89.4686H173.851V90.9887H175.371V89.4686Z" fill="#F5F5F5"/>
<path d="M175.371 92.0175H173.851V93.5376H175.371V92.0175Z" fill="#F5F5F5"/>
<path d="M175.371 99.6764H173.851V101.197H175.371V99.6764Z" fill="#F5F5F5"/>
<path d="M175.371 102.231H173.851V103.751H175.371V102.231Z" fill="#F5F5F5"/>
<path d="M172.955 84.3589H171.435V85.8791H172.955V84.3589Z" fill="#F5F5F5"/>
<path d="M172.955 86.9136H171.435V88.4337H172.955V86.9136Z" fill="#F5F5F5"/>
<path d="M172.955 89.4686H171.435V90.9887H172.955V89.4686Z" fill="#F5F5F5"/>
<path d="M172.955 92.0175H171.435V93.5376H172.955V92.0175Z" fill="#F5F5F5"/>
<path d="M172.955 94.5725H171.435V96.0926H172.955V94.5725Z" fill="#F5F5F5"/>
<path d="M172.955 99.6764H171.435V101.197H172.955V99.6764Z" fill="#F5F5F5"/>
<path d="M172.955 102.231H171.435V103.751H172.955V102.231Z" fill="#F5F5F5"/>
<path d="M170.533 74.1516H169.013V75.6717H170.533V74.1516Z" fill="#F5F5F5"/>
<path d="M170.533 76.7066H169.013V78.2267H170.533V76.7066Z" fill="#F5F5F5"/>
<path d="M170.533 79.2555H169.013V80.7756H170.533V79.2555Z" fill="#F5F5F5"/>
<path d="M170.533 81.8101H169.013V83.3302H170.533V81.8101Z" fill="#F5F5F5"/>
<path d="M170.533 84.3589H169.013V85.8791H170.533V84.3589Z" fill="#F5F5F5"/>
<path d="M170.533 86.9136H169.013V88.4337H170.533V86.9136Z" fill="#F5F5F5"/>
<path d="M170.533 89.4686H169.013V90.9887H170.533V89.4686Z" fill="#F5F5F5"/>
<path d="M170.533 92.0175H169.013V93.5376H170.533V92.0175Z" fill="#F5F5F5"/>
<path d="M170.533 94.5725H169.013V96.0926H170.533V94.5725Z" fill="#F5F5F5"/>
<path d="M170.533 97.1275H169.013V98.6476H170.533V97.1275Z" fill="#F5F5F5"/>
<path d="M170.533 102.231H169.013V103.751H170.533V102.231Z" fill="#F5F5F5"/>
<path d="M168.117 74.1516H166.597V75.6717H168.117V74.1516Z" fill="#F5F5F5"/>
<path d="M168.117 76.7066H166.597V78.2267H168.117V76.7066Z" fill="#F5F5F5"/>
<path d="M168.117 79.2555H166.597V80.7756H168.117V79.2555Z" fill="#F5F5F5"/>
<path d="M168.117 81.8101H166.597V83.3302H168.117V81.8101Z" fill="#F5F5F5"/>
<path d="M168.117 84.3589H166.597V85.8791H168.117V84.3589Z" fill="#F5F5F5"/>
<path d="M168.117 86.9136H166.597V88.4337H168.117V86.9136Z" fill="#F5F5F5"/>
<path d="M168.117 89.4686H166.597V90.9887H168.117V89.4686Z" fill="#F5F5F5"/>
<path d="M168.117 112.438H166.597V113.958H168.117V112.438Z" fill="#F5F5F5"/>
<path d="M165.701 74.1516H164.181V75.6717H165.701V74.1516Z" fill="#F5F5F5"/>
<path d="M165.701 76.7066H164.181V78.2267H165.701V76.7066Z" fill="#F5F5F5"/>
<path d="M165.701 79.2555H164.181V80.7756H165.701V79.2555Z" fill="#F5F5F5"/>
<path d="M165.701 81.8101H164.181V83.3302H165.701V81.8101Z" fill="#F5F5F5"/>
<path d="M165.701 84.3589H164.181V85.8791H165.701V84.3589Z" fill="#F5F5F5"/>
<path d="M165.701 86.9136H164.181V88.4337H165.701V86.9136Z" fill="#F5F5F5"/>
<path d="M165.701 89.4686H164.181V90.9887H165.701V89.4686Z" fill="#F5F5F5"/>
<path d="M165.701 92.0175H164.181V93.5376H165.701V92.0175Z" fill="#F5F5F5"/>
<path d="M165.701 107.335H164.181V108.855H165.701V107.335Z" fill="#F5F5F5"/>
<path d="M165.701 109.889H164.181V111.409H165.701V109.889Z" fill="#F5F5F5"/>
<path d="M165.701 112.438H164.181V113.958H165.701V112.438Z" fill="#F5F5F5"/>
<path d="M165.701 114.993H164.181V116.513H165.701V114.993Z" fill="#F5F5F5"/>
<path d="M165.701 125.2H164.181V126.721H165.701V125.2Z" fill="#F5F5F5"/>
<path d="M163.279 74.1516H161.759V75.6717H163.279V74.1516Z" fill="#F5F5F5"/>
<path d="M163.279 76.7066H161.759V78.2267H163.279V76.7066Z" fill="#F5F5F5"/>
<path d="M163.279 79.2555H161.759V80.7756H163.279V79.2555Z" fill="#F5F5F5"/>
<path d="M163.279 81.8101H161.759V83.3302H163.279V81.8101Z" fill="#F5F5F5"/>
<path d="M163.279 84.3589H161.759V85.8791H163.279V84.3589Z" fill="#F5F5F5"/>
<path d="M163.279 86.9136H161.759V88.4337H163.279V86.9136Z" fill="#F5F5F5"/>
<path d="M163.279 89.4686H161.759V90.9887H163.279V89.4686Z" fill="#F5F5F5"/>
<path d="M163.279 92.0175H161.759V93.5376H163.279V92.0175Z" fill="#F5F5F5"/>
<path d="M163.279 94.5725H161.759V96.0926H163.279V94.5725Z" fill="#F5F5F5"/>
<path d="M163.279 97.1275H161.759V98.6476H163.279V97.1275Z" fill="#F5F5F5"/>
<path d="M163.279 104.78H161.759V106.3H163.279V104.78Z" fill="#F5F5F5"/>
<path d="M163.279 107.335H161.759V108.855H163.279V107.335Z" fill="#F5F5F5"/>
<path d="M163.279 109.889H161.759V111.409H163.279V109.889Z" fill="#F5F5F5"/>
<path d="M163.279 112.438H161.759V113.958H163.279V112.438Z" fill="#F5F5F5"/>
<path d="M163.279 114.993H161.759V116.513H163.279V114.993Z" fill="#F5F5F5"/>
<path d="M163.279 125.2H161.759V126.721H163.279V125.2Z" fill="#F5F5F5"/>
<path d="M160.863 74.1516H159.343V75.6717H160.863V74.1516Z" fill="#F5F5F5"/>
<path d="M160.863 76.7066H159.343V78.2267H160.863V76.7066Z" fill="#F5F5F5"/>
<path d="M160.863 79.2555H159.343V80.7756H160.863V79.2555Z" fill="#F5F5F5"/>
<path d="M160.863 81.8101H159.343V83.3302H160.863V81.8101Z" fill="#F5F5F5"/>
<path d="M160.863 84.3589H159.343V85.8791H160.863V84.3589Z" fill="#F5F5F5"/>
<path d="M160.863 86.9136H159.343V88.4337H160.863V86.9136Z" fill="#F5F5F5"/>
<path d="M160.863 89.4686H159.343V90.9887H160.863V89.4686Z" fill="#F5F5F5"/>
<path d="M160.863 92.0175H159.343V93.5376H160.863V92.0175Z" fill="#F5F5F5"/>
<path d="M160.863 94.5725H159.343V96.0926H160.863V94.5725Z" fill="#F5F5F5"/>
<path d="M160.863 97.1275H159.343V98.6476H160.863V97.1275Z" fill="#F5F5F5"/>
<path d="M160.863 99.6764H159.343V101.197H160.863V99.6764Z" fill="#F5F5F5"/>
<path d="M160.863 102.231H159.343V103.751H160.863V102.231Z" fill="#F5F5F5"/>
<path d="M160.863 104.78H159.343V106.3H160.863V104.78Z" fill="#F5F5F5"/>
<path d="M160.863 107.335H159.343V108.855H160.863V107.335Z" fill="#F5F5F5"/>
<path d="M160.863 109.889H159.343V111.409H160.863V109.889Z" fill="#F5F5F5"/>
<path d="M160.863 112.438H159.343V113.958H160.863V112.438Z" fill="#F5F5F5"/>
<path d="M160.863 114.993H159.343V116.513H160.863V114.993Z" fill="#F5F5F5"/>
<path d="M160.863 117.542H159.343V119.062H160.863V117.542Z" fill="#F5F5F5"/>
<path d="M158.447 74.1516H156.927V75.6717H158.447V74.1516Z" fill="#F5F5F5"/>
<path d="M158.447 76.7066H156.927V78.2267H158.447V76.7066Z" fill="#F5F5F5"/>
<path d="M158.447 79.2555H156.927V80.7756H158.447V79.2555Z" fill="#F5F5F5"/>
<path d="M158.447 81.8101H156.927V83.3302H158.447V81.8101Z" fill="#F5F5F5"/>
<path d="M158.447 84.3589H156.927V85.8791H158.447V84.3589Z" fill="#F5F5F5"/>
<path d="M158.447 86.9136H156.927V88.4337H158.447V86.9136Z" fill="#F5F5F5"/>
<path d="M158.447 89.4686H156.927V90.9887H158.447V89.4686Z" fill="#F5F5F5"/>
<path d="M158.447 92.0175H156.927V93.5376H158.447V92.0175Z" fill="#F5F5F5"/>
<path d="M158.447 94.5725H156.927V96.0926H158.447V94.5725Z" fill="#F5F5F5"/>
<path d="M158.447 97.1275H156.927V98.6476H158.447V97.1275Z" fill="#F5F5F5"/>
<path d="M158.447 104.78H156.927V106.3H158.447V104.78Z" fill="#F5F5F5"/>
<path d="M158.447 107.335H156.927V108.855H158.447V107.335Z" fill="#F5F5F5"/>
<path d="M158.447 109.889H156.927V111.409H158.447V109.889Z" fill="#F5F5F5"/>
<path d="M158.447 112.438H156.927V113.958H158.447V112.438Z" fill="#F5F5F5"/>
<path d="M156.025 74.1516H154.505V75.6717H156.025V74.1516Z" fill="#F5F5F5"/>
<path d="M156.025 76.7066H154.505V78.2267H156.025V76.7066Z" fill="#F5F5F5"/>
<path d="M156.025 79.2555H154.505V80.7756H156.025V79.2555Z" fill="#F5F5F5"/>
<path d="M156.025 81.8101H154.505V83.3302H156.025V81.8101Z" fill="#F5F5F5"/>
<path d="M156.025 84.3589H154.505V85.8791H156.025V84.3589Z" fill="#F5F5F5"/>
<path d="M156.025 86.9136H154.505V88.4337H156.025V86.9136Z" fill="#F5F5F5"/>
<path d="M156.025 89.4686H154.505V90.9887H156.025V89.4686Z" fill="#F5F5F5"/>
<path d="M156.025 92.0175H154.505V93.5376H156.025V92.0175Z" fill="#F5F5F5"/>
<path d="M156.025 94.5725H154.505V96.0926H156.025V94.5725Z" fill="#F5F5F5"/>
<path d="M156.025 97.1275H154.505V98.6476H156.025V97.1275Z" fill="#F5F5F5"/>
<path d="M156.025 104.78H154.505V106.3H156.025V104.78Z" fill="#F5F5F5"/>
<path d="M156.025 107.335H154.505V108.855H156.025V107.335Z" fill="#F5F5F5"/>
<path d="M156.025 109.889H154.505V111.409H156.025V109.889Z" fill="#F5F5F5"/>
<path d="M128.801 67.522H127.281V69.0422H128.801V67.522Z" fill="#F5F5F5"/>
<path d="M128.801 70.077H127.281V71.5972H128.801V70.077Z" fill="#F5F5F5"/>
<path d="M128.801 72.6316H127.281V74.1518H128.801V72.6316Z" fill="#F5F5F5"/>
<path d="M128.801 75.1805H127.281V76.7007H128.801V75.1805Z" fill="#F5F5F5"/>
<path d="M128.801 77.7351H127.281V79.2553H128.801V77.7351Z" fill="#F5F5F5"/>
<path d="M128.801 80.284H127.281V81.8042H128.801V80.284Z" fill="#F5F5F5"/>
<path d="M128.801 82.839H127.281V84.3592H128.801V82.839Z" fill="#F5F5F5"/>
<path d="M128.801 85.3936H127.281V86.9138H128.801V85.3936Z" fill="#F5F5F5"/>
<path d="M128.801 93.0464H127.281V94.5666H128.801V93.0464Z" fill="#F5F5F5"/>
<path d="M128.801 95.601H127.281V97.1212H128.801V95.601Z" fill="#F5F5F5"/>
<path d="M126.38 67.522H124.86V69.0422H126.38V67.522Z" fill="#F5F5F5"/>
<path d="M126.38 70.077H124.86V71.5972H126.38V70.077Z" fill="#F5F5F5"/>
<path d="M126.38 72.6316H124.86V74.1518H126.38V72.6316Z" fill="#F5F5F5"/>
<path d="M126.38 75.1805H124.86V76.7007H126.38V75.1805Z" fill="#F5F5F5"/>
<path d="M126.38 77.7351H124.86V79.2553H126.38V77.7351Z" fill="#F5F5F5"/>
<path d="M126.38 80.284H124.86V81.8042H126.38V80.284Z" fill="#F5F5F5"/>
<path d="M126.38 82.839H124.86V84.3592H126.38V82.839Z" fill="#F5F5F5"/>
<path d="M126.38 85.3936H124.86V86.9138H126.38V85.3936Z" fill="#F5F5F5"/>
<path d="M126.38 95.601H124.86V97.1212H126.38V95.601Z" fill="#F5F5F5"/>
<path d="M123.964 67.522H122.444V69.0422H123.964V67.522Z" fill="#F5F5F5"/>
<path d="M123.964 70.077H122.444V71.5972H123.964V70.077Z" fill="#F5F5F5"/>
<path d="M123.964 72.6316H122.444V74.1518H123.964V72.6316Z" fill="#F5F5F5"/>
<path d="M123.964 75.1805H122.444V76.7007H123.964V75.1805Z" fill="#F5F5F5"/>
<path d="M123.964 77.7351H122.444V79.2553H123.964V77.7351Z" fill="#F5F5F5"/>
<path d="M123.964 80.284H122.444V81.8042H123.964V80.284Z" fill="#F5F5F5"/>
<path d="M123.964 82.839H122.444V84.3592H123.964V82.839Z" fill="#F5F5F5"/>
<path d="M123.964 85.3936H122.444V86.9138H123.964V85.3936Z" fill="#F5F5F5"/>
<path d="M121.547 67.522H120.027V69.0422H121.547V67.522Z" fill="#F5F5F5"/>
<path d="M121.547 70.077H120.027V71.5972H121.547V70.077Z" fill="#F5F5F5"/>
<path d="M121.547 72.6316H120.027V74.1518H121.547V72.6316Z" fill="#F5F5F5"/>
<path d="M121.547 75.1805H120.027V76.7007H121.547V75.1805Z" fill="#F5F5F5"/>
<path d="M121.547 77.7351H120.027V79.2553H121.547V77.7351Z" fill="#F5F5F5"/>
<path d="M121.547 80.284H120.027V81.8042H121.547V80.284Z" fill="#F5F5F5"/>
<path d="M121.547 85.3936H120.027V86.9138H121.547V85.3936Z" fill="#F5F5F5"/>
<path d="M121.547 87.9425H120.027V89.4627H121.547V87.9425Z" fill="#F5F5F5"/>
<path d="M121.547 95.601H120.027V97.1212H121.547V95.601Z" fill="#F5F5F5"/>
<path d="M121.547 98.156H120.027V99.6762H121.547V98.156Z" fill="#F5F5F5"/>
<path d="M121.547 100.705H120.027V102.225H121.547V100.705Z" fill="#F5F5F5"/>
<path d="M121.547 103.26H120.027V104.78H121.547V103.26Z" fill="#F5F5F5"/>
<path d="M121.547 105.814H120.027V107.334H121.547V105.814Z" fill="#F5F5F5"/>
<path d="M121.547 108.364H120.027V109.884H121.547V108.364Z" fill="#F5F5F5"/>
<path d="M121.547 110.918H120.027V112.438H121.547V110.918Z" fill="#F5F5F5"/>
<path d="M119.126 67.522H117.606V69.0422H119.126V67.522Z" fill="#F5F5F5"/>
<path d="M119.126 70.077H117.606V71.5972H119.126V70.077Z" fill="#F5F5F5"/>
<path d="M119.126 72.6316H117.606V74.1518H119.126V72.6316Z" fill="#F5F5F5"/>
<path d="M119.126 75.1805H117.606V76.7007H119.126V75.1805Z" fill="#F5F5F5"/>
<path d="M119.126 77.7351H117.606V79.2553H119.126V77.7351Z" fill="#F5F5F5"/>
<path d="M119.126 80.284H117.606V81.8042H119.126V80.284Z" fill="#F5F5F5"/>
<path d="M119.126 87.9425H117.606V89.4627H119.126V87.9425Z" fill="#F5F5F5"/>
<path d="M119.126 90.4975H117.606V92.0177H119.126V90.4975Z" fill="#F5F5F5"/>
<path d="M119.126 93.0464H117.606V94.5666H119.126V93.0464Z" fill="#F5F5F5"/>
<path d="M119.126 95.601H117.606V97.1212H119.126V95.601Z" fill="#F5F5F5"/>
<path d="M119.126 98.156H117.606V99.6762H119.126V98.156Z" fill="#F5F5F5"/>
<path d="M119.126 100.705H117.606V102.225H119.126V100.705Z" fill="#F5F5F5"/>
<path d="M119.126 103.26H117.606V104.78H119.126V103.26Z" fill="#F5F5F5"/>
<path d="M119.126 105.814H117.606V107.334H119.126V105.814Z" fill="#F5F5F5"/>
<path d="M119.126 108.364H117.606V109.884H119.126V108.364Z" fill="#F5F5F5"/>
<path d="M119.126 110.918H117.606V112.438H119.126V110.918Z" fill="#F5F5F5"/>
<path d="M119.126 113.467H117.606V114.987H119.126V113.467Z" fill="#F5F5F5"/>
<path d="M119.126 118.577H117.606V120.097H119.126V118.577Z" fill="#F5F5F5"/>
<path d="M116.709 67.522H115.189V69.0422H116.709V67.522Z" fill="#F5F5F5"/>
<path d="M116.709 70.077H115.189V71.5972H116.709V70.077Z" fill="#F5F5F5"/>
<path d="M116.709 72.6316H115.189V74.1518H116.709V72.6316Z" fill="#F5F5F5"/>
<path d="M116.709 75.1805H115.189V76.7007H116.709V75.1805Z" fill="#F5F5F5"/>
<path d="M116.709 77.7351H115.189V79.2553H116.709V77.7351Z" fill="#F5F5F5"/>
<path d="M116.709 80.284H115.189V81.8042H116.709V80.284Z" fill="#F5F5F5"/>
<path d="M116.709 87.9425H115.189V89.4627H116.709V87.9425Z" fill="#F5F5F5"/>
<path d="M116.709 90.4975H115.189V92.0177H116.709V90.4975Z" fill="#F5F5F5"/>
<path d="M116.709 93.0464H115.189V94.5666H116.709V93.0464Z" fill="#F5F5F5"/>
<path d="M116.709 95.601H115.189V97.1212H116.709V95.601Z" fill="#F5F5F5"/>
<path d="M116.709 103.26H115.189V104.78H116.709V103.26Z" fill="#F5F5F5"/>
<path d="M116.709 105.814H115.189V107.334H116.709V105.814Z" fill="#F5F5F5"/>
<path d="M116.709 108.364H115.189V109.884H116.709V108.364Z" fill="#F5F5F5"/>
<path d="M116.709 110.918H115.189V112.438H116.709V110.918Z" fill="#F5F5F5"/>
<path d="M116.709 113.467H115.189V114.987H116.709V113.467Z" fill="#F5F5F5"/>
<path d="M116.709 118.577H115.189V120.097H116.709V118.577Z" fill="#F5F5F5"/>
<path d="M116.709 121.125H115.189V122.646H116.709V121.125Z" fill="#F5F5F5"/>
<path d="M94.7691 91.2602H93.2489V92.7803H94.7691V91.2602Z" fill="#F5F5F5"/>
<path d="M94.7691 93.8094H93.2489V95.3296H94.7691V93.8094Z" fill="#F5F5F5"/>
<path d="M94.7691 96.3641H93.2489V97.8842H94.7691V96.3641Z" fill="#F5F5F5"/>
<path d="M94.7691 98.9133H93.2489V100.433H94.7691V98.9133Z" fill="#F5F5F5"/>
<path d="M94.7691 101.468H93.2489V102.988H94.7691V101.468Z" fill="#F5F5F5"/>
<path d="M94.7691 104.023H93.2489V105.543H94.7691V104.023Z" fill="#F5F5F5"/>
<path d="M94.7691 106.571H93.2489V108.092H94.7691V106.571Z" fill="#F5F5F5"/>
<path d="M94.7691 114.23H93.2489V115.75H94.7691V114.23Z" fill="#F5F5F5"/>
<path d="M94.7691 116.785H93.2489V118.305H94.7691V116.785Z" fill="#F5F5F5"/>
<path d="M94.7691 119.334H93.2489V120.854H94.7691V119.334Z" fill="#F5F5F5"/>
<path d="M92.347 91.2602H90.8269V92.7803H92.347V91.2602Z" fill="#F5F5F5"/>
<path d="M92.347 93.8094H90.8269V95.3296H92.347V93.8094Z" fill="#F5F5F5"/>
<path d="M92.347 96.3641H90.8269V97.8842H92.347V96.3641Z" fill="#F5F5F5"/>
<path d="M92.347 98.9133H90.8269V100.433H92.347V98.9133Z" fill="#F5F5F5"/>
<path d="M92.347 101.468H90.8269V102.988H92.347V101.468Z" fill="#F5F5F5"/>
<path d="M92.347 104.023H90.8269V105.543H92.347V104.023Z" fill="#F5F5F5"/>
<path d="M92.347 106.571H90.8269V108.092H92.347V106.571Z" fill="#F5F5F5"/>
<path d="M89.9311 91.2602H88.411V92.7803H89.9311V91.2602Z" fill="#F5F5F5"/>
<path d="M89.9311 93.8094H88.411V95.3296H89.9311V93.8094Z" fill="#F5F5F5"/>
<path d="M89.9311 96.3641H88.411V97.8842H89.9311V96.3641Z" fill="#F5F5F5"/>
<path d="M89.9311 98.9133H88.411V100.433H89.9311V98.9133Z" fill="#F5F5F5"/>
<path d="M89.9311 101.468H88.411V102.988H89.9311V101.468Z" fill="#F5F5F5"/>
<path d="M89.9311 104.023H88.411V105.543H89.9311V104.023Z" fill="#F5F5F5"/>
<path d="M89.9311 106.571H88.411V108.092H89.9311V106.571Z" fill="#F5F5F5"/>
<path d="M87.5091 91.2602H85.9889V92.7803H87.5091V91.2602Z" fill="#F5F5F5"/>
<path d="M87.5091 93.8094H85.9889V95.3296H87.5091V93.8094Z" fill="#F5F5F5"/>
<path d="M87.5091 96.3641H85.9889V97.8842H87.5091V96.3641Z" fill="#F5F5F5"/>
<path d="M87.5091 98.9133H85.9889V100.433H87.5091V98.9133Z" fill="#F5F5F5"/>
<path d="M87.5091 101.468H85.9889V102.988H87.5091V101.468Z" fill="#F5F5F5"/>
<path d="M87.5091 104.023H85.9889V105.543H87.5091V104.023Z" fill="#F5F5F5"/>
<path d="M87.5091 106.571H85.9889V108.092H87.5091V106.571Z" fill="#F5F5F5"/>
<path d="M87.5091 109.126H85.9889V110.647H87.5091V109.126Z" fill="#F5F5F5"/>
<path d="M87.5091 111.675H85.9889V113.195H87.5091V111.675Z" fill="#F5F5F5"/>
<path d="M87.5091 114.23H85.9889V115.75H87.5091V114.23Z" fill="#F5F5F5"/>
<path d="M87.5091 116.785H85.9889V118.305H87.5091V116.785Z" fill="#F5F5F5"/>
<path d="M85.0931 91.2602H83.573V92.7803H85.0931V91.2602Z" fill="#F5F5F5"/>
<path d="M85.0931 93.8094H83.573V95.3296H85.0931V93.8094Z" fill="#F5F5F5"/>
<path d="M85.0931 96.3641H83.573V97.8842H85.0931V96.3641Z" fill="#F5F5F5"/>
<path d="M85.0931 98.9133H83.573V100.433H85.0931V98.9133Z" fill="#F5F5F5"/>
<path d="M85.0931 101.468H83.573V102.988H85.0931V101.468Z" fill="#F5F5F5"/>
<path d="M85.0931 104.023H83.573V105.543H85.0931V104.023Z" fill="#F5F5F5"/>
<path d="M85.0931 106.571H83.573V108.092H85.0931V106.571Z" fill="#F5F5F5"/>
<path d="M85.0931 109.126H83.573V110.647H85.0931V109.126Z" fill="#F5F5F5"/>
<path d="M85.0931 111.675H83.573V113.195H85.0931V111.675Z" fill="#F5F5F5"/>
<path d="M85.0931 114.23H83.573V115.75H85.0931V114.23Z" fill="#F5F5F5"/>
<path d="M85.0931 116.785H83.573V118.305H85.0931V116.785Z" fill="#F5F5F5"/>
<path d="M85.0931 119.334H83.573V120.854H85.0931V119.334Z" fill="#F5F5F5"/>
<path d="M85.0931 126.992H83.573V128.512H85.0931V126.992Z" fill="#F5F5F5"/>
<path d="M85.0931 129.547H83.573V131.067H85.0931V129.547Z" fill="#F5F5F5"/>
<path d="M82.6772 91.2602H81.1571V92.7803H82.6772V91.2602Z" fill="#F5F5F5"/>
<path d="M82.6772 93.8094H81.1571V95.3296H82.6772V93.8094Z" fill="#F5F5F5"/>
<path d="M82.6772 96.3641H81.1571V97.8842H82.6772V96.3641Z" fill="#F5F5F5"/>
<path d="M82.6772 104.023H81.1571V105.543H82.6772V104.023Z" fill="#F5F5F5"/>
<path d="M82.6772 106.571H81.1571V108.092H82.6772V106.571Z" fill="#F5F5F5"/>
<path d="M82.6772 109.126H81.1571V110.647H82.6772V109.126Z" fill="#F5F5F5"/>
<path d="M82.6772 111.675H81.1571V113.195H82.6772V111.675Z" fill="#F5F5F5"/>
<path d="M82.6772 114.23H81.1571V115.75H82.6772V114.23Z" fill="#F5F5F5"/>
<path d="M82.6772 116.785H81.1571V118.305H82.6772V116.785Z" fill="#F5F5F5"/>
<path d="M82.6772 119.334H81.1571V120.854H82.6772V119.334Z" fill="#F5F5F5"/>
<path d="M82.6772 126.992H81.1571V128.512H82.6772V126.992Z" fill="#F5F5F5"/>
<path d="M82.6772 129.547H81.1571V131.067H82.6772V129.547Z" fill="#F5F5F5"/>
<path d="M82.6772 132.096H81.1571V133.616H82.6772V132.096Z" fill="#F5F5F5"/>
<path d="M57.332 75.9436H55.8119V77.4637H57.332V75.9436Z" fill="#F5F5F5"/>
<path d="M57.332 78.4982H55.8119V80.0183H57.332V78.4982Z" fill="#F5F5F5"/>
<path d="M57.332 81.047H55.8119V82.5672H57.332V81.047Z" fill="#F5F5F5"/>
<path d="M57.332 83.6021H55.8119V85.1222H57.332V83.6021Z" fill="#F5F5F5"/>
<path d="M57.332 86.1509H55.8119V87.6711H57.332V86.1509Z" fill="#F5F5F5"/>
<path d="M57.332 88.706H55.8119V90.2261H57.332V88.706Z" fill="#F5F5F5"/>
<path d="M57.332 91.2602H55.8119V92.7803H57.332V91.2602Z" fill="#F5F5F5"/>
<path d="M57.332 93.8094H55.8119V95.3296H57.332V93.8094Z" fill="#F5F5F5"/>
<path d="M57.332 96.3641H55.8119V97.8842H57.332V96.3641Z" fill="#F5F5F5"/>
<path d="M57.332 98.9133H55.8119V100.433H57.332V98.9133Z" fill="#F5F5F5"/>
<path d="M57.332 101.468H55.8119V102.988H57.332V101.468Z" fill="#F5F5F5"/>
<path d="M57.332 104.023H55.8119V105.543H57.332V104.023Z" fill="#F5F5F5"/>
<path d="M57.332 106.571H55.8119V108.092H57.332V106.571Z" fill="#F5F5F5"/>
<path d="M57.332 109.126H55.8119V110.647H57.332V109.126Z" fill="#F5F5F5"/>
<path d="M57.332 111.675H55.8119V113.195H57.332V111.675Z" fill="#F5F5F5"/>
<path d="M57.332 114.23H55.8119V115.75H57.332V114.23Z" fill="#F5F5F5"/>
<path d="M57.332 116.785H55.8119V118.305H57.332V116.785Z" fill="#F5F5F5"/>
<path d="M57.332 119.334H55.8119V120.854H57.332V119.334Z" fill="#F5F5F5"/>
<path d="M57.332 121.889H55.8119V123.409H57.332V121.889Z" fill="#F5F5F5"/>
<path d="M57.332 124.443H55.8119V125.963H57.332V124.443Z" fill="#F5F5F5"/>
<path d="M57.332 126.992H55.8119V128.512H57.332V126.992Z" fill="#F5F5F5"/>
<path d="M57.332 129.547H55.8119V131.067H57.332V129.547Z" fill="#F5F5F5"/>
<path d="M57.332 132.096H55.8119V133.616H57.332V132.096Z" fill="#F5F5F5"/>
<path d="M54.91 75.9436H53.3898V77.4637H54.91V75.9436Z" fill="#F5F5F5"/>
<path d="M54.91 78.4982H53.3898V80.0183H54.91V78.4982Z" fill="#F5F5F5"/>
<path d="M54.91 81.047H53.3898V82.5672H54.91V81.047Z" fill="#F5F5F5"/>
<path d="M54.91 83.6021H53.3898V85.1222H54.91V83.6021Z" fill="#F5F5F5"/>
<path d="M54.91 86.1509H53.3898V87.6711H54.91V86.1509Z" fill="#F5F5F5"/>
<path d="M54.91 88.706H53.3898V90.2261H54.91V88.706Z" fill="#F5F5F5"/>
<path d="M54.91 91.2602H53.3898V92.7803H54.91V91.2602Z" fill="#F5F5F5"/>
<path d="M54.91 93.8094H53.3898V95.3296H54.91V93.8094Z" fill="#F5F5F5"/>
<path d="M54.91 96.3641H53.3898V97.8842H54.91V96.3641Z" fill="#F5F5F5"/>
<path d="M54.91 98.9133H53.3898V100.433H54.91V98.9133Z" fill="#F5F5F5"/>
<path d="M54.91 101.468H53.3898V102.988H54.91V101.468Z" fill="#F5F5F5"/>
<path d="M54.91 104.023H53.3898V105.543H54.91V104.023Z" fill="#F5F5F5"/>
<path d="M54.91 106.571H53.3898V108.092H54.91V106.571Z" fill="#F5F5F5"/>
<path d="M54.91 109.126H53.3898V110.647H54.91V109.126Z" fill="#F5F5F5"/>
<path d="M54.91 111.675H53.3898V113.195H54.91V111.675Z" fill="#F5F5F5"/>
<path d="M54.91 114.23H53.3898V115.75H54.91V114.23Z" fill="#F5F5F5"/>
<path d="M54.91 116.785H53.3898V118.305H54.91V116.785Z" fill="#F5F5F5"/>
<path d="M54.91 119.334H53.3898V120.854H54.91V119.334Z" fill="#F5F5F5"/>
<path d="M54.91 121.889H53.3898V123.409H54.91V121.889Z" fill="#F5F5F5"/>
<path d="M52.4941 75.9436H50.9739V77.4637H52.4941V75.9436Z" fill="#F5F5F5"/>
<path d="M52.4941 78.4982H50.9739V80.0183H52.4941V78.4982Z" fill="#F5F5F5"/>
<path d="M52.4941 81.047H50.9739V82.5672H52.4941V81.047Z" fill="#F5F5F5"/>
<path d="M52.4941 83.6021H50.9739V85.1222H52.4941V83.6021Z" fill="#F5F5F5"/>
<path d="M52.4941 86.1509H50.9739V87.6711H52.4941V86.1509Z" fill="#F5F5F5"/>
<path d="M52.4941 88.706H50.9739V90.2261H52.4941V88.706Z" fill="#F5F5F5"/>
<path d="M52.4941 91.2602H50.9739V92.7803H52.4941V91.2602Z" fill="#F5F5F5"/>
<path d="M52.4941 93.8094H50.9739V95.3296H52.4941V93.8094Z" fill="#F5F5F5"/>
<path d="M52.4941 96.3641H50.9739V97.8842H52.4941V96.3641Z" fill="#F5F5F5"/>
<path d="M52.4941 98.9133H50.9739V100.433H52.4941V98.9133Z" fill="#F5F5F5"/>
<path d="M52.4941 101.468H50.9739V102.988H52.4941V101.468Z" fill="#F5F5F5"/>
<path d="M52.4941 104.023H50.9739V105.543H52.4941V104.023Z" fill="#F5F5F5"/>
<path d="M52.4941 106.571H50.9739V108.092H52.4941V106.571Z" fill="#F5F5F5"/>
<path d="M52.4941 109.126H50.9739V110.647H52.4941V109.126Z" fill="#F5F5F5"/>
<path d="M52.4941 111.675H50.9739V113.195H52.4941V111.675Z" fill="#F5F5F5"/>
<path d="M52.4941 114.23H50.9739V115.75H52.4941V114.23Z" fill="#F5F5F5"/>
<path d="M52.4941 116.785H50.9739V118.305H52.4941V116.785Z" fill="#F5F5F5"/>
<path d="M52.4941 119.334H50.9739V120.854H52.4941V119.334Z" fill="#F5F5F5"/>
<path d="M52.4941 121.889H50.9739V123.409H52.4941V121.889Z" fill="#F5F5F5"/>
<path d="M50.0782 75.9436H48.558V77.4637H50.0782V75.9436Z" fill="#F5F5F5"/>
<path d="M50.0782 78.4982H48.558V80.0183H50.0782V78.4982Z" fill="#F5F5F5"/>
<path d="M50.0782 81.047H48.558V82.5672H50.0782V81.047Z" fill="#F5F5F5"/>
<path d="M50.0782 83.6021H48.558V85.1222H50.0782V83.6021Z" fill="#F5F5F5"/>
<path d="M50.0782 86.1509H48.558V87.6711H50.0782V86.1509Z" fill="#F5F5F5"/>
<path d="M50.0782 88.706H48.558V90.2261H50.0782V88.706Z" fill="#F5F5F5"/>
<path d="M50.0782 91.2602H48.558V92.7803H50.0782V91.2602Z" fill="#F5F5F5"/>
<path d="M50.0782 93.8094H48.558V95.3296H50.0782V93.8094Z" fill="#F5F5F5"/>
<path d="M50.0782 96.3641H48.558V97.8842H50.0782V96.3641Z" fill="#F5F5F5"/>
<path d="M50.0782 98.9133H48.558V100.433H50.0782V98.9133Z" fill="#F5F5F5"/>
<path d="M50.0782 101.468H48.558V102.988H50.0782V101.468Z" fill="#F5F5F5"/>
<path d="M50.0782 104.023H48.558V105.543H50.0782V104.023Z" fill="#F5F5F5"/>
<path d="M50.0782 106.571H48.558V108.092H50.0782V106.571Z" fill="#F5F5F5"/>
<path d="M50.0782 109.126H48.558V110.647H50.0782V109.126Z" fill="#F5F5F5"/>
<path d="M50.0782 111.675H48.558V113.195H50.0782V111.675Z" fill="#F5F5F5"/>
<path d="M47.6561 75.9436H46.136V77.4637H47.6561V75.9436Z" fill="#F5F5F5"/>
<path d="M47.6561 78.4982H46.136V80.0183H47.6561V78.4982Z" fill="#F5F5F5"/>
<path d="M47.6561 81.047H46.136V82.5672H47.6561V81.047Z" fill="#F5F5F5"/>
<path d="M47.6561 83.6021H46.136V85.1222H47.6561V83.6021Z" fill="#F5F5F5"/>
<path d="M47.6561 86.1509H46.136V87.6711H47.6561V86.1509Z" fill="#F5F5F5"/>
<path d="M47.6561 88.706H46.136V90.2261H47.6561V88.706Z" fill="#F5F5F5"/>
<path d="M47.6561 91.2602H46.136V92.7803H47.6561V91.2602Z" fill="#F5F5F5"/>
<path d="M47.6561 93.8094H46.136V95.3296H47.6561V93.8094Z" fill="#F5F5F5"/>
<path d="M47.6561 96.3641H46.136V97.8842H47.6561V96.3641Z" fill="#F5F5F5"/>
<path d="M47.6561 98.9133H46.136V100.433H47.6561V98.9133Z" fill="#F5F5F5"/>
<path d="M47.6561 101.468H46.136V102.988H47.6561V101.468Z" fill="#F5F5F5"/>
<path d="M47.6561 104.023H46.136V105.543H47.6561V104.023Z" fill="#F5F5F5"/>
<path d="M47.6561 106.571H46.136V108.092H47.6561V106.571Z" fill="#F5F5F5"/>
<path d="M45.2402 75.9436H43.7201V77.4637H45.2402V75.9436Z" fill="#F5F5F5"/>
<path d="M45.2402 78.4982H43.7201V80.0183H45.2402V78.4982Z" fill="#F5F5F5"/>
<path d="M45.2402 81.047H43.7201V82.5672H45.2402V81.047Z" fill="#F5F5F5"/>
<path d="M45.2402 83.6021H43.7201V85.1222H45.2402V83.6021Z" fill="#F5F5F5"/>
<path d="M45.2402 86.1509H43.7201V87.6711H45.2402V86.1509Z" fill="#F5F5F5"/>
<path d="M45.2402 88.706H43.7201V90.2261H45.2402V88.706Z" fill="#F5F5F5"/>
<path d="M45.2402 91.2602H43.7201V92.7803H45.2402V91.2602Z" fill="#F5F5F5"/>
<path d="M45.2402 93.8094H43.7201V95.3296H45.2402V93.8094Z" fill="#F5F5F5"/>
<path d="M45.2402 96.3641H43.7201V97.8842H45.2402V96.3641Z" fill="#F5F5F5"/>
<path d="M45.2402 98.9133H43.7201V100.433H45.2402V98.9133Z" fill="#F5F5F5"/>
<path d="M45.2402 101.468H43.7201V102.988H45.2402V101.468Z" fill="#F5F5F5"/>
<path d="M45.2402 104.023H43.7201V105.543H45.2402V104.023Z" fill="#F5F5F5"/>
<path d="M186.388 75.1805H184.867V76.7007H186.388V75.1805Z" fill="#F5F5F5"/>
<path d="M186.388 77.7351H184.867V79.2553H186.388V77.7351Z" fill="#F5F5F5"/>
<path d="M186.388 80.284H184.867V81.8042H186.388V80.284Z" fill="#F5F5F5"/>
<path d="M186.388 82.839H184.867V84.3592H186.388V82.839Z" fill="#F5F5F5"/>
<path d="M186.388 85.3936H184.867V86.9138H186.388V85.3936Z" fill="#F5F5F5"/>
<path d="M186.388 87.9425H184.867V89.4627H186.388V87.9425Z" fill="#F5F5F5"/>
<path d="M186.388 90.4975H184.867V92.0177H186.388V90.4975Z" fill="#F5F5F5"/>
<path d="M186.388 93.0464H184.867V94.5666H186.388V93.0464Z" fill="#F5F5F5"/>
<path d="M186.388 95.601H184.867V97.1212H186.388V95.601Z" fill="#F5F5F5"/>
<path d="M186.388 98.156H184.867V99.6762H186.388V98.156Z" fill="#F5F5F5"/>
<path d="M186.388 100.705H184.867V102.225H186.388V100.705Z" fill="#F5F5F5"/>
<path d="M186.388 103.26H184.867V104.78H186.388V103.26Z" fill="#F5F5F5"/>
<path d="M186.388 105.814H184.867V107.334H186.388V105.814Z" fill="#F5F5F5"/>
<path d="M186.388 108.364H184.867V109.884H186.388V108.364Z" fill="#F5F5F5"/>
<path d="M186.388 110.918H184.867V112.438H186.388V110.918Z" fill="#F5F5F5"/>
<path d="M186.388 113.467H184.867V114.987H186.388V113.467Z" fill="#F5F5F5"/>
<path d="M186.388 116.022H184.867V117.542H186.388V116.022Z" fill="#F5F5F5"/>
<path d="M186.388 121.125H184.867V122.646H186.388V121.125Z" fill="#F5F5F5"/>
<path d="M186.388 123.68H184.867V125.201H186.388V123.68Z" fill="#F5F5F5"/>
<path d="M186.388 126.229H184.867V127.749H186.388V126.229Z" fill="#F5F5F5"/>
<path d="M186.388 128.784H184.867V130.304H186.388V128.784Z" fill="#F5F5F5"/>
<path d="M186.388 131.339H184.867V132.859H186.388V131.339Z" fill="#F5F5F5"/>
<path d="M183.972 75.1805H182.452V76.7007H183.972V75.1805Z" fill="#F5F5F5"/>
<path d="M183.972 77.7351H182.452V79.2553H183.972V77.7351Z" fill="#F5F5F5"/>
<path d="M183.972 80.284H182.452V81.8042H183.972V80.284Z" fill="#F5F5F5"/>
<path d="M183.972 82.839H182.452V84.3592H183.972V82.839Z" fill="#F5F5F5"/>
<path d="M183.972 85.3936H182.452V86.9138H183.972V85.3936Z" fill="#F5F5F5"/>
<path d="M183.972 87.9425H182.452V89.4627H183.972V87.9425Z" fill="#F5F5F5"/>
<path d="M183.972 90.4975H182.452V92.0177H183.972V90.4975Z" fill="#F5F5F5"/>
<path d="M183.972 93.0464H182.452V94.5666H183.972V93.0464Z" fill="#F5F5F5"/>
<path d="M183.972 95.601H182.452V97.1212H183.972V95.601Z" fill="#F5F5F5"/>
<path d="M183.972 98.156H182.452V99.6762H183.972V98.156Z" fill="#F5F5F5"/>
<path d="M183.972 100.705H182.452V102.225H183.972V100.705Z" fill="#F5F5F5"/>
<path d="M183.972 103.26H182.452V104.78H183.972V103.26Z" fill="#F5F5F5"/>
<path d="M183.972 105.814H182.452V107.334H183.972V105.814Z" fill="#F5F5F5"/>
<path d="M183.972 108.364H182.452V109.884H183.972V108.364Z" fill="#F5F5F5"/>
<path d="M183.972 110.918H182.452V112.438H183.972V110.918Z" fill="#F5F5F5"/>
<path d="M183.972 113.467H182.452V114.987H183.972V113.467Z" fill="#F5F5F5"/>
<path d="M183.972 128.784H182.452V130.304H183.972V128.784Z" fill="#F5F5F5"/>
<path d="M183.972 131.339H182.452V132.859H183.972V131.339Z" fill="#F5F5F5"/>
<path d="M181.55 75.1805H180.03V76.7007H181.55V75.1805Z" fill="#F5F5F5"/>
<path d="M181.55 77.7351H180.03V79.2553H181.55V77.7351Z" fill="#F5F5F5"/>
<path d="M181.55 80.284H180.03V81.8042H181.55V80.284Z" fill="#F5F5F5"/>
<path d="M181.55 82.839H180.03V84.3592H181.55V82.839Z" fill="#F5F5F5"/>
<path d="M181.55 85.3936H180.03V86.9138H181.55V85.3936Z" fill="#F5F5F5"/>
<path d="M181.55 87.9425H180.03V89.4627H181.55V87.9425Z" fill="#F5F5F5"/>
<path d="M181.55 90.4975H180.03V92.0177H181.55V90.4975Z" fill="#F5F5F5"/>
<path d="M181.55 93.0464H180.03V94.5666H181.55V93.0464Z" fill="#F5F5F5"/>
<path d="M181.55 95.601H180.03V97.1212H181.55V95.601Z" fill="#F5F5F5"/>
<path d="M181.55 98.156H180.03V99.6762H181.55V98.156Z" fill="#F5F5F5"/>
<path d="M181.55 100.705H180.03V102.225H181.55V100.705Z" fill="#F5F5F5"/>
<path d="M181.55 103.26H180.03V104.78H181.55V103.26Z" fill="#F5F5F5"/>
<path d="M181.55 105.814H180.03V107.334H181.55V105.814Z" fill="#F5F5F5"/>
<path d="M181.55 108.364H180.03V109.884H181.55V108.364Z" fill="#F5F5F5"/>
<path d="M181.55 110.918H180.03V112.438H181.55V110.918Z" fill="#F5F5F5"/>
<path d="M181.55 113.467H180.03V114.987H181.55V113.467Z" fill="#F5F5F5"/>
<path d="M181.55 118.577H180.03V120.097H181.55V118.577Z" fill="#F5F5F5"/>
<path d="M181.55 121.125H180.03V122.646H181.55V121.125Z" fill="#F5F5F5"/>
<path d="M181.55 123.68H180.03V125.201H181.55V123.68Z" fill="#F5F5F5"/>
<path d="M181.55 126.229H180.03V127.749H181.55V126.229Z" fill="#F5F5F5"/>
<path d="M181.55 131.339H180.03V132.859H181.55V131.339Z" fill="#F5F5F5"/>
<path d="M139.367 93.0464H137.847V94.5666H139.367V93.0464Z" fill="#F5F5F5"/>
<path d="M139.367 95.601H137.847V97.1212H139.367V95.601Z" fill="#F5F5F5"/>
<path d="M139.367 98.156H137.847V99.6762H139.367V98.156Z" fill="#F5F5F5"/>
<path d="M139.367 100.705H137.847V102.225H139.367V100.705Z" fill="#F5F5F5"/>
<path d="M139.367 103.26H137.847V104.78H139.367V103.26Z" fill="#F5F5F5"/>
<path d="M139.367 105.814H137.847V107.334H139.367V105.814Z" fill="#F5F5F5"/>
<path d="M139.367 108.364H137.847V109.884H139.367V108.364Z" fill="#F5F5F5"/>
<path d="M139.367 110.918H137.847V112.438H139.367V110.918Z" fill="#F5F5F5"/>
<path d="M139.367 113.467H137.847V114.987H139.367V113.467Z" fill="#F5F5F5"/>
<path d="M139.367 116.022H137.847V117.542H139.367V116.022Z" fill="#F5F5F5"/>
<path d="M139.367 118.577H137.847V120.097H139.367V118.577Z" fill="#F5F5F5"/>
<path d="M139.367 121.125H137.847V122.646H139.367V121.125Z" fill="#F5F5F5"/>
<path d="M139.367 123.68H137.847V125.201H139.367V123.68Z" fill="#F5F5F5"/>
<path d="M139.367 128.784H137.847V130.304H139.367V128.784Z" fill="#F5F5F5"/>
<path d="M139.367 131.339H137.847V132.859H139.367V131.339Z" fill="#F5F5F5"/>
<path d="M139.367 133.888H137.847V135.408H139.367V133.888Z" fill="#F5F5F5"/>
<path d="M139.367 136.443H137.847V137.963H139.367V136.443Z" fill="#F5F5F5"/>
<path d="M139.367 141.546H137.847V143.066H139.367V141.546Z" fill="#F5F5F5"/>
<path d="M139.367 144.101H137.847V145.621H139.367V144.101Z" fill="#F5F5F5"/>
<path d="M139.367 146.65H137.847V148.17H139.367V146.65Z" fill="#F5F5F5"/>
<path d="M136.952 93.0464H135.431V94.5666H136.952V93.0464Z" fill="#F5F5F5"/>
<path d="M136.952 95.601H135.431V97.1212H136.952V95.601Z" fill="#F5F5F5"/>
<path d="M136.952 98.156H135.431V99.6762H136.952V98.156Z" fill="#F5F5F5"/>
<path d="M136.952 100.705H135.431V102.225H136.952V100.705Z" fill="#F5F5F5"/>
<path d="M136.952 103.26H135.431V104.78H136.952V103.26Z" fill="#F5F5F5"/>
<path d="M136.952 105.814H135.431V107.334H136.952V105.814Z" fill="#F5F5F5"/>
<path d="M136.952 108.364H135.431V109.884H136.952V108.364Z" fill="#F5F5F5"/>
<path d="M136.952 110.918H135.431V112.438H136.952V110.918Z" fill="#F5F5F5"/>
<path d="M136.952 113.467H135.431V114.987H136.952V113.467Z" fill="#F5F5F5"/>
<path d="M136.952 116.022H135.431V117.542H136.952V116.022Z" fill="#F5F5F5"/>
<path d="M136.952 118.577H135.431V120.097H136.952V118.577Z" fill="#F5F5F5"/>
<path d="M136.952 121.125H135.431V122.646H136.952V121.125Z" fill="#F5F5F5"/>
<path d="M136.952 123.68H135.431V125.201H136.952V123.68Z" fill="#F5F5F5"/>
<path d="M136.952 131.339H135.431V132.859H136.952V131.339Z" fill="#F5F5F5"/>
<path d="M136.952 133.888H135.431V135.408H136.952V133.888Z" fill="#F5F5F5"/>
<path d="M136.952 138.992H135.431V140.512H136.952V138.992Z" fill="#F5F5F5"/>
<path d="M136.952 141.546H135.431V143.066H136.952V141.546Z" fill="#F5F5F5"/>
<path d="M136.952 144.101H135.431V145.621H136.952V144.101Z" fill="#F5F5F5"/>
<path d="M136.952 146.65H135.431V148.17H136.952V146.65Z" fill="#F5F5F5"/>
<path d="M134.53 93.0464H133.009V94.5666H134.53V93.0464Z" fill="#F5F5F5"/>
<path d="M134.53 95.601H133.009V97.1212H134.53V95.601Z" fill="#F5F5F5"/>
<path d="M134.53 98.156H133.009V99.6762H134.53V98.156Z" fill="#F5F5F5"/>
<path d="M134.53 100.705H133.009V102.225H134.53V100.705Z" fill="#F5F5F5"/>
<path d="M134.53 103.26H133.009V104.78H134.53V103.26Z" fill="#F5F5F5"/>
<path d="M134.53 105.814H133.009V107.334H134.53V105.814Z" fill="#F5F5F5"/>
<path d="M134.53 108.364H133.009V109.884H134.53V108.364Z" fill="#F5F5F5"/>
<path d="M134.53 110.918H133.009V112.438H134.53V110.918Z" fill="#F5F5F5"/>
<path d="M134.53 113.467H133.009V114.987H134.53V113.467Z" fill="#F5F5F5"/>
<path d="M134.53 116.022H133.009V117.542H134.53V116.022Z" fill="#F5F5F5"/>
<path d="M134.53 118.577H133.009V120.097H134.53V118.577Z" fill="#F5F5F5"/>
<path d="M134.53 121.125H133.009V122.646H134.53V121.125Z" fill="#F5F5F5"/>
<path d="M134.53 123.68H133.009V125.201H134.53V123.68Z" fill="#F5F5F5"/>
<path d="M134.53 126.229H133.009V127.749H134.53V126.229Z" fill="#F5F5F5"/>
<path d="M134.53 131.339H133.009V132.859H134.53V131.339Z" fill="#F5F5F5"/>
<path d="M134.53 136.443H133.009V137.963H134.53V136.443Z" fill="#F5F5F5"/>
<path d="M134.53 138.992H133.009V140.512H134.53V138.992Z" fill="#F5F5F5"/>
<path d="M134.53 141.546H133.009V143.066H134.53V141.546Z" fill="#F5F5F5"/>
<path d="M134.53 144.101H133.009V145.621H134.53V144.101Z" fill="#F5F5F5"/>
<path d="M134.53 146.65H133.009V148.17H134.53V146.65Z" fill="#F5F5F5"/>
<path d="M149.222 107.6H147.702V109.121H149.222V107.6Z" fill="#F5F5F5"/>
<path d="M149.222 110.155H147.702V111.676H149.222V110.155Z" fill="#F5F5F5"/>
<path d="M149.222 112.71H147.702V114.23H149.222V112.71Z" fill="#F5F5F5"/>
<path d="M149.222 115.259H147.702V116.779H149.222V115.259Z" fill="#F5F5F5"/>
<path d="M149.222 117.814H147.702V119.334H149.222V117.814Z" fill="#F5F5F5"/>
<path d="M149.222 120.363H147.702V121.883H149.222V120.363Z" fill="#F5F5F5"/>
<path d="M149.222 128.021H147.702V129.541H149.222V128.021Z" fill="#F5F5F5"/>
<path d="M149.222 130.576H147.702V132.096H149.222V130.576Z" fill="#F5F5F5"/>
<path d="M149.222 133.131H147.702V134.651H149.222V133.131Z" fill="#F5F5F5"/>
<path d="M149.222 135.68H147.702V137.2H149.222V135.68Z" fill="#F5F5F5"/>
<path d="M149.222 138.234H147.702V139.755H149.222V138.234Z" fill="#F5F5F5"/>
<path d="M149.222 140.783H147.702V142.303H149.222V140.783Z" fill="#F5F5F5"/>
<path d="M149.222 143.338H147.702V144.858H149.222V143.338Z" fill="#F5F5F5"/>
<path d="M146.801 107.6H145.28V109.121H146.801V107.6Z" fill="#F5F5F5"/>
<path d="M146.801 110.155H145.28V111.676H146.801V110.155Z" fill="#F5F5F5"/>
<path d="M146.801 112.71H145.28V114.23H146.801V112.71Z" fill="#F5F5F5"/>
<path d="M146.801 115.259H145.28V116.779H146.801V115.259Z" fill="#F5F5F5"/>
<path d="M146.801 117.814H145.28V119.334H146.801V117.814Z" fill="#F5F5F5"/>
<path d="M146.801 120.363H145.28V121.883H146.801V120.363Z" fill="#F5F5F5"/>
<path d="M146.801 128.021H145.28V129.541H146.801V128.021Z" fill="#F5F5F5"/>
<path d="M146.801 130.576H145.28V132.096H146.801V130.576Z" fill="#F5F5F5"/>
<path d="M146.801 133.131H145.28V134.651H146.801V133.131Z" fill="#F5F5F5"/>
<path d="M146.801 135.68H145.28V137.2H146.801V135.68Z" fill="#F5F5F5"/>
<path d="M146.801 138.234H145.28V139.755H146.801V138.234Z" fill="#F5F5F5"/>
<path d="M146.801 140.783H145.28V142.303H146.801V140.783Z" fill="#F5F5F5"/>
<path d="M146.801 145.893H145.28V147.413H146.801V145.893Z" fill="#F5F5F5"/>
<path d="M66.4642 96.3641H64.9441V97.8842H66.4642V96.3641Z" fill="#F5F5F5"/>
<path d="M66.4642 98.9133H64.9441V100.433H66.4642V98.9133Z" fill="#F5F5F5"/>
<path d="M66.4642 101.468H64.9441V102.988H66.4642V101.468Z" fill="#F5F5F5"/>
<path d="M66.4642 104.023H64.9441V105.543H66.4642V104.023Z" fill="#F5F5F5"/>
<path d="M66.4642 106.571H64.9441V108.092H66.4642V106.571Z" fill="#F5F5F5"/>
<path d="M66.4642 109.126H64.9441V110.647H66.4642V109.126Z" fill="#F5F5F5"/>
<path d="M66.4642 111.675H64.9441V113.195H66.4642V111.675Z" fill="#F5F5F5"/>
<path d="M66.4642 114.23H64.9441V115.75H66.4642V114.23Z" fill="#F5F5F5"/>
<path d="M66.4642 116.785H64.9441V118.305H66.4642V116.785Z" fill="#F5F5F5"/>
<path d="M66.4642 119.334H64.9441V120.854H66.4642V119.334Z" fill="#F5F5F5"/>
<path d="M66.4642 121.889H64.9441V123.409H66.4642V121.889Z" fill="#F5F5F5"/>
<path d="M66.4642 126.992H64.9441V128.512H66.4642V126.992Z" fill="#F5F5F5"/>
<path d="M66.4642 129.547H64.9441V131.067H66.4642V129.547Z" fill="#F5F5F5"/>
<path d="M66.4642 132.096H64.9441V133.616H66.4642V132.096Z" fill="#F5F5F5"/>
<path d="M66.4642 134.651H64.9441V136.171H66.4642V134.651Z" fill="#F5F5F5"/>
<path d="M66.4642 137.206H64.9441V138.726H66.4642V137.206Z" fill="#F5F5F5"/>
<path d="M66.4642 139.755H64.9441V141.275H66.4642V139.755Z" fill="#F5F5F5"/>
<path d="M66.4642 142.309H64.9441V143.83H66.4642V142.309Z" fill="#F5F5F5"/>
<path d="M66.4642 144.858H64.9441V146.378H66.4642V144.858Z" fill="#F5F5F5"/>
<path d="M64.0483 96.3641H62.5282V97.8842H64.0483V96.3641Z" fill="#F5F5F5"/>
<path d="M64.0483 98.9133H62.5282V100.433H64.0483V98.9133Z" fill="#F5F5F5"/>
<path d="M64.0483 101.468H62.5282V102.988H64.0483V101.468Z" fill="#F5F5F5"/>
<path d="M64.0483 104.023H62.5282V105.543H64.0483V104.023Z" fill="#F5F5F5"/>
<path d="M64.0483 106.571H62.5282V108.092H64.0483V106.571Z" fill="#F5F5F5"/>
<path d="M64.0483 109.126H62.5282V110.647H64.0483V109.126Z" fill="#F5F5F5"/>
<path d="M64.0483 111.675H62.5282V113.195H64.0483V111.675Z" fill="#F5F5F5"/>
<path d="M64.0483 114.23H62.5282V115.75H64.0483V114.23Z" fill="#F5F5F5"/>
<path d="M64.0483 116.785H62.5282V118.305H64.0483V116.785Z" fill="#F5F5F5"/>
<path d="M64.0483 119.334H62.5282V120.854H64.0483V119.334Z" fill="#F5F5F5"/>
<path d="M64.0483 121.889H62.5282V123.409H64.0483V121.889Z" fill="#F5F5F5"/>
<path d="M64.0483 124.443H62.5282V125.963H64.0483V124.443Z" fill="#F5F5F5"/>
<path d="M64.0483 126.992H62.5282V128.512H64.0483V126.992Z" fill="#F5F5F5"/>
<path d="M64.0483 129.547H62.5282V131.067H64.0483V129.547Z" fill="#F5F5F5"/>
<path d="M64.0483 132.096H62.5282V133.616H64.0483V132.096Z" fill="#F5F5F5"/>
<path d="M64.0483 134.651H62.5282V136.171H64.0483V134.651Z" fill="#F5F5F5"/>
<path d="M64.0483 137.206H62.5282V138.726H64.0483V137.206Z" fill="#F5F5F5"/>
<path d="M64.0483 139.755H62.5282V141.275H64.0483V139.755Z" fill="#F5F5F5"/>
<path d="M64.0483 142.309H62.5282V143.83H64.0483V142.309Z" fill="#F5F5F5"/>
<path d="M64.0483 144.858H62.5282V146.378H64.0483V144.858Z" fill="#F5F5F5"/>
<path d="M78.3769 106.306H76.8567V107.826H78.3769V106.306Z" fill="#F5F5F5"/>
<path d="M78.3769 108.855H76.8567V110.375H78.3769V108.855Z" fill="#F5F5F5"/>
<path d="M78.3769 111.409H76.8567V112.93H78.3769V111.409Z" fill="#F5F5F5"/>
<path d="M78.3769 113.964H76.8567V115.484H78.3769V113.964Z" fill="#F5F5F5"/>
<path d="M78.3769 116.513H76.8567V118.033H78.3769V116.513Z" fill="#F5F5F5"/>
<path d="M78.3769 119.068H76.8567V120.588H78.3769V119.068Z" fill="#F5F5F5"/>
<path d="M78.3769 121.617H76.8567V123.137H78.3769V121.617Z" fill="#F5F5F5"/>
<path d="M78.3769 124.172H76.8567V125.692H78.3769V124.172Z" fill="#F5F5F5"/>
<path d="M78.3769 126.726H76.8567V128.247H78.3769V126.726Z" fill="#F5F5F5"/>
<path d="M78.3769 129.275H76.8567V130.795H78.3769V129.275Z" fill="#F5F5F5"/>
<path d="M75.9605 106.306H74.4404V107.826H75.9605V106.306Z" fill="#F5F5F5"/>
<path d="M75.9605 108.855H74.4404V110.375H75.9605V108.855Z" fill="#F5F5F5"/>
<path d="M75.9605 111.409H74.4404V112.93H75.9605V111.409Z" fill="#F5F5F5"/>
<path d="M75.9605 113.964H74.4404V115.484H75.9605V113.964Z" fill="#F5F5F5"/>
<path d="M75.9605 116.513H74.4404V118.033H75.9605V116.513Z" fill="#F5F5F5"/>
<path d="M75.9605 119.068H74.4404V120.588H75.9605V119.068Z" fill="#F5F5F5"/>
<path d="M75.9605 121.617H74.4404V123.137H75.9605V121.617Z" fill="#F5F5F5"/>
<path d="M75.9605 124.172H74.4404V125.692H75.9605V124.172Z" fill="#F5F5F5"/>
<path d="M75.9605 126.726H74.4404V128.247H75.9605V126.726Z" fill="#F5F5F5"/>
<path d="M90.3471 29.8882H87.7924V151.794H90.3471V29.8882Z" fill="#F5F5F5"/>
<path d="M138.42 29.8882H135.865V151.794H138.42V29.8882Z" fill="#F5F5F5"/>
<path d="M186.491 29.8882H183.937V151.794H186.491V29.8882Z" fill="#F5F5F5"/>
<path d="M151.863 139.749H159.135V139.263C159.135 138.315 158.071 137.558 156.823 137.61L153.973 137.726C152.817 137.772 151.881 138.5 151.881 139.379L151.863 139.749Z" fill="#F0F0F0"/>
<path d="M166.262 139.998H175.886L177.412 126.582C177.4 126.341 177.295 126.113 177.12 125.946C176.944 125.779 176.711 125.686 176.469 125.686H170.025C169.783 125.686 169.55 125.779 169.374 125.946C169.199 126.113 169.094 126.341 169.083 126.582L166.262 139.998Z" fill="#E6E6E6"/>
<path d="M151.575 105.913H153.979L156.679 131.281H154.274C154.077 131.276 153.889 131.2 153.744 131.067C153.599 130.935 153.506 130.754 153.482 130.559L150.933 106.63C150.922 106.539 150.93 106.447 150.957 106.36C150.984 106.273 151.029 106.192 151.09 106.124C151.151 106.056 151.226 106.002 151.309 105.966C151.393 105.929 151.484 105.911 151.575 105.913Z" fill="#E6E6E6"/>
<path d="M155.291 131.281H191.318C191.41 131.284 191.502 131.266 191.586 131.23C191.671 131.193 191.746 131.138 191.808 131.07C191.869 131.001 191.914 130.919 191.94 130.831C191.967 130.743 191.973 130.65 191.96 130.558L189.416 106.629C189.393 106.434 189.299 106.253 189.152 106.121C189.005 105.989 188.816 105.915 188.619 105.913H152.592C152.5 105.91 152.409 105.927 152.325 105.964C152.241 106 152.166 106.054 152.105 106.122C152.044 106.19 151.998 106.271 151.972 106.359C151.945 106.446 151.938 106.539 151.95 106.629L154.494 130.558C154.518 130.754 154.612 130.935 154.759 131.067C154.905 131.2 155.094 131.276 155.291 131.281Z" fill="#EBEBEB"/>
<path d="M155.968 128.94H189.908C189.988 128.94 190.068 128.924 190.142 128.892C190.215 128.859 190.282 128.812 190.336 128.753C190.39 128.693 190.432 128.623 190.458 128.547C190.483 128.471 190.493 128.39 190.486 128.31L188.26 107.433C188.24 107.262 188.158 107.104 188.031 106.989C187.903 106.873 187.739 106.807 187.567 106.803H153.609C153.529 106.802 153.449 106.819 153.375 106.851C153.302 106.883 153.235 106.931 153.181 106.99C153.127 107.049 153.085 107.119 153.059 107.195C153.034 107.272 153.024 107.352 153.031 107.433L155.268 128.316C155.291 128.486 155.375 128.642 155.503 128.757C155.631 128.871 155.796 128.936 155.968 128.94Z" fill="#FAFAFA"/>
<path d="M165.892 139.997H177.741C178.025 139.997 178.255 139.767 178.255 139.483V139.471C178.255 139.187 178.025 138.957 177.741 138.957H165.892C165.608 138.957 165.377 139.187 165.377 139.471V139.483C165.377 139.767 165.608 139.997 165.892 139.997Z" fill="#E6E6E6"/>
<path d="M136.76 144.112H166.065V139.691H136.76V144.112Z" fill="#E6E6E6"/>
<path d="M218.415 189.07H219.149C219.192 189.068 219.233 189.051 219.264 189.021C219.295 188.991 219.313 188.951 219.316 188.908L220.472 144.119H217.091L218.247 188.908C218.248 188.951 218.267 188.992 218.298 189.023C218.329 189.053 218.371 189.07 218.415 189.07Z" fill="#E6E6E6"/>
<path d="M244.5 189.07H246.187L241.419 144.119H238.038L244.5 189.07Z" fill="#F0F0F0"/>
<path d="M135.61 189.07L142.09 144.119H138.708L133.94 189.07H135.61Z" fill="#E6E6E6"/>
<path d="M157.702 144.112H243.373V139.691H157.702V144.112Z" fill="#F5F5F5"/>
<path d="M160.377 189.07H162.319L163.036 144.119H159.655L160.377 189.07Z" fill="#F0F0F0"/>
<path d="M187.746 138.899H188.642C188.664 138.899 188.686 138.895 188.706 138.886C188.726 138.878 188.745 138.866 188.76 138.85C188.776 138.834 188.788 138.816 188.797 138.796C188.805 138.775 188.81 138.753 188.81 138.731V137.778C188.81 137.733 188.792 137.691 188.76 137.659C188.729 137.628 188.686 137.61 188.642 137.61H187.995C187.957 137.61 187.921 137.623 187.892 137.646C187.863 137.669 187.842 137.701 187.833 137.737L187.578 138.685C187.571 138.711 187.57 138.738 187.575 138.764C187.58 138.79 187.591 138.814 187.608 138.835C187.624 138.856 187.645 138.873 187.669 138.884C187.693 138.895 187.719 138.9 187.746 138.899Z" fill="#F5F5F5"/>
<path d="M186.503 138.899H187.399C187.422 138.9 187.444 138.896 187.465 138.888C187.486 138.88 187.505 138.868 187.522 138.852C187.538 138.836 187.551 138.818 187.559 138.797C187.568 138.776 187.573 138.754 187.573 138.732V137.778C187.573 137.755 187.568 137.733 187.559 137.712C187.551 137.692 187.538 137.673 187.522 137.657C187.505 137.642 187.486 137.629 187.465 137.621C187.444 137.613 187.422 137.609 187.399 137.61H186.758C186.72 137.61 186.683 137.622 186.652 137.645C186.622 137.668 186.6 137.701 186.59 137.737L186.336 138.685C186.329 138.711 186.327 138.738 186.332 138.764C186.337 138.79 186.349 138.814 186.365 138.835C186.381 138.856 186.402 138.873 186.427 138.884C186.451 138.895 186.477 138.9 186.503 138.899Z" fill="#F5F5F5"/>
<path d="M185.261 138.899H186.162C186.184 138.899 186.206 138.895 186.226 138.886C186.247 138.878 186.265 138.866 186.281 138.85C186.296 138.834 186.309 138.816 186.317 138.796C186.326 138.775 186.33 138.753 186.33 138.731V137.778C186.33 137.756 186.326 137.734 186.317 137.714C186.309 137.693 186.296 137.675 186.281 137.659C186.265 137.644 186.247 137.631 186.226 137.623C186.206 137.614 186.184 137.61 186.162 137.61H185.538C185.5 137.611 185.464 137.624 185.434 137.646C185.404 137.669 185.381 137.701 185.37 137.737L185.122 138.685C185.115 138.708 185.113 138.733 185.117 138.757C185.12 138.781 185.129 138.804 185.142 138.824C185.155 138.844 185.173 138.862 185.193 138.875C185.214 138.888 185.237 138.896 185.261 138.899Z" fill="#F5F5F5"/>
<path d="M184.024 138.899H184.92C184.965 138.899 185.008 138.882 185.04 138.85C185.073 138.819 185.092 138.776 185.093 138.731V137.778C185.092 137.733 185.073 137.69 185.04 137.659C185.008 137.628 184.965 137.61 184.92 137.61H184.272C184.235 137.61 184.199 137.623 184.17 137.646C184.14 137.669 184.119 137.701 184.11 137.737L183.856 138.685C183.849 138.711 183.848 138.738 183.853 138.764C183.858 138.79 183.869 138.814 183.885 138.835C183.902 138.856 183.923 138.873 183.947 138.884C183.971 138.895 183.997 138.9 184.024 138.899Z" fill="#F5F5F5"/>
<path d="M182.781 138.899H183.677C183.699 138.9 183.722 138.896 183.743 138.888C183.764 138.88 183.783 138.868 183.799 138.852C183.815 138.836 183.828 138.818 183.837 138.797C183.846 138.776 183.85 138.754 183.85 138.732V137.778C183.85 137.755 183.846 137.733 183.837 137.712C183.828 137.692 183.815 137.673 183.799 137.657C183.783 137.642 183.764 137.629 183.743 137.621C183.722 137.613 183.699 137.609 183.677 137.61H183.035C182.997 137.61 182.96 137.622 182.93 137.645C182.9 137.668 182.878 137.701 182.868 137.737L182.613 138.685C182.607 138.711 182.607 138.737 182.613 138.763C182.618 138.788 182.629 138.812 182.646 138.833C182.662 138.853 182.682 138.87 182.706 138.881C182.729 138.893 182.755 138.899 182.781 138.899Z" fill="#F5F5F5"/>
<path d="M181.538 138.899H182.44C182.462 138.899 182.484 138.895 182.504 138.886C182.524 138.878 182.543 138.866 182.558 138.85C182.574 138.834 182.586 138.816 182.595 138.796C182.603 138.775 182.607 138.753 182.607 138.731V137.778C182.607 137.733 182.59 137.691 182.558 137.659C182.527 137.628 182.484 137.61 182.44 137.61H181.792C181.755 137.61 181.719 137.623 181.69 137.646C181.66 137.669 181.64 137.701 181.631 137.737L181.376 138.685C181.369 138.71 181.368 138.737 181.373 138.762C181.377 138.788 181.388 138.812 181.404 138.833C181.419 138.853 181.44 138.87 181.463 138.882C181.486 138.893 181.512 138.899 181.538 138.899Z" fill="#F5F5F5"/>
<path d="M180.301 138.899H181.197C181.242 138.899 181.285 138.882 181.318 138.85C181.35 138.819 181.369 138.776 181.37 138.731V137.778C181.369 137.733 181.35 137.69 181.318 137.659C181.285 137.628 181.242 137.61 181.197 137.61H180.555C180.517 137.609 180.48 137.621 180.449 137.644C180.419 137.667 180.397 137.7 180.388 137.737L180.133 138.685C180.126 138.711 180.125 138.738 180.13 138.764C180.135 138.79 180.146 138.814 180.163 138.835C180.179 138.856 180.2 138.873 180.224 138.884C180.248 138.895 180.275 138.9 180.301 138.899Z" fill="#F5F5F5"/>
<path d="M179.059 138.899H179.955C179.977 138.9 180 138.896 180.021 138.888C180.042 138.88 180.061 138.868 180.077 138.852C180.093 138.836 180.106 138.818 180.115 138.797C180.124 138.776 180.128 138.754 180.128 138.732V137.778C180.128 137.755 180.124 137.733 180.115 137.712C180.106 137.692 180.093 137.673 180.077 137.657C180.061 137.642 180.042 137.629 180.021 137.621C180 137.613 179.977 137.609 179.955 137.61H179.313C179.275 137.61 179.238 137.622 179.208 137.645C179.178 137.668 179.156 137.701 179.146 137.737L178.891 138.685C178.885 138.711 178.885 138.737 178.89 138.763C178.896 138.788 178.907 138.812 178.923 138.833C178.939 138.853 178.96 138.87 178.983 138.881C179.007 138.893 179.033 138.899 179.059 138.899Z" fill="#F5F5F5"/>
<path d="M177.816 138.899H178.718C178.74 138.899 178.761 138.895 178.782 138.886C178.802 138.878 178.821 138.866 178.836 138.85C178.852 138.834 178.864 138.816 178.872 138.796C178.881 138.775 178.885 138.753 178.885 138.731V137.778C178.885 137.733 178.868 137.691 178.836 137.659C178.805 137.628 178.762 137.61 178.718 137.61H178.07C178.033 137.61 177.997 137.623 177.967 137.646C177.938 137.669 177.917 137.701 177.908 137.737L177.654 138.685C177.647 138.71 177.646 138.737 177.65 138.762C177.655 138.788 177.666 138.812 177.682 138.833C177.697 138.853 177.718 138.87 177.741 138.882C177.764 138.893 177.79 138.899 177.816 138.899Z" fill="#F5F5F5"/>
<path d="M176.579 138.899H177.475C177.498 138.9 177.52 138.896 177.541 138.888C177.562 138.88 177.581 138.868 177.597 138.852C177.614 138.836 177.626 138.818 177.635 138.797C177.644 138.776 177.649 138.754 177.648 138.732V137.778C177.649 137.755 177.644 137.733 177.635 137.712C177.626 137.692 177.614 137.673 177.597 137.657C177.581 137.642 177.562 137.629 177.541 137.621C177.52 137.613 177.498 137.609 177.475 137.61H176.834C176.795 137.609 176.758 137.621 176.727 137.644C176.697 137.667 176.675 137.7 176.666 137.737L176.412 138.685C176.404 138.711 176.403 138.738 176.408 138.764C176.413 138.79 176.424 138.814 176.441 138.835C176.457 138.856 176.478 138.873 176.502 138.884C176.526 138.895 176.553 138.9 176.579 138.899Z" fill="#F5F5F5"/>
<path d="M175.337 138.899H176.238C176.26 138.899 176.282 138.895 176.302 138.886C176.323 138.878 176.341 138.866 176.357 138.85C176.372 138.834 176.385 138.816 176.393 138.796C176.402 138.775 176.406 138.753 176.406 138.731V137.778C176.406 137.733 176.388 137.691 176.357 137.659C176.325 137.628 176.283 137.61 176.238 137.61H175.591C175.553 137.611 175.517 137.624 175.486 137.646C175.456 137.669 175.434 137.701 175.423 137.737L175.175 138.685C175.168 138.71 175.166 138.737 175.171 138.762C175.176 138.788 175.186 138.812 175.202 138.833C175.218 138.853 175.238 138.87 175.262 138.882C175.285 138.893 175.311 138.899 175.337 138.899Z" fill="#F5F5F5"/>
<path d="M174.099 138.899H174.995C175.04 138.899 175.084 138.882 175.116 138.85C175.148 138.819 175.167 138.776 175.169 138.731V137.778C175.167 137.733 175.148 137.69 175.116 137.659C175.084 137.628 175.04 137.61 174.995 137.61H174.348C174.311 137.61 174.275 137.623 174.245 137.646C174.216 137.669 174.195 137.701 174.186 137.737L173.932 138.685C173.925 138.711 173.923 138.738 173.928 138.764C173.933 138.79 173.945 138.814 173.961 138.835C173.977 138.856 173.998 138.873 174.023 138.884C174.047 138.895 174.073 138.9 174.099 138.899Z" fill="#F5F5F5"/>
<path d="M172.857 138.899H173.752C173.775 138.9 173.797 138.896 173.818 138.888C173.839 138.88 173.859 138.868 173.875 138.852C173.891 138.836 173.904 138.818 173.913 138.797C173.921 138.776 173.926 138.754 173.926 138.732V137.778C173.926 137.755 173.921 137.733 173.913 137.712C173.904 137.692 173.891 137.673 173.875 137.657C173.859 137.642 173.839 137.629 173.818 137.621C173.797 137.613 173.775 137.609 173.752 137.61H173.111C173.073 137.61 173.036 137.622 173.006 137.645C172.975 137.668 172.953 137.701 172.943 137.737L172.689 138.685C172.682 138.711 172.68 138.738 172.685 138.764C172.691 138.79 172.702 138.814 172.718 138.835C172.734 138.856 172.755 138.873 172.78 138.884C172.804 138.895 172.83 138.9 172.857 138.899Z" fill="#F5F5F5"/>
<path d="M171.614 138.899H172.516C172.538 138.899 172.559 138.895 172.58 138.886C172.6 138.878 172.619 138.866 172.634 138.85C172.65 138.834 172.662 138.816 172.67 138.796C172.679 138.775 172.683 138.753 172.683 138.731V137.778C172.683 137.733 172.666 137.691 172.634 137.659C172.603 137.628 172.56 137.61 172.516 137.61H171.868C171.83 137.611 171.794 137.624 171.764 137.646C171.734 137.669 171.712 137.701 171.701 137.737L171.452 138.685C171.445 138.71 171.444 138.737 171.448 138.762C171.453 138.788 171.464 138.812 171.48 138.833C171.495 138.853 171.516 138.87 171.539 138.882C171.562 138.893 171.588 138.899 171.614 138.899Z" fill="#F5F5F5"/>
<path d="M170.377 138.899H171.273C171.318 138.899 171.361 138.882 171.394 138.85C171.426 138.819 171.445 138.776 171.446 138.731V137.778C171.445 137.733 171.426 137.69 171.394 137.659C171.361 137.628 171.318 137.61 171.273 137.61H170.626C170.588 137.61 170.552 137.623 170.523 137.646C170.494 137.669 170.473 137.701 170.464 137.737L170.21 138.685C170.202 138.711 170.201 138.738 170.206 138.764C170.211 138.79 170.222 138.814 170.239 138.835C170.255 138.856 170.276 138.873 170.3 138.884C170.324 138.895 170.351 138.9 170.377 138.899Z" fill="#F5F5F5"/>
<path d="M169.475 139.749H189.549V138.252H169.475V139.749Z" fill="#EBEBEB"/>
<path d="M202.248 152.893V150.852C202.248 150.499 202.318 150.148 202.453 149.822C202.588 149.495 202.787 149.198 203.037 148.948C203.287 148.698 203.584 148.499 203.911 148.364C204.237 148.229 204.588 148.159 204.941 148.159H235.98C236.694 148.159 237.379 148.443 237.885 148.948C238.39 149.453 238.673 150.138 238.673 150.852V152.893H202.248Z" fill="#E0E0E0"/>
<path d="M237.477 179.857L225.802 178.701V162.303H221.178V178.706L209.456 179.862C208.894 179.917 208.373 180.179 207.994 180.596C207.614 181.014 207.404 181.558 207.404 182.122V183.856H239.523V182.122C239.525 181.558 239.316 181.013 238.938 180.595C238.56 180.176 238.039 179.913 237.477 179.857Z" fill="#E0E0E0"/>
<path d="M211.664 186.046C211.665 186.646 211.488 187.232 211.156 187.731C210.823 188.23 210.35 188.619 209.797 188.849C209.243 189.079 208.634 189.14 208.046 189.023C207.457 188.906 206.917 188.618 206.493 188.194C206.069 187.77 205.781 187.23 205.664 186.642C205.548 186.054 205.608 185.444 205.838 184.891C206.068 184.337 206.457 183.864 206.956 183.532C207.455 183.199 208.041 183.022 208.641 183.024C209.443 183.024 210.211 183.342 210.778 183.909C211.345 184.476 211.664 185.245 211.664 186.046Z" fill="#E0E0E0"/>
<path d="M235.246 186.046C235.245 186.646 235.421 187.232 235.753 187.731C236.085 188.23 236.558 188.619 237.111 188.849C237.665 189.079 238.274 189.14 238.862 189.023C239.45 188.907 239.99 188.619 240.414 188.196C240.838 187.773 241.127 187.233 241.245 186.645C241.362 186.058 241.302 185.448 241.073 184.895C240.844 184.341 240.456 183.867 239.958 183.534C239.46 183.201 238.874 183.024 238.274 183.024C237.472 183.024 236.703 183.342 236.135 183.909C235.567 184.475 235.247 185.244 235.246 186.046Z" fill="#E0E0E0"/>
<path d="M220.38 151.216H226.576V163.574C226.576 163.867 226.518 164.157 226.406 164.428C226.294 164.698 226.129 164.944 225.922 165.151C225.715 165.359 225.469 165.523 225.198 165.635C224.928 165.747 224.638 165.805 224.345 165.805H222.611C222.019 165.805 221.451 165.57 221.033 165.151C220.615 164.733 220.38 164.165 220.38 163.574V151.216Z" fill="#E6E6E6"/>
<path d="M217.328 148.465C220.858 134.464 222.875 120.125 223.345 105.693C223.402 104.14 224.059 102.67 225.178 101.592C226.297 100.514 227.791 99.9122 229.345 99.9133H240.119C241.707 99.9132 243.231 100.543 244.357 101.664C245.483 102.785 246.118 104.307 246.124 105.896C246.17 115.722 245.482 135.761 239.951 152.06L219.449 151.309C219.112 151.29 218.782 151.198 218.484 151.038C218.186 150.878 217.926 150.654 217.724 150.383C217.522 150.112 217.381 149.799 217.313 149.468C217.245 149.137 217.25 148.794 217.328 148.465Z" fill="#EBEBEB"/>
<path d="M220.218 150.985C223.942 136.396 226.101 121.451 226.657 106.404C226.712 104.972 227.321 103.617 228.355 102.624C229.388 101.631 230.767 101.078 232.2 101.081H242.182C243.648 101.079 245.054 101.658 246.093 102.692C247.132 103.726 247.719 105.129 247.725 106.595C247.765 115.64 247.147 135.951 242.032 150.985H220.218Z" fill="#E6E6E6"/>
<path d="M224.501 136.686C224.501 136.686 212.698 134.299 201.3 135.455C189.902 136.611 206.664 151.5 206.664 151.5H209.016C209.016 151.5 200.132 142.061 200.629 139.709C201.127 137.356 223.489 140.454 223.489 140.454L224.501 136.686Z" fill="#E6E6E6"/>
<path d="M241.997 150.985H222.669C226.397 136.396 228.557 121.451 229.114 106.404C229.169 104.972 229.778 103.617 230.811 102.624C231.845 101.631 233.224 101.078 234.657 101.081H242.171C243.637 101.079 245.044 101.658 246.084 102.692C247.124 103.725 247.712 105.129 247.72 106.595C247.737 115.64 247.107 135.945 241.997 150.985Z" fill="#E0E0E0"/>
<path d="M202.017 152.893H241.304C241.904 152.893 242.39 152.406 242.39 151.806V151.61C242.39 151.009 241.904 150.523 241.304 150.523H202.017C201.417 150.523 200.93 151.009 200.93 151.61V151.806C200.93 152.406 201.417 152.893 202.017 152.893Z" fill="#E0E0E0"/>
<path d="M143.674 20.675C105.612 37.7953 140.165 68.3137 118.189 84.937C96.2139 101.56 36.4661 82.3418 59.2335 125.501C85.9833 176.197 203.155 169.157 228.403 107.005C253.65 44.8527 181.729 3.54883 143.674 20.675Z" fill="#E53888"/>
<path d="M143.674 20.675C105.612 37.7953 140.165 68.3137 118.189 84.937C96.2139 101.56 36.4661 82.3418 59.2335 125.501C85.9833 176.197 203.155 169.157 228.403 107.005C253.65 44.8527 181.729 3.54883 143.674 20.675Z" fill="white"/>
<path d="M144.5 215.339C206.394 215.339 256.568 212.41 256.568 208.796C256.568 205.183 206.394 202.253 144.5 202.253C82.6062 202.253 32.4315 205.183 32.4315 208.796C32.4315 212.41 82.6062 215.339 144.5 215.339Z" fill="#F5F5F5"/>
<path d="M154.765 59.3836H72.1399C69.8256 59.3836 67.9494 61.2597 67.9494 63.5741V187.133C67.9494 189.448 69.8256 191.324 72.1399 191.324H154.765C157.079 191.324 158.956 189.448 158.956 187.133V63.5741C158.956 61.2597 157.079 59.3836 154.765 59.3836Z" fill="#263238"/>
<path d="M154.765 59.3836H72.1399C69.8256 59.3836 67.9494 61.2597 67.9494 63.5741V187.133C67.9494 189.448 69.8256 191.324 72.1399 191.324H154.765C157.079 191.324 158.956 189.448 158.956 187.133V63.5741C158.956 61.2597 157.079 59.3836 154.765 59.3836Z" fill="white"/>
<path d="M154.621 69.0419H75.7585V186.191H154.621V69.0419Z" fill="black"/>
<path d="M115.871 57.6552C115.871 57.0129 115.616 56.3969 115.162 55.9427C114.708 55.4885 114.092 55.2334 113.45 55.2334C112.807 55.2334 112.191 55.4885 111.737 55.9427C111.283 56.3969 111.028 57.0129 111.028 57.6552H93.6878C93.5274 57.6544 93.3685 57.6854 93.2201 57.7465C93.0718 57.8075 92.9371 57.8973 92.8237 58.0107C92.7103 58.1241 92.6205 58.2588 92.5595 58.4072C92.4984 58.5555 92.4674 58.7144 92.4682 58.8748V71.4925H134.391V58.8748C134.391 58.7144 134.36 58.5555 134.299 58.4072C134.238 58.2588 134.148 58.1241 134.035 58.0107C133.922 57.8973 133.787 57.8075 133.639 57.7465C133.49 57.6854 133.331 57.6544 133.171 57.6552H115.871ZM113.45 56.3894C113.7 56.3894 113.945 56.4636 114.153 56.6027C114.361 56.7418 114.523 56.9395 114.619 57.1708C114.715 57.4021 114.74 57.6566 114.691 57.9021C114.642 58.1477 114.522 58.3732 114.345 58.5503C114.168 58.7273 113.942 58.8478 113.697 58.8967C113.451 58.9455 113.196 58.9205 112.965 58.8247C112.734 58.7289 112.536 58.5666 112.397 58.3584C112.258 58.1503 112.184 57.9055 112.184 57.6552C112.184 57.3195 112.317 56.9975 112.555 56.7601C112.792 56.5227 113.114 56.3894 113.45 56.3894Z" fill="#263238"/>
<path d="M152.881 67.308H74.0184V184.457H152.881V67.308Z" fill="#E53888"/>
<path d="M152.881 67.308H74.0184V184.457H152.881V67.308Z" fill="white"/>
<path d="M140.431 80.2725H86.4687V83.1625H140.431V80.2725Z" fill="black"/>
<path d="M140.437 90.5376H92.2545V91.6936H140.437V90.5376Z" fill="black"/>
<path d="M140.431 95.0172H86.4687V96.1732H140.431V95.0172Z" fill="black"/>
<path d="M140.431 99.4967H86.4687V100.653H140.431V99.4967Z" fill="black"/>
<path d="M140.431 103.982H86.4688V105.138H140.431V103.982Z" fill="black"/>
<path d="M140.431 108.462H86.4688V109.618H140.431V108.462Z" fill="black"/>
<path d="M140.431 112.941H86.4688V114.097H140.431V112.941Z" fill="black"/>
<path d="M111.513 117.42H86.4688V118.576H111.513V117.42Z" fill="black"/>
<path d="M95.948 135.645H86.4688V126.2H95.948V135.645ZM87.6537 134.489H94.792V127.356H87.6248L87.6537 134.489Z" fill="black"/>
<path d="M140.436 128.593H98.9936V129.749H140.436V128.593Z" fill="black"/>
<path d="M127.235 132.095H98.9936V133.251H127.235V132.095Z" fill="black"/>
<path d="M95.948 152.996H86.4688V143.552H95.948V152.996ZM87.6537 151.84H94.792V144.708H87.6248L87.6537 151.84Z" fill="black"/>
<path d="M140.436 145.945H98.9938V147.101H140.436V145.945Z" fill="black"/>
<path d="M127.235 149.447H98.9936V150.603H127.235V149.447Z" fill="black"/>
<path d="M95.948 170.347H86.4688V160.897H95.948V170.347ZM87.6537 169.191H94.792V162.053H87.6248L87.6537 169.191Z" fill="black"/>
<path d="M140.436 163.29H98.9938V164.446H140.436V163.29Z" fill="black"/>
<path d="M127.235 166.799H98.9936V167.955H127.235V166.799Z" fill="black"/>
<path d="M90.1853 133.593L88.4976 131.264L89.4339 130.582L90.2836 131.761L92.9944 128.778L93.8498 129.558L90.1853 133.593Z" fill="#E53888"/>
<path d="M90.1853 150.939L88.4976 148.609L89.4339 147.933L90.2836 149.112L92.9944 146.13L93.8498 146.91L90.1853 150.939Z" fill="#E53888"/>
<path d="M90.1853 168.29L88.4976 165.961L89.4339 165.285L90.2836 166.464L92.9944 163.481L93.8498 164.262L90.1853 168.29Z" fill="#E53888"/>
<path d="M128.055 74.9551H99.9936C99.7489 74.962 99.5056 74.9159 99.2804 74.82C99.0552 74.7241 98.8533 74.5807 98.6886 74.3996C98.524 74.2184 98.4004 74.0039 98.3263 73.7706C98.2523 73.5372 98.2295 73.2907 98.2596 73.0477L99.0283 65.5337C99.0807 65.0046 99.3258 64.5132 99.7169 64.153C100.108 63.7927 100.618 63.5889 101.15 63.5801H129.194C129.44 63.5721 129.684 63.6177 129.91 63.7136C130.136 63.8095 130.339 63.9534 130.504 64.1354C130.669 64.3175 130.792 64.5332 130.865 64.7677C130.939 65.0021 130.96 65.2497 130.928 65.4933L130.159 73.0073C130.107 73.533 129.864 74.0213 129.477 74.3802C129.089 74.7391 128.584 74.9436 128.055 74.9551ZM101.046 64.7361C100.839 64.7403 100.64 64.8194 100.487 64.9586C100.334 65.0978 100.237 65.2878 100.213 65.4933L99.4445 73.0073C99.4328 73.1029 99.4419 73.1998 99.4711 73.2916C99.5003 73.3833 99.5489 73.4677 99.6136 73.539C99.6783 73.6103 99.7576 73.6669 99.8461 73.7048C99.9346 73.7427 100.03 73.7611 100.127 73.7587H128.171C128.377 73.7546 128.575 73.6764 128.728 73.5384C128.88 73.4003 128.978 73.2118 129.003 73.0073L129.772 65.4933C129.785 65.3978 129.776 65.3007 129.748 65.2086C129.719 65.1166 129.672 65.0317 129.607 64.9599C129.543 64.888 129.464 64.8308 129.376 64.7922C129.288 64.7536 129.192 64.7345 129.096 64.7361H101.046Z" fill="black"/>
<path d="M127.478 74.377H99.4157C98.9093 74.377 98.4236 74.1762 98.0649 73.8187C97.7063 73.4611 97.5041 72.976 97.5025 72.4696V64.9556C97.4971 64.7009 97.5427 64.4478 97.6364 64.211C97.7301 63.9742 97.8702 63.7585 98.0484 63.5765C98.2266 63.3946 98.4393 63.25 98.6741 63.1513C98.9089 63.0527 99.161 63.0019 99.4157 63.0019H127.466C127.973 63.0019 128.46 63.2035 128.819 63.5623C129.178 63.9211 129.379 64.4077 129.379 64.9151V72.4291C129.384 72.6823 129.338 72.9339 129.245 73.1692C129.151 73.4046 129.012 73.6191 128.835 73.8003C128.658 73.9815 128.447 74.1258 128.214 74.2247C127.981 74.3237 127.731 74.3755 127.478 74.377ZM99.4157 64.1579C99.2149 64.1579 99.0223 64.2377 98.8803 64.3797C98.7383 64.5217 98.6585 64.7143 98.6585 64.9151V72.4291C98.6601 72.6289 98.7405 72.82 98.8823 72.9608C99.0242 73.1015 99.2159 73.1805 99.4157 73.1805H127.466C127.666 73.1805 127.858 73.1015 127.999 72.9608C128.141 72.82 128.222 72.6289 128.223 72.4291V64.9151C128.223 64.7143 128.143 64.5217 128.001 64.3797C127.859 64.2377 127.667 64.1579 127.466 64.1579H99.4157Z" fill="white"/>
<path d="M124.478 61.2333H102.421C101.946 61.2333 101.56 61.6188 101.56 62.0945V65.1001C101.56 65.5757 101.946 65.9613 102.421 65.9613H124.478C124.954 65.9613 125.339 65.5757 125.339 65.1001V62.0945C125.339 61.6188 124.954 61.2333 124.478 61.2333Z" fill="#263238"/>
<path d="M124.478 61.2333H102.421C101.946 61.2333 101.56 61.6188 101.56 62.0945V65.1001C101.56 65.5757 101.946 65.9613 102.421 65.9613H124.478C124.954 65.9613 125.339 65.5757 125.339 65.1001V62.0945C125.339 61.6188 124.954 61.2333 124.478 61.2333Z" fill="white"/>
<path d="M59.9793 196.561C59.9793 196.561 62.7248 190.567 59.5862 184.666C56.4477 178.765 55.5402 177.366 57.5401 176.158C59.54 174.95 60.4301 180.88 60.4301 180.88C61.4237 178.2 61.527 175.271 60.7249 172.528C59.3319 168.257 58.4591 161.297 60.3607 160.552C62.2624 159.806 60.7249 169.222 62.3722 172.441C63.214 170.187 63.7561 167.832 63.9848 165.436C64.216 162.003 63.8576 156.523 65.3604 155.119C66.8632 153.714 67.8227 154.685 66.3488 162.257C65.4594 166.781 64.9682 171.375 64.8807 175.984C64.8807 175.984 68.1406 166.054 70.3255 165.765C72.5103 165.476 72.5103 168.69 70.6376 171.482C68.7649 174.274 65.1581 179.268 64.5628 181.84C64.5628 181.84 68.1406 174.366 71.3601 176.638C74.5795 178.909 68.5568 183.446 65.8749 185.076C63.1929 186.706 61.3318 196.937 61.3318 196.937L59.9793 196.561Z" fill="#E53888"/>
<path d="M59.9793 196.561C59.9793 196.561 62.7248 190.567 59.5862 184.666C56.4477 178.765 55.5402 177.366 57.5401 176.158C59.54 174.95 60.4301 180.88 60.4301 180.88C61.4237 178.2 61.527 175.271 60.7249 172.528C59.3319 168.257 58.4591 161.297 60.3607 160.552C62.2624 159.806 60.7249 169.222 62.3722 172.441C63.214 170.187 63.7561 167.832 63.9848 165.436C64.216 162.003 63.8576 156.523 65.3604 155.119C66.8632 153.714 67.8227 154.685 66.3488 162.257C65.4594 166.781 64.9682 171.375 64.8807 175.984C64.8807 175.984 68.1406 166.054 70.3255 165.765C72.5103 165.476 72.5103 168.69 70.6376 171.482C68.7649 174.274 65.1581 179.268 64.5628 181.84C64.5628 181.84 68.1406 174.366 71.3601 176.638C74.5795 178.909 68.5568 183.446 65.8749 185.076C63.1929 186.706 61.3318 196.937 61.3318 196.937L59.9793 196.561Z" fill="black"/>
<path d="M62.1466 199.017C62.1466 199.017 59.4762 192.983 62.6841 187.128C65.892 181.273 66.8168 179.891 64.8285 178.654C62.8402 177.418 61.8576 183.33 61.8576 183.33C60.8991 180.637 60.8302 177.708 61.6611 174.973C63.1061 170.724 64.0598 163.777 62.1697 163.002C60.2796 162.228 61.7015 171.672 60.0138 174.869C59.2018 172.6 58.6889 170.235 58.4879 167.834C58.2971 164.401 58.719 158.927 57.2394 157.5C55.7597 156.072 54.7829 157.026 56.1643 164.621C56.9983 169.157 57.4335 173.759 57.4648 178.371C57.4648 178.371 54.332 168.389 52.1414 168.066C49.9508 167.742 49.9219 170.956 51.7599 173.782C53.598 176.608 57.1469 181.649 57.7075 184.232C57.7075 184.232 54.2395 176.718 50.9796 178.943C47.7197 181.169 53.6962 185.793 56.3608 187.463C59.0254 189.134 60.7594 199.41 60.7594 199.41L62.1466 199.017Z" fill="#E53888"/>
<path d="M49.8176 194.717H71.903L70.1169 210.52H51.6036L49.8176 194.717Z" fill="#263238"/>
<path d="M155.778 85.6025L150.825 82.9899L153.773 79.0653C153.773 79.0653 157.507 80.4063 157.593 83.6893L155.778 85.6025Z" fill="#E4897B"/>
<path d="M148.565 79.6838L151.467 77.2909L153.761 79.0654L150.813 82.99L148.565 79.6838Z" fill="#E4897B"/>
<path d="M177.812 78.0539C176.865 78.2562 175.958 78.6157 175.13 79.1175C174.388 79.57 173.701 80.1073 173.084 80.7185C172.102 81.6959 171.182 82.7325 170.327 83.8224C168.726 85.8165 167.229 87.7875 165.703 89.7642C165.437 89.6024 165.165 89.4174 164.888 89.2267C164.414 88.903 163.94 88.5446 163.46 88.1747C161.559 86.695 159.628 85.0477 157.709 83.4525L155.351 85.4928C156.782 87.7035 158.393 89.7932 160.166 91.741C161.119 92.8068 162.176 93.7749 163.321 94.631C163.687 94.8973 164.073 95.1332 164.477 95.3361C164.757 95.4762 165.049 95.5885 165.35 95.6714C165.833 95.8074 166.337 95.8524 166.836 95.8043C167.015 95.7853 167.193 95.7525 167.367 95.7061C167.567 95.6572 167.761 95.5874 167.945 95.498C168.343 95.3159 168.703 95.0588 169.003 94.7408L169.425 94.2726L170.072 93.5675C171.806 91.6774 173.465 89.7238 175.095 87.851C175.904 86.9205 176.725 86.0014 177.442 85.3021C177.725 85.014 178.039 84.7581 178.378 84.5391C178.638 84.3827 178.918 84.2639 179.211 84.1865L177.812 78.0539Z" fill="#E53888"/>
<path d="M179.239 84.1804C178.946 84.2596 178.666 84.3803 178.407 84.5387C178.064 84.7529 177.75 85.0093 177.471 85.3017C177.17 85.5965 176.846 85.9317 176.517 86.2901C176.06 86.7756 175.586 87.3131 175.124 87.8507C174.101 89.0067 173.055 90.232 171.991 91.4401C171.373 92.151 170.737 92.8619 170.101 93.5613L169.454 94.2723L169.032 94.7347C168.732 95.055 168.373 95.3141 167.974 95.4976C167.788 95.5846 167.595 95.6542 167.396 95.7057C167.222 95.7521 167.044 95.785 166.864 95.804C166.365 95.8495 165.862 95.8044 165.379 95.671C165.078 95.5857 164.786 95.4735 164.506 95.3358C164.102 95.1302 163.716 94.8924 163.35 94.6248C162.205 93.7689 161.147 92.8008 160.194 91.7348C158.421 89.787 156.811 87.6973 155.379 85.4867L157.738 83.4405C159.651 85.0416 161.587 86.6889 163.489 88.1686C163.963 88.5385 164.442 88.8911 164.916 89.2148C165.188 89.4113 165.494 89.5962 165.731 89.7581C167.246 87.7755 168.743 85.8103 170.355 83.8162C171.21 82.7244 172.131 81.6859 173.112 80.7066C173.729 80.097 174.414 79.5599 175.153 79.1055C175.983 78.6093 176.889 78.252 177.835 78.0478L179.239 84.1804Z" fill="white"/>
<path d="M176.517 86.2901C176.06 86.7756 175.586 87.3131 175.124 87.8507C174.101 89.0067 173.055 90.232 171.991 91.4401C172.099 90.0995 172.505 88.7998 173.18 87.6367C173.855 86.4735 174.782 85.4762 175.893 84.7178C176.212 85.1906 176.425 85.727 176.517 86.2901Z" fill="black"/>
<path d="M200.793 79.3772C199.571 83.1053 198.728 86.9473 198.279 90.8447C197.874 94.0295 197.637 97.2027 197.51 100.122C197.383 103.041 197.36 105.774 197.377 107.855C197.406 110.566 197.498 112.26 197.498 112.26H174.193C170.893 88.6483 177.552 77.99 177.552 77.99C179.303 77.6608 181.073 77.4389 182.852 77.3253C183.222 77.3253 183.603 77.2906 184.008 77.279C187.162 77.3106 190.311 77.5248 193.441 77.9206C194.019 77.9842 194.631 78.0709 195.221 78.1692C198.169 78.6605 200.793 79.3772 200.793 79.3772Z" fill="#E53888"/>
<path d="M200.793 79.3714C200.242 80.9579 199.785 82.5752 199.423 84.215C199.03 85.949 198.712 87.764 198.446 89.5847C198.388 90.0066 198.331 90.4228 198.279 90.8447C198.019 92.9024 197.828 94.9601 197.7 96.9368C197.625 98.0235 197.562 99.087 197.515 100.116C197.44 101.954 197.4 103.682 197.388 105.22C197.388 106.173 197.388 107.058 197.388 107.849C197.388 110.566 197.504 112.26 197.504 112.26H174.211C170.91 88.6425 177.569 77.99 177.569 77.99C179.318 77.6577 181.086 77.4357 182.863 77.3253C183.239 77.3253 183.62 77.2848 184.019 77.279C187.173 77.3106 190.323 77.5248 193.452 77.9206C194.03 77.9842 194.643 78.0709 195.227 78.1634C198.169 78.6605 200.793 79.3714 200.793 79.3714Z" fill="white"/>
<path d="M156.819 208.768C156.819 208.768 164.576 206.456 165.142 203.428C165.151 203.356 165.174 203.287 165.211 203.225C165.248 203.163 165.298 203.11 165.356 203.068C165.415 203.026 165.482 202.997 165.552 202.982C165.623 202.967 165.696 202.968 165.766 202.982L171.402 203.925C171.535 203.947 171.66 204.006 171.762 204.095C171.864 204.183 171.939 204.299 171.98 204.428L173.714 209.907L172.124 209.953L171.546 209.167L170.876 209.994C162.206 210.265 158.489 210.288 156.761 209.803C156.455 209.046 156.819 208.768 156.819 208.768Z" fill="black"/>
<path d="M188.048 208.768C188.048 208.768 195.805 206.456 196.371 203.428C196.381 203.356 196.405 203.287 196.443 203.225C196.48 203.163 196.53 203.109 196.589 203.068C196.648 203.026 196.715 202.997 196.786 202.982C196.857 202.967 196.93 202.968 197.001 202.983L202.631 203.925C202.765 203.945 202.891 204.003 202.993 204.092C203.095 204.181 203.17 204.298 203.209 204.428L204.943 209.907L203.348 209.953L202.77 209.167L202.105 209.994C193.435 210.265 189.718 210.288 187.984 209.803C187.684 209.046 188.048 208.768 188.048 208.768Z" fill="black"/>
<path d="M190.048 113.26C190.002 113.399 188.609 117.768 186.73 124.034L186.406 125.132C185.522 128.114 184.545 131.49 183.563 134.958C182.36 139.218 181.152 143.697 180.095 147.986C178.551 154.188 177.303 159.991 176.806 164.17C175.182 177.909 172.02 205.035 172.02 205.035L164.697 203.185C164.697 203.185 163.362 173.811 164.749 159.777C165.633 150.859 169.598 132.704 172.193 121.421C173.517 115.641 174.505 111.647 174.505 111.647L190.048 113.26Z" fill="#263238"/>
<path d="M180.083 148.003C182.025 140.189 184.436 131.75 186.401 125.143L184.869 121.623C180.881 126.068 179.517 140.252 180.083 148.003Z" fill="black"/>
<path d="M203.596 204.63L195.504 205.416C195.504 205.416 186.146 178.215 184.927 163.985C184.407 157.795 183.91 145.818 183.54 134.975C183.262 127.033 183.054 119.704 182.962 115.699C182.91 113.693 182.881 112.52 182.881 112.52L190.048 113.265L197.718 113.502C197.718 113.502 198.076 115.265 197.972 122.722C197.805 134.282 197.394 154.679 197.637 165.632C197.926 179.822 203.596 204.63 203.596 204.63Z" fill="#263238"/>
<path d="M191.424 68.0487L185.713 73.0715C186.343 75.4239 185.413 77.6319 184.274 78.0712L185.124 80.4236L192.181 77.707C190.372 75.8343 190.886 71.0889 191.424 68.0487Z" fill="#E4897B"/>
<path d="M189.094 70.0886L185.713 73.0364C185.873 73.5839 185.981 74.145 186.037 74.7126C187.332 74.5161 189.083 73.0826 189.199 71.7243C189.262 71.1772 189.226 70.6233 189.094 70.0886Z" fill="black"/>
<path d="M191.603 76.2677C191.603 76.2677 187.227 77.6433 186.609 78.0017C185.99 78.36 185.274 80.1056 185.274 80.1056C185.274 80.1056 185.753 78.3138 185.511 77.2907C185.268 76.2677 184.834 76.2677 184.834 76.2677L183.713 78.5797C183.713 78.5797 183.476 80.5622 185.274 80.8512C187.071 81.1402 192.551 77.863 192.551 77.863L191.603 76.2677Z" fill="#E53888"/>
<path d="M191.603 76.2677C191.603 76.2677 187.227 77.6433 186.609 78.0017C185.99 78.36 185.274 80.1056 185.274 80.1056C185.274 80.1056 185.753 78.3138 185.511 77.2907C185.268 76.2677 184.834 76.2677 184.834 76.2677L183.713 78.5797C183.713 78.5797 183.476 80.5622 185.274 80.8512C187.071 81.1402 192.551 77.863 192.551 77.863L191.603 76.2677Z" fill="white"/>
<path d="M181.159 59.65C180.13 60.8696 181.32 62.4244 181.274 63.6151C181.228 64.8057 181.02 66.3606 182.552 64.719C184.083 63.0775 182.765 57.9622 181.159 59.65Z" fill="#263238"/>
<path d="M191.822 64.8581C191.308 68.8347 191.822 69.511 189.678 71.4068C186.43 74.2622 181.424 74.5338 180.973 70.4416C180.569 66.7539 180.632 60.1301 184.655 58.8353C185.546 58.5484 186.495 58.4923 187.413 58.6723C188.331 58.8523 189.188 59.2625 189.905 59.8644C190.621 60.4664 191.173 61.2403 191.508 62.1137C191.844 62.9871 191.952 63.9314 191.822 64.8581Z" fill="#FF8B7B"/>
<path d="M191.233 67.5341C189.441 68.6208 188.857 66.0949 188.979 65.8984C189.522 65.0429 189.493 64.3147 188.846 62.6789C188.198 61.0432 191.476 59.1531 193.863 59.8583C196.054 60.5114 193.863 62.2223 194.117 63.65C194.626 66.1932 192.684 66.6613 191.233 67.5341Z" fill="#263238"/>
<path d="M182.263 69.1464C183.687 68.8655 185.134 68.7108 186.586 68.684C186.233 69.5799 185.557 70.3313 183.921 70.418C182.286 70.5047 182.263 69.1464 182.263 69.1464Z" fill="white"/>
<path d="M193.47 67.6496C193.069 68.4871 192.364 69.1403 191.499 69.4761C190.4 69.8691 189.88 68.7825 190.21 67.6034C190.504 66.5399 191.429 65.0544 192.522 65.1758C193.614 65.2972 193.99 66.5803 193.47 67.6496Z" fill="#FF8B7B"/>
<path d="M186.962 64.9449C186.927 65.2802 186.771 65.3033 186.545 65.2744C186.32 65.2455 186.124 65.1877 186.158 64.8524C186.193 64.5172 186.401 64.2744 186.626 64.2744C186.852 64.2744 186.996 64.6039 186.962 64.9449Z" fill="#263238"/>
<path d="M182.777 64.9273C182.742 65.2683 182.586 65.2857 182.36 65.2626C182.135 65.2394 181.939 65.1759 181.973 64.8348C182.008 64.4938 182.222 64.2568 182.441 64.2568C182.661 64.2568 182.817 64.5863 182.777 64.9273Z" fill="#263238"/>
<path d="M183.436 64.8174C183.087 65.6006 182.632 66.332 182.083 66.9906C182.256 67.128 182.457 67.226 182.672 67.2779C182.886 67.3298 183.11 67.3343 183.326 67.2912L183.436 64.8174Z" fill="#FF5652"/>
<path d="M187.696 63.4532C187.73 63.4482 187.762 63.4342 187.788 63.4127C187.829 63.3798 187.855 63.3326 187.861 63.2809C187.868 63.2293 187.854 63.1771 187.823 63.1353C187.631 62.8781 187.38 62.6709 187.092 62.5311C186.803 62.3912 186.485 62.3229 186.164 62.3318C186.111 62.3377 186.062 62.3638 186.028 62.4046C185.993 62.4455 185.976 62.4981 185.979 62.5515C185.985 62.6042 186.011 62.6525 186.052 62.686C186.093 62.7195 186.146 62.7355 186.199 62.7307C186.452 62.7293 186.702 62.7871 186.929 62.8995C187.155 63.0119 187.353 63.1758 187.505 63.378C187.526 63.4074 187.556 63.4301 187.589 63.4434C187.623 63.4567 187.66 63.4601 187.696 63.4532Z" fill="#263238"/>
<path d="M180.789 64.1355C180.821 64.1435 180.855 64.1436 180.887 64.1355C180.919 64.1274 180.949 64.1115 180.973 64.0892C181.149 63.9083 181.366 63.7732 181.606 63.6956C181.846 63.618 182.101 63.6004 182.349 63.6442C182.375 63.6501 182.401 63.6509 182.427 63.6466C182.452 63.6422 182.477 63.6328 182.499 63.6188C182.521 63.6048 182.54 63.5865 182.555 63.5651C182.57 63.5436 182.581 63.5194 182.586 63.4939C182.598 63.4426 182.59 63.3885 182.563 63.3431C182.536 63.2977 182.493 63.2647 182.442 63.2511C182.13 63.1974 181.81 63.2186 181.509 63.3131C181.207 63.4076 180.933 63.5726 180.708 63.7944C180.689 63.8128 180.673 63.8348 180.663 63.8591C180.653 63.8834 180.647 63.9096 180.647 63.9361C180.647 63.9625 180.653 63.9887 180.663 64.013C180.673 64.0373 180.689 64.0593 180.708 64.0777C180.729 64.1037 180.757 64.1237 180.789 64.1355Z" fill="#263238"/>
<path d="M185.539 60.3554C185.539 60.3554 182.528 61.6906 181.193 59.0607C179.858 56.4308 183.436 54.8644 183.436 54.8644C183.302 55.1514 183.233 55.4641 183.233 55.7806C183.233 56.0971 183.302 56.4097 183.436 56.6967C183.436 56.6967 184.042 54.7893 186.562 55.402C189.083 56.0147 193.094 56.8007 193.92 58.1417C194.132 58.4588 194.26 58.8241 194.294 59.2039C194.327 59.5838 194.264 59.9658 194.111 60.315L189.996 61.3091C189.766 60.9536 189.469 60.6468 189.12 60.4064C188.772 60.166 188.379 59.9967 187.965 59.9081C187.551 59.8195 187.124 59.8135 186.708 59.8902C186.292 59.967 185.895 60.1251 185.539 60.3554Z" fill="#263238"/>
<path d="M173.945 110.289L173.766 114.71L197.996 118.618C197.996 114.791 197.418 109.815 197.418 109.815L173.945 110.289Z" fill="#263238"/>
<path d="M197.256 112.115L197.753 112.104L197.579 110.503L197.14 110.509L197.256 112.115Z" fill="#263238"/>
<path d="M178.823 112.433L188.828 112.26L188.719 110.659L178.754 110.832L178.823 112.433Z" fill="#263238"/>
<path d="M177.985 110.843L173.754 110.918V112.519L178.037 112.444L177.985 110.843Z" fill="#263238"/>
<path d="M196.366 110.52L189.487 110.641L189.615 112.248L196.47 112.127L196.366 110.52Z" fill="#263238"/>
<path d="M197.256 112.115L197.753 112.104L197.579 110.503L197.14 110.509L197.256 112.115Z" fill="white"/>
<path d="M178.823 112.433L188.828 112.26L188.719 110.659L178.754 110.832L178.823 112.433Z" fill="white"/>
<path d="M177.985 110.843L173.754 110.918V112.519L178.037 112.444L177.985 110.843Z" fill="white"/>
<path d="M196.366 110.52L189.487 110.641L189.615 112.248L196.47 112.127L196.366 110.52Z" fill="white"/>
<path d="M182.175 112.549C182.046 112.548 181.921 112.498 181.827 112.409C181.733 112.32 181.676 112.198 181.667 112.069L181.615 111.092C181.61 111.024 181.62 110.955 181.643 110.891C181.665 110.826 181.701 110.767 181.748 110.717C181.844 110.618 181.974 110.559 182.112 110.555L184.592 110.514C184.72 110.514 184.845 110.562 184.94 110.648C185.035 110.735 185.094 110.854 185.106 110.982L185.181 112C185.185 112.069 185.174 112.139 185.15 112.205C185.127 112.27 185.09 112.33 185.042 112.381C184.995 112.433 184.938 112.474 184.875 112.501C184.811 112.529 184.742 112.544 184.672 112.543L182.175 112.549ZM184.597 110.948L182.118 110.988C182.101 110.982 182.082 110.982 182.066 110.988C182.062 110.997 182.06 111.007 182.06 111.017C182.06 111.027 182.062 111.037 182.066 111.046L182.118 112.017C182.118 112.037 182.126 112.056 182.14 112.07C182.154 112.084 182.173 112.092 182.193 112.092H184.69C184.706 112.099 184.725 112.099 184.742 112.092C184.746 112.083 184.748 112.073 184.748 112.063C184.748 112.053 184.746 112.044 184.742 112.034L184.667 111.023C184.667 111.013 184.666 111.004 184.663 110.995C184.66 110.986 184.655 110.977 184.649 110.97C184.642 110.963 184.634 110.957 184.625 110.954C184.616 110.95 184.607 110.948 184.597 110.948Z" fill="white"/>
<path d="M184.586 111.728H183.823C183.791 111.733 183.759 111.731 183.729 111.723C183.698 111.714 183.669 111.699 183.645 111.678C183.621 111.658 183.601 111.632 183.588 111.603C183.575 111.574 183.568 111.543 183.568 111.511C183.568 111.479 183.575 111.448 183.588 111.419C183.601 111.39 183.621 111.364 183.645 111.344C183.669 111.323 183.698 111.308 183.729 111.299C183.759 111.291 183.791 111.289 183.823 111.294H184.586C184.637 111.303 184.684 111.329 184.718 111.369C184.751 111.408 184.77 111.459 184.77 111.511C184.77 111.563 184.751 111.613 184.718 111.653C184.684 111.693 184.637 111.719 184.586 111.728Z" fill="white"/>
<path d="M199.417 84.2326C199.024 85.9666 198.706 87.7815 198.441 89.6022C197.948 88.0241 197.792 86.3602 197.984 84.7181C198.391 84.3946 198.898 84.223 199.417 84.2326Z" fill="black"/>
<path d="M197.683 96.9541C197.608 98.0407 197.545 99.1043 197.498 100.133C197.423 101.971 197.383 103.699 197.371 105.237C194.932 104.225 190.516 102.225 189.996 100.665C189.273 98.4974 190.47 97.5032 190.47 97.5032C192.883 97.471 195.293 97.2876 197.683 96.9541Z" fill="black"/>
<path d="M187.013 96.5322L185.782 96.9021C185.478 96.9947 185.215 97.1913 185.041 97.4575C184.867 97.7237 184.792 98.0426 184.828 98.3587L185.013 99.9655C185.053 100.251 185.182 100.517 185.383 100.725C185.583 100.933 185.845 101.072 186.129 101.122L186.869 101.254C187.625 101.705 188.513 101.883 189.385 101.756C190.256 101.63 191.057 101.208 191.655 100.561L191.689 97.9252L187.874 96.5322C187.595 96.4396 187.293 96.4396 187.013 96.5322Z" fill="#E4897B"/>
<path d="M190.476 97.8677C190.476 97.8677 189.32 95.7522 189.285 94.4749C189.25 93.1975 188.129 94.6887 188.678 95.6309C188.822 95.8972 188.858 96.2085 188.78 96.5009C188.702 96.7932 188.514 97.0444 188.256 97.203L190.476 97.8677Z" fill="#E4897B"/>
<path d="M207.666 97.2838L207.625 96.9833L207.585 96.7694L207.538 96.5267L207.452 96.0411C206.983 93.4401 206.457 90.8391 205.787 88.2324C205.445 86.8625 205.03 85.5119 204.544 84.1864C204.254 83.4149 203.904 82.667 203.498 81.9495C203.213 81.4487 202.867 80.9848 202.469 80.5681C202.177 80.267 201.849 80.003 201.492 79.782C201.047 79.5091 200.558 79.3136 200.047 79.204C199.557 79.4946 199.139 79.8917 198.822 80.366C198.506 80.8402 198.301 81.3794 198.221 81.9437C197.944 82.9955 197.879 84.0919 198.03 85.169C198.253 85.5902 198.447 86.0268 198.608 86.4752C199.013 87.5272 199.389 88.7121 199.764 89.9086C200.481 92.2726 201.134 94.7233 201.81 97.174C201.521 97.2607 201.192 97.3359 200.845 97.4052C200.272 97.5164 199.693 97.5974 199.111 97.648C196.718 97.8907 194.117 97.9254 191.597 97.937L191.117 101.018C193.756 101.783 196.469 102.264 199.209 102.451C199.915 102.486 200.637 102.503 201.394 102.451C202.215 102.427 203.031 102.315 203.828 102.116C204.337 101.98 204.83 101.786 205.296 101.538C205.995 101.181 206.592 100.652 207.03 100C207.304 99.5806 207.5 99.1145 207.608 98.6248C207.695 98.1833 207.715 97.7312 207.666 97.2838Z" fill="#E53888"/>
<path d="M207.666 97.2838L207.625 96.9833L207.585 96.7694L207.538 96.5267L207.452 96.0411C206.983 93.4401 206.457 90.8391 205.787 88.2324C205.445 86.8625 205.03 85.5119 204.544 84.1864C204.254 83.4149 203.904 82.667 203.498 81.9495C203.213 81.4487 202.867 80.9848 202.469 80.5681C202.177 80.267 201.849 80.003 201.492 79.782C201.047 79.5091 200.558 79.3136 200.047 79.204C199.557 79.4946 199.139 79.8917 198.822 80.366C198.506 80.8402 198.301 81.3794 198.221 81.9437C197.944 82.9955 197.879 84.0919 198.03 85.169C198.253 85.5902 198.447 86.0268 198.608 86.4752C199.013 87.5272 199.389 88.7121 199.764 89.9086C200.481 92.2726 201.134 94.7233 201.81 97.174C201.521 97.2607 201.192 97.3359 200.845 97.4052C200.272 97.5164 199.693 97.5974 199.111 97.648C196.718 97.8907 194.117 97.9254 191.597 97.937L191.117 101.018C193.756 101.783 196.469 102.264 199.209 102.451C199.915 102.486 200.637 102.503 201.394 102.451C202.215 102.427 203.031 102.315 203.828 102.116C204.337 101.98 204.83 101.786 205.296 101.538C205.995 101.181 206.592 100.652 207.03 100C207.304 99.5806 207.5 99.1145 207.608 98.6248C207.695 98.1833 207.715 97.7312 207.666 97.2838Z" fill="white"/>
</g>
</svg>
