<svg width="80" height="55" viewBox="0 0 80 55" fill="none" xmlns="http://www.w3.org/2000/svg">
<path d="M39.875 16.3125C36.9908 16.3125 34.2247 17.4583 32.1852 19.4977C30.1458 21.5372 29 24.3033 29 27.1875C29 30.0717 30.1458 32.8378 32.1852 34.8773C34.2247 36.9167 36.9908 38.0625 39.875 38.0625C42.7592 38.0625 45.5253 36.9167 47.5648 34.8773C49.6042 32.8378 50.75 30.0717 50.75 27.1875C50.75 24.3033 49.6042 21.5372 47.5648 19.4977C45.5253 17.4583 42.7592 16.3125 39.875 16.3125ZM39.875 45.3125C35.068 45.3125 30.4578 43.4029 27.0587 40.0038C23.6596 36.6047 21.75 31.9945 21.75 27.1875C21.75 22.3805 23.6596 17.7703 27.0587 14.3712C30.4578 10.9721 35.068 9.0625 39.875 9.0625C44.682 9.0625 49.2922 10.9721 52.6913 14.3712C56.0904 17.7703 58 22.3805 58 27.1875C58 31.9945 56.0904 36.6047 52.6913 40.0038C49.2922 43.4029 44.682 45.3125 39.875 45.3125ZM39.875 0C21.75 0 6.27125 11.2738 0 27.1875C6.27125 43.1012 21.75 54.375 39.875 54.375C58 54.375 73.4787 43.1012 79.75 27.1875C73.4787 11.2738 58 0 39.875 0Z" fill="#E53888"/>
</svg>
