<svg width="30" height="30" viewBox="0 0 30 30" fill="none" xmlns="http://www.w3.org/2000/svg">
<g clip-path="url(#clip0_1273_187)">
<path d="M10.4508 0.986669C7.45329 2.02652 4.86828 4.00018 3.07542 6.61777C1.28256 9.23535 0.376358 12.3589 0.489915 15.5296C0.603472 18.7002 1.7308 21.7509 3.70632 24.2335C5.68184 26.7162 8.40142 28.4999 11.4656 29.3226C13.9498 29.9636 16.5525 29.9918 19.05 29.4046C21.3124 28.8964 23.4041 27.8094 25.1203 26.25C26.9064 24.5773 28.2029 22.4495 28.8703 20.0953C29.5957 17.5351 29.7248 14.8428 29.2476 12.2249H15.2976V18.0117H23.3765C23.2151 18.9346 22.8691 19.8155 22.3592 20.6016C21.8494 21.3877 21.1862 22.0629 20.4093 22.5867C19.4228 23.2392 18.3107 23.6783 17.1445 23.8757C15.9748 24.0932 14.7751 24.0932 13.6054 23.8757C12.4199 23.6306 11.2985 23.1413 10.3125 22.439C8.72845 21.3177 7.53906 19.7248 6.91403 17.8875C6.27844 16.0157 6.27844 13.9865 6.91403 12.1148C7.35894 10.8028 8.09443 9.60824 9.0656 8.62026C10.177 7.46889 11.584 6.64588 13.1324 6.24153C14.6807 5.83719 16.3105 5.86713 17.8429 6.32807C19.0401 6.69555 20.1348 7.33762 21.0398 8.20307C21.9508 7.29682 22.8601 6.38823 23.7679 5.47729C24.2367 4.98745 24.7476 4.52104 25.2093 4.01948C23.8279 2.73388 22.2063 1.73352 20.4375 1.07573C17.2165 -0.093824 13.6921 -0.125255 10.4508 0.986669Z" fill="white"/>
<path d="M10.4508 0.986709C13.6918 -0.12597 17.2162 -0.0953667 20.4375 1.07343C22.2066 1.73569 23.8274 2.74086 25.207 4.03124C24.7383 4.5328 24.2437 5.00155 23.7656 5.48905C22.8562 6.39687 21.9476 7.30155 21.0398 8.20312C20.1348 7.33766 19.0401 6.6956 17.8429 6.32811C16.311 5.86555 14.6813 5.83388 13.1325 6.23657C11.5838 6.63927 10.1759 7.46076 9.06326 8.61093C8.09209 9.5989 7.3566 10.7935 6.91169 12.1055L2.0531 8.34374C3.79218 4.89506 6.80329 2.25708 10.4508 0.986709Z" fill="#E33629"/>
<path d="M0.764068 12.0703C1.02521 10.7761 1.45876 9.52272 2.05313 8.34375L6.91172 12.1148C6.27613 13.9866 6.27613 16.0158 6.91172 17.8875C5.29297 19.1375 3.67344 20.3938 2.05313 21.6562C0.565202 18.6945 0.11141 15.3199 0.764068 12.0703Z" fill="#F8BD00"/>
<path d="M15.2977 12.2227H29.2477C29.7249 14.8405 29.5958 17.5328 28.8703 20.093C28.2029 22.4472 26.9065 24.575 25.1203 26.2477C23.5524 25.0242 21.9774 23.8102 20.4094 22.5867C21.1868 22.0624 21.8503 21.3865 22.3601 20.5995C22.87 19.8126 23.2157 18.9308 23.3766 18.007H15.2977C15.2953 16.0805 15.2977 14.1516 15.2977 12.2227Z" fill="#587DBD"/>
<path d="M2.05078 21.6562C3.67109 20.4062 5.29062 19.15 6.90937 17.8875C7.53564 19.7254 8.72673 21.3185 10.3125 22.439C11.3016 23.1381 12.4255 23.6234 13.6125 23.864C14.7822 24.0815 15.9819 24.0815 17.1516 23.864C18.3178 23.6666 19.4299 23.2275 20.4164 22.575C21.9844 23.7984 23.5594 25.0125 25.1273 26.2359C23.4115 27.7962 21.3197 28.884 19.057 29.3929C16.5596 29.98 13.9569 29.9519 11.4727 29.3109C9.50789 28.7863 7.67268 27.8615 6.08203 26.5945C4.39842 25.2578 3.02333 23.5733 2.05078 21.6562Z" fill="#319F43"/>
</g>
<defs>
<clipPath id="clip0_1273_187">
<rect width="30" height="30" fill="white"/>
</clipPath>
</defs>
</svg>
