<svg width="62" height="62" viewBox="0 0 62 62" fill="none" xmlns="http://www.w3.org/2000/svg">
<path d="M17.05 43.4C18.2833 43.4 19.466 42.9101 20.338 42.038C21.2101 41.166 21.7 39.9833 21.7 38.75C21.7116 38.5952 21.7116 38.4398 21.7 38.285L30.349 29.636H31.775L36.766 34.627V34.875C36.766 36.1083 37.2559 37.291 38.128 38.163C39 39.0351 40.1827 39.525 41.416 39.525C42.6493 39.525 43.832 39.0351 44.704 38.163C45.5761 37.291 46.066 36.1083 46.066 34.875V34.627L57.35 23.25C58.2697 23.25 59.1687 22.9773 59.9334 22.4663C60.6981 21.9554 61.2941 21.2292 61.646 20.3795C61.998 19.5298 62.0901 18.5948 61.9106 17.6928C61.7312 16.7908 61.2884 15.9623 60.638 15.312C59.9877 14.6616 59.1592 14.2188 58.2572 14.0393C57.3552 13.8599 56.4202 13.952 55.5705 14.304C54.7208 14.6559 53.9946 15.2519 53.4837 16.0166C52.9727 16.7813 52.7 17.6803 52.7 18.6C52.6884 18.7548 52.6884 18.9102 52.7 19.065L41.509 30.256H41.013L35.65 24.8C35.65 23.5667 35.1601 22.384 34.288 21.512C33.416 20.6399 32.2333 20.15 31 20.15C29.7667 20.15 28.584 20.6399 27.712 21.512C26.8399 22.384 26.35 23.5667 26.35 24.8L17.05 34.1C15.8167 34.1 14.634 34.5899 13.762 35.462C12.8899 36.334 12.4 37.5167 12.4 38.75C12.4 39.9833 12.8899 41.166 13.762 42.038C14.634 42.9101 15.8167 43.4 17.05 43.4ZM58.9 55.8H6.2V3.1C6.2 2.27783 5.87339 1.48933 5.29203 0.907969C4.71067 0.326606 3.92217 0 3.1 0C2.27783 0 1.48933 0.326606 0.907969 0.907969C0.326606 1.48933 0 2.27783 0 3.1V58.9C0 59.7222 0.326606 60.5107 0.907969 61.092C1.48933 61.6734 2.27783 62 3.1 62H58.9C59.7222 62 60.5107 61.6734 61.092 61.092C61.6734 60.5107 62 59.7222 62 58.9C62 58.0778 61.6734 57.2893 61.092 56.708C60.5107 56.1266 59.7222 55.8 58.9 55.8Z" fill="#FAFAFA"/>
</svg>
