<svg width="53" height="48" viewBox="0 0 53 48" fill="none" xmlns="http://www.w3.org/2000/svg">
<path d="M12.4853 10.7485V36.0845H42.1338C42.5627 36.0845 42.974 36.2549 43.2773 36.5581C43.5806 36.8614 43.751 37.2728 43.751 37.7017C43.751 38.1306 43.5806 38.5419 43.2773 38.8452C42.974 39.1485 42.5627 39.3188 42.1338 39.3188H10.8681C10.4392 39.3188 10.0279 39.1485 9.72462 38.8452C9.42134 38.5419 9.25096 38.1306 9.25096 37.7017V10.7485C9.25096 10.3196 9.42134 9.90829 9.72462 9.60501C10.0279 9.30173 10.4392 9.13135 10.8681 9.13135C11.2971 9.13135 11.7084 9.30173 12.0117 9.60501C12.315 9.90829 12.4853 10.3196 12.4853 10.7485ZM43.2766 16.2038L31.9563 27.5242C31.653 27.827 31.242 27.9971 30.8135 27.9971C30.3849 27.9971 29.9739 27.827 29.6706 27.5242L24.3447 22.1982L18.4797 28.0632C18.1732 28.3492 17.7676 28.505 17.3485 28.4978C16.9293 28.4906 16.5293 28.3208 16.2329 28.0244C15.9365 27.728 15.7667 27.328 15.7595 26.9088C15.7523 26.4897 15.9081 26.0841 16.1941 25.7776L23.2019 18.7698C23.5051 18.4669 23.9162 18.2968 24.3447 18.2968C24.7733 18.2968 25.1843 18.4669 25.4875 18.7698L30.8135 24.0957L40.991 13.9182C41.2975 13.6322 41.7031 13.4764 42.1222 13.4836C42.5414 13.4909 42.9413 13.6606 43.2378 13.957C43.5342 14.2535 43.7039 14.6534 43.7112 15.0726C43.7184 15.4918 43.5626 15.8973 43.2766 16.2038Z" fill="#E53888"/>
</svg>
