<svg width="199" height="39" viewBox="0 0 199 39" fill="none" xmlns="http://www.w3.org/2000/svg">
<rect x="0.5" y="0.5" width="198" height="38" rx="19" fill="#FAFAFA" stroke="#E53888"/>
<path d="M51.098 17.216C51.098 17.852 50.948 18.452 50.648 19.016C50.348 19.58 49.868 20.042 49.208 20.402C48.548 20.75 47.702 20.924 46.67 20.924H44.402V26H42.35V13.49H46.67C47.63 13.49 48.44 13.658 49.1 13.994C49.772 14.318 50.27 14.762 50.594 15.326C50.93 15.89 51.098 16.52 51.098 17.216ZM46.67 19.25C47.45 19.25 48.032 19.076 48.416 18.728C48.8 18.368 48.992 17.864 48.992 17.216C48.992 15.848 48.218 15.164 46.67 15.164H44.402V19.25H46.67ZM62.1451 20.798C62.1451 21.17 62.1211 21.506 62.0731 21.806H54.4951C54.5551 22.598 54.8491 23.234 55.3771 23.714C55.9051 24.194 56.5531 24.434 57.3211 24.434C58.4251 24.434 59.2051 23.972 59.6611 23.048H61.8751C61.5751 23.96 61.0291 24.71 60.2371 25.298C59.4571 25.874 58.4851 26.162 57.3211 26.162C56.3731 26.162 55.5211 25.952 54.7651 25.532C54.0211 25.1 53.4331 24.5 53.0011 23.732C52.5811 22.952 52.3711 22.052 52.3711 21.032C52.3711 20.012 52.5751 19.118 52.9831 18.35C53.4031 17.57 53.9851 16.97 54.7291 16.55C55.4851 16.13 56.3491 15.92 57.3211 15.92C58.2571 15.92 59.0911 16.124 59.8231 16.532C60.5551 16.94 61.1251 17.516 61.5331 18.26C61.9411 18.992 62.1451 19.838 62.1451 20.798ZM60.0031 20.15C59.9911 19.394 59.7211 18.788 59.1931 18.332C58.6651 17.876 58.0111 17.648 57.2311 17.648C56.5231 17.648 55.9171 17.876 55.4131 18.332C54.9091 18.776 54.6091 19.382 54.5131 20.15H60.0031ZM66.2165 17.522C66.5165 17.018 66.9125 16.628 67.4045 16.352C67.9085 16.064 68.5025 15.92 69.1865 15.92V18.044H68.6645C67.8605 18.044 67.2485 18.248 66.8285 18.656C66.4205 19.064 66.2165 19.772 66.2165 20.78V26H64.1645V16.082H66.2165V17.522ZM74.6727 26.162C73.8927 26.162 73.1907 26.024 72.5667 25.748C71.9547 25.46 71.4687 25.076 71.1087 24.596C70.7487 24.104 70.5567 23.558 70.5327 22.958H72.6567C72.6927 23.378 72.8907 23.732 73.2507 24.02C73.6227 24.296 74.0847 24.434 74.6367 24.434C75.2127 24.434 75.6567 24.326 75.9687 24.11C76.2927 23.882 76.4547 23.594 76.4547 23.246C76.4547 22.874 76.2747 22.598 75.9147 22.418C75.5667 22.238 75.0087 22.04 74.2407 21.824C73.4967 21.62 72.8907 21.422 72.4227 21.23C71.9547 21.038 71.5467 20.744 71.1987 20.348C70.8627 19.952 70.6947 19.43 70.6947 18.782C70.6947 18.254 70.8507 17.774 71.1627 17.342C71.4747 16.898 71.9187 16.55 72.4947 16.298C73.0827 16.046 73.7547 15.92 74.5107 15.92C75.6387 15.92 76.5447 16.208 77.2287 16.784C77.9247 17.348 78.2967 18.122 78.3447 19.106H76.2927C76.2567 18.662 76.0767 18.308 75.7527 18.044C75.4287 17.78 74.9907 17.648 74.4387 17.648C73.8987 17.648 73.4847 17.75 73.1967 17.954C72.9087 18.158 72.7647 18.428 72.7647 18.764C72.7647 19.028 72.8607 19.25 73.0527 19.43C73.2447 19.61 73.4787 19.754 73.7547 19.862C74.0307 19.958 74.4387 20.084 74.9787 20.24C75.6987 20.432 76.2867 20.63 76.7427 20.834C77.2107 21.026 77.6127 21.314 77.9487 21.698C78.2847 22.082 78.4587 22.592 78.4707 23.228C78.4707 23.792 78.3147 24.296 78.0027 24.74C77.6907 25.184 77.2467 25.532 76.6707 25.784C76.1067 26.036 75.4407 26.162 74.6727 26.162ZM84.9899 26.162C84.0539 26.162 83.2079 25.952 82.4519 25.532C81.6959 25.1 81.1019 24.5 80.6699 23.732C80.2379 22.952 80.0219 22.052 80.0219 21.032C80.0219 20.024 80.2439 19.13 80.6879 18.35C81.1319 17.57 81.7379 16.97 82.5059 16.55C83.2739 16.13 84.1319 15.92 85.0799 15.92C86.0279 15.92 86.8859 16.13 87.6539 16.55C88.4219 16.97 89.0279 17.57 89.4719 18.35C89.9159 19.13 90.1379 20.024 90.1379 21.032C90.1379 22.04 89.9099 22.934 89.4539 23.714C88.9979 24.494 88.3739 25.1 87.5819 25.532C86.8019 25.952 85.9379 26.162 84.9899 26.162ZM84.9899 24.38C85.5179 24.38 86.0099 24.254 86.4659 24.002C86.9339 23.75 87.3119 23.372 87.5999 22.868C87.8879 22.364 88.0319 21.752 88.0319 21.032C88.0319 20.312 87.8939 19.706 87.6179 19.214C87.3419 18.71 86.9759 18.332 86.5199 18.08C86.0639 17.828 85.5719 17.702 85.0439 17.702C84.5159 17.702 84.0239 17.828 83.5679 18.08C83.1239 18.332 82.7699 18.71 82.5059 19.214C82.2419 19.706 82.1099 20.312 82.1099 21.032C82.1099 22.1 82.3799 22.928 82.9199 23.516C83.4719 24.092 84.1619 24.38 84.9899 24.38ZM97.1704 15.92C97.9504 15.92 98.6464 16.082 99.2584 16.406C99.8824 16.73 100.368 17.21 100.716 17.846C101.064 18.482 101.238 19.25 101.238 20.15V26H99.2044V20.456C99.2044 19.568 98.9824 18.89 98.5384 18.422C98.0944 17.942 97.4884 17.702 96.7204 17.702C95.9524 17.702 95.3404 17.942 94.8844 18.422C94.4404 18.89 94.2184 19.568 94.2184 20.456V26H92.1664V16.082H94.2184V17.216C94.5544 16.808 94.9804 16.49 95.4964 16.262C96.0244 16.034 96.5824 15.92 97.1704 15.92ZM103.172 20.996C103.172 20 103.376 19.118 103.784 18.35C104.204 17.582 104.768 16.988 105.476 16.568C106.196 16.136 106.988 15.92 107.852 15.92C108.632 15.92 109.31 16.076 109.886 16.388C110.474 16.688 110.942 17.066 111.29 17.522V16.082H113.36V26H111.29V24.524C110.942 24.992 110.468 25.382 109.868 25.694C109.268 26.006 108.584 26.162 107.816 26.162C106.964 26.162 106.184 25.946 105.476 25.514C104.768 25.07 104.204 24.458 103.784 23.678C103.376 22.886 103.172 21.992 103.172 20.996ZM111.29 21.032C111.29 20.348 111.146 19.754 110.858 19.25C110.582 18.746 110.216 18.362 109.76 18.098C109.304 17.834 108.812 17.702 108.284 17.702C107.756 17.702 107.264 17.834 106.808 18.098C106.352 18.35 105.98 18.728 105.692 19.232C105.416 19.724 105.278 20.312 105.278 20.996C105.278 21.68 105.416 22.28 105.692 22.796C105.98 23.312 106.352 23.708 106.808 23.984C107.276 24.248 107.768 24.38 108.284 24.38C108.812 24.38 109.304 24.248 109.76 23.984C110.216 23.72 110.582 23.336 110.858 22.832C111.146 22.316 111.29 21.716 111.29 21.032ZM118.107 12.68V26H116.055V12.68H118.107ZM121.845 14.768C121.473 14.768 121.161 14.642 120.909 14.39C120.657 14.138 120.531 13.826 120.531 13.454C120.531 13.082 120.657 12.77 120.909 12.518C121.161 12.266 121.473 12.14 121.845 12.14C122.205 12.14 122.511 12.266 122.763 12.518C123.015 12.77 123.141 13.082 123.141 13.454C123.141 13.826 123.015 14.138 122.763 14.39C122.511 14.642 122.205 14.768 121.845 14.768ZM122.853 16.082V26H120.801V16.082H122.853ZM129.147 26.162C128.367 26.162 127.665 26.024 127.041 25.748C126.429 25.46 125.943 25.076 125.583 24.596C125.223 24.104 125.031 23.558 125.007 22.958H127.131C127.167 23.378 127.365 23.732 127.725 24.02C128.097 24.296 128.559 24.434 129.111 24.434C129.687 24.434 130.131 24.326 130.443 24.11C130.767 23.882 130.929 23.594 130.929 23.246C130.929 22.874 130.749 22.598 130.389 22.418C130.041 22.238 129.483 22.04 128.715 21.824C127.971 21.62 127.365 21.422 126.897 21.23C126.429 21.038 126.021 20.744 125.673 20.348C125.337 19.952 125.169 19.43 125.169 18.782C125.169 18.254 125.325 17.774 125.637 17.342C125.949 16.898 126.393 16.55 126.969 16.298C127.557 16.046 128.229 15.92 128.985 15.92C130.113 15.92 131.019 16.208 131.703 16.784C132.399 17.348 132.771 18.122 132.819 19.106H130.767C130.731 18.662 130.551 18.308 130.227 18.044C129.903 17.78 129.465 17.648 128.913 17.648C128.373 17.648 127.959 17.75 127.671 17.954C127.383 18.158 127.239 18.428 127.239 18.764C127.239 19.028 127.335 19.25 127.527 19.43C127.719 19.61 127.953 19.754 128.229 19.862C128.505 19.958 128.913 20.084 129.453 20.24C130.173 20.432 130.761 20.63 131.217 20.834C131.685 21.026 132.087 21.314 132.423 21.698C132.759 22.082 132.933 22.592 132.945 23.228C132.945 23.792 132.789 24.296 132.477 24.74C132.165 25.184 131.721 25.532 131.145 25.784C130.581 26.036 129.915 26.162 129.147 26.162ZM134.479 20.996C134.479 20 134.683 19.118 135.091 18.35C135.511 17.582 136.075 16.988 136.783 16.568C137.503 16.136 138.295 15.92 139.159 15.92C139.939 15.92 140.617 16.076 141.193 16.388C141.781 16.688 142.249 17.066 142.597 17.522V16.082H144.667V26H142.597V24.524C142.249 24.992 141.775 25.382 141.175 25.694C140.575 26.006 139.891 26.162 139.123 26.162C138.271 26.162 137.491 25.946 136.783 25.514C136.075 25.07 135.511 24.458 135.091 23.678C134.683 22.886 134.479 21.992 134.479 20.996ZM142.597 21.032C142.597 20.348 142.453 19.754 142.165 19.25C141.889 18.746 141.523 18.362 141.067 18.098C140.611 17.834 140.119 17.702 139.591 17.702C139.063 17.702 138.571 17.834 138.115 18.098C137.659 18.35 137.287 18.728 136.999 19.232C136.723 19.724 136.585 20.312 136.585 20.996C136.585 21.68 136.723 22.28 136.999 22.796C137.287 23.312 137.659 23.708 138.115 23.984C138.583 24.248 139.075 24.38 139.591 24.38C140.119 24.38 140.611 24.248 141.067 23.984C141.523 23.72 141.889 23.336 142.165 22.832C142.453 22.316 142.597 21.716 142.597 21.032ZM150.962 26.162C150.182 26.162 149.48 26.024 148.856 25.748C148.244 25.46 147.758 25.076 147.398 24.596C147.038 24.104 146.846 23.558 146.822 22.958H148.946C148.982 23.378 149.18 23.732 149.54 24.02C149.912 24.296 150.374 24.434 150.926 24.434C151.502 24.434 151.946 24.326 152.258 24.11C152.582 23.882 152.744 23.594 152.744 23.246C152.744 22.874 152.564 22.598 152.204 22.418C151.856 22.238 151.298 22.04 150.53 21.824C149.786 21.62 149.18 21.422 148.712 21.23C148.244 21.038 147.836 20.744 147.488 20.348C147.152 19.952 146.984 19.43 146.984 18.782C146.984 18.254 147.14 17.774 147.452 17.342C147.764 16.898 148.208 16.55 148.784 16.298C149.372 16.046 150.044 15.92 150.8 15.92C151.928 15.92 152.834 16.208 153.518 16.784C154.214 17.348 154.586 18.122 154.634 19.106H152.582C152.546 18.662 152.366 18.308 152.042 18.044C151.718 17.78 151.28 17.648 150.728 17.648C150.188 17.648 149.774 17.75 149.486 17.954C149.198 18.158 149.054 18.428 149.054 18.764C149.054 19.028 149.15 19.25 149.342 19.43C149.534 19.61 149.768 19.754 150.044 19.862C150.32 19.958 150.728 20.084 151.268 20.24C151.988 20.432 152.576 20.63 153.032 20.834C153.5 21.026 153.902 21.314 154.238 21.698C154.574 22.082 154.748 22.592 154.76 23.228C154.76 23.792 154.604 24.296 154.292 24.74C153.98 25.184 153.536 25.532 152.96 25.784C152.396 26.036 151.73 26.162 150.962 26.162ZM158.021 14.768C157.649 14.768 157.337 14.642 157.085 14.39C156.833 14.138 156.707 13.826 156.707 13.454C156.707 13.082 156.833 12.77 157.085 12.518C157.337 12.266 157.649 12.14 158.021 12.14C158.381 12.14 158.687 12.266 158.939 12.518C159.191 12.77 159.317 13.082 159.317 13.454C159.317 13.826 159.191 14.138 158.939 14.39C158.687 14.642 158.381 14.768 158.021 14.768ZM159.029 16.082V26H156.977V16.082H159.029ZM173.941 23.444H168.703L167.803 26H165.661L170.143 13.472H172.519L177.001 26H174.841L173.941 23.444ZM173.365 21.77L171.331 15.956L169.279 21.77H173.365ZM181.002 13.49V26H178.95V13.49H181.002Z" fill="black"/>
<path d="M22.0124 12.4315C22.6104 10.6899 25.0284 10.6371 25.7374 12.2732L25.7974 12.4324L26.6044 14.7811C26.7893 15.3198 27.0882 15.8127 27.4808 16.2266C27.8734 16.6405 28.3507 16.9658 28.8804 17.1805L29.0974 17.2612L31.4574 18.0633C33.2074 18.6584 33.2604 21.0648 31.6174 21.7704L31.4574 21.8301L29.0974 22.6332C28.556 22.8172 28.0605 23.1146 27.6444 23.5053C27.2283 23.896 26.9013 24.3711 26.6854 24.8983L26.6044 25.1133L25.7984 27.463C25.2004 29.2046 22.7824 29.2573 22.0744 27.6222L22.0124 27.463L21.2064 25.1143C21.0216 24.5755 20.7227 24.0824 20.3301 23.6683C19.9375 23.2542 19.4602 22.9287 18.9304 22.7139L18.7144 22.6332L16.3544 21.8311C14.6034 21.236 14.5504 18.8296 16.1944 18.125L16.3544 18.0633L18.7144 17.2612C19.2556 17.0771 19.7509 16.7797 20.1668 16.3889C20.5827 15.9982 20.9096 15.5232 21.1254 14.9961L21.2064 14.7811L22.0124 12.4315ZM31.9054 9C32.0925 9 32.2758 9.05223 32.4345 9.15074C32.5933 9.24926 32.7211 9.39012 32.8034 9.55731L32.8514 9.67375L33.2014 10.6948L34.2284 11.0431C34.4159 11.1065 34.5802 11.2239 34.7006 11.3803C34.821 11.5368 34.892 11.7253 34.9047 11.9219C34.9173 12.1186 34.871 12.3145 34.7716 12.485C34.6722 12.6554 34.5242 12.7926 34.3464 12.8793L34.2284 12.9271L33.2024 13.2754L32.8524 14.2975C32.7886 14.484 32.6706 14.6475 32.5133 14.7672C32.356 14.8869 32.1666 14.9575 31.969 14.9699C31.7714 14.9824 31.5746 14.9362 31.4034 14.8372C31.2322 14.7382 31.0944 14.5909 31.0074 14.4139L30.9594 14.2975L30.6094 13.2764L29.5824 12.9281C29.3949 12.8647 29.2305 12.7473 29.1101 12.5909C28.9898 12.4344 28.9187 12.2459 28.9061 12.0493C28.8935 11.8526 28.9398 11.6567 29.0392 11.4862C29.1385 11.3158 29.2865 11.1786 29.4644 11.0919L29.5824 11.0441L30.6084 10.6958L30.9584 9.67375C31.0258 9.47712 31.1534 9.30643 31.3232 9.1856C31.493 9.06478 31.6966 8.99988 31.9054 9Z" fill="#E53888"/>
</svg>
