<svg width="248" height="39" viewBox="0 0 248 39" fill="none" xmlns="http://www.w3.org/2000/svg">
<rect x="0.5" y="0.5" width="247" height="38" rx="19" fill="#FAFAFA" stroke="#E53888"/>
<path d="M49.098 17.216C49.098 17.852 48.948 18.452 48.648 19.016C48.348 19.58 47.868 20.042 47.208 20.402C46.548 20.75 45.702 20.924 44.67 20.924H42.402V26H40.35V13.49H44.67C45.63 13.49 46.44 13.658 47.1 13.994C47.772 14.318 48.27 14.762 48.594 15.326C48.93 15.89 49.098 16.52 49.098 17.216ZM44.67 19.25C45.45 19.25 46.032 19.076 46.416 18.728C46.8 18.368 46.992 17.864 46.992 17.216C46.992 15.848 46.218 15.164 44.67 15.164H42.402V19.25H44.67ZM60.1451 20.798C60.1451 21.17 60.1211 21.506 60.0731 21.806H52.4951C52.5551 22.598 52.8491 23.234 53.3771 23.714C53.9051 24.194 54.5531 24.434 55.3211 24.434C56.4251 24.434 57.2051 23.972 57.6611 23.048H59.8751C59.5751 23.96 59.0291 24.71 58.2371 25.298C57.4571 25.874 56.4851 26.162 55.3211 26.162C54.3731 26.162 53.5211 25.952 52.7651 25.532C52.0211 25.1 51.4331 24.5 51.0011 23.732C50.5811 22.952 50.3711 22.052 50.3711 21.032C50.3711 20.012 50.5751 19.118 50.9831 18.35C51.4031 17.57 51.9851 16.97 52.7291 16.55C53.4851 16.13 54.3491 15.92 55.3211 15.92C56.2571 15.92 57.0911 16.124 57.8231 16.532C58.5551 16.94 59.1251 17.516 59.5331 18.26C59.9411 18.992 60.1451 19.838 60.1451 20.798ZM58.0031 20.15C57.9911 19.394 57.7211 18.788 57.1931 18.332C56.6651 17.876 56.0111 17.648 55.2311 17.648C54.5231 17.648 53.9171 17.876 53.4131 18.332C52.9091 18.776 52.6091 19.382 52.5131 20.15H58.0031ZM64.2165 12.68V26H62.1645V12.68H64.2165ZM66.2265 20.996C66.2265 20 66.4305 19.118 66.8385 18.35C67.2585 17.582 67.8225 16.988 68.5305 16.568C69.2505 16.136 70.0425 15.92 70.9065 15.92C71.6865 15.92 72.3645 16.076 72.9405 16.388C73.5285 16.688 73.9965 17.066 74.3445 17.522V16.082H76.4145V26H74.3445V24.524C73.9965 24.992 73.5225 25.382 72.9225 25.694C72.3225 26.006 71.6385 26.162 70.8705 26.162C70.0185 26.162 69.2385 25.946 68.5305 25.514C67.8225 25.07 67.2585 24.458 66.8385 23.678C66.4305 22.886 66.2265 21.992 66.2265 20.996ZM74.3445 21.032C74.3445 20.348 74.2005 19.754 73.9125 19.25C73.6365 18.746 73.2705 18.362 72.8145 18.098C72.3585 17.834 71.8665 17.702 71.3385 17.702C70.8105 17.702 70.3185 17.834 69.8625 18.098C69.4065 18.35 69.0345 18.728 68.7465 19.232C68.4705 19.724 68.3325 20.312 68.3325 20.996C68.3325 21.68 68.4705 22.28 68.7465 22.796C69.0345 23.312 69.4065 23.708 69.8625 23.984C70.3305 24.248 70.8225 24.38 71.3385 24.38C71.8665 24.38 72.3585 24.248 72.8145 23.984C73.2705 23.72 73.6365 23.336 73.9125 22.832C74.2005 22.316 74.3445 21.716 74.3445 21.032ZM78.4258 21.032C78.4258 20.012 78.6298 19.118 79.0378 18.35C79.4578 17.57 80.0338 16.97 80.7658 16.55C81.4978 16.13 82.3378 15.92 83.2858 15.92C84.4858 15.92 85.4758 16.208 86.2558 16.784C87.0478 17.348 87.5818 18.158 87.8578 19.214H85.6438C85.4638 18.722 85.1758 18.338 84.7798 18.062C84.3838 17.786 83.8858 17.648 83.2858 17.648C82.4458 17.648 81.7738 17.948 81.2698 18.548C80.7778 19.136 80.5318 19.964 80.5318 21.032C80.5318 22.1 80.7778 22.934 81.2698 23.534C81.7738 24.134 82.4458 24.434 83.2858 24.434C84.4738 24.434 85.2598 23.912 85.6438 22.868H87.8578C87.5698 23.876 87.0298 24.68 86.2378 25.28C85.4458 25.868 84.4618 26.162 83.2858 26.162C82.3378 26.162 81.4978 25.952 80.7658 25.532C80.0338 25.1 79.4578 24.5 79.0378 23.732C78.6298 22.952 78.4258 22.052 78.4258 21.032ZM89.2187 20.996C89.2187 20 89.4227 19.118 89.8307 18.35C90.2507 17.582 90.8147 16.988 91.5227 16.568C92.2427 16.136 93.0347 15.92 93.8987 15.92C94.6787 15.92 95.3567 16.076 95.9327 16.388C96.5207 16.688 96.9887 17.066 97.3367 17.522V16.082H99.4067V26H97.3367V24.524C96.9887 24.992 96.5147 25.382 95.9147 25.694C95.3147 26.006 94.6307 26.162 93.8627 26.162C93.0107 26.162 92.2307 25.946 91.5227 25.514C90.8147 25.07 90.2507 24.458 89.8307 23.678C89.4227 22.886 89.2187 21.992 89.2187 20.996ZM97.3367 21.032C97.3367 20.348 97.1927 19.754 96.9047 19.25C96.6287 18.746 96.2627 18.362 95.8067 18.098C95.3507 17.834 94.8587 17.702 94.3307 17.702C93.8027 17.702 93.3107 17.834 92.8547 18.098C92.3987 18.35 92.0267 18.728 91.7387 19.232C91.4627 19.724 91.3247 20.312 91.3247 20.996C91.3247 21.68 91.4627 22.28 91.7387 22.796C92.0267 23.312 92.3987 23.708 92.8547 23.984C93.3227 24.248 93.8147 24.38 94.3307 24.38C94.8587 24.38 95.3507 24.248 95.8067 23.984C96.2627 23.72 96.6287 23.336 96.9047 22.832C97.1927 22.316 97.3367 21.716 97.3367 21.032ZM106.026 21.05L110.598 26H107.826L104.154 21.734V26H102.102V12.68H104.154V20.42L107.754 16.082H110.598L106.026 21.05ZM125.493 17.216C125.493 17.852 125.343 18.452 125.043 19.016C124.743 19.58 124.263 20.042 123.603 20.402C122.943 20.75 122.097 20.924 121.065 20.924H118.797V26H116.745V13.49H121.065C122.025 13.49 122.835 13.658 123.495 13.994C124.167 14.318 124.665 14.762 124.989 15.326C125.325 15.89 125.493 16.52 125.493 17.216ZM121.065 19.25C121.845 19.25 122.427 19.076 122.811 18.728C123.195 18.368 123.387 17.864 123.387 17.216C123.387 15.848 122.613 15.164 121.065 15.164H118.797V19.25H121.065ZM136.54 20.798C136.54 21.17 136.516 21.506 136.468 21.806H128.89C128.95 22.598 129.244 23.234 129.772 23.714C130.3 24.194 130.948 24.434 131.716 24.434C132.82 24.434 133.6 23.972 134.056 23.048H136.27C135.97 23.96 135.424 24.71 134.632 25.298C133.852 25.874 132.88 26.162 131.716 26.162C130.768 26.162 129.916 25.952 129.16 25.532C128.416 25.1 127.828 24.5 127.396 23.732C126.976 22.952 126.766 22.052 126.766 21.032C126.766 20.012 126.97 19.118 127.378 18.35C127.798 17.57 128.38 16.97 129.124 16.55C129.88 16.13 130.744 15.92 131.716 15.92C132.652 15.92 133.486 16.124 134.218 16.532C134.95 16.94 135.52 17.516 135.928 18.26C136.336 18.992 136.54 19.838 136.54 20.798ZM134.398 20.15C134.386 19.394 134.116 18.788 133.588 18.332C133.06 17.876 132.406 17.648 131.626 17.648C130.918 17.648 130.312 17.876 129.808 18.332C129.304 18.776 129.004 19.382 128.908 20.15H134.398ZM143.563 15.92C144.343 15.92 145.039 16.082 145.651 16.406C146.275 16.73 146.761 17.21 147.109 17.846C147.457 18.482 147.631 19.25 147.631 20.15V26H145.597V20.456C145.597 19.568 145.375 18.89 144.931 18.422C144.487 17.942 143.881 17.702 143.113 17.702C142.345 17.702 141.733 17.942 141.277 18.422C140.833 18.89 140.611 19.568 140.611 20.456V26H138.559V16.082H140.611V17.216C140.947 16.808 141.373 16.49 141.889 16.262C142.417 16.034 142.975 15.92 143.563 15.92ZM154.244 15.92C155.012 15.92 155.69 16.076 156.278 16.388C156.878 16.688 157.346 17.066 157.682 17.522V16.082H159.752V26.162C159.752 27.074 159.56 27.884 159.176 28.592C158.792 29.312 158.234 29.876 157.502 30.284C156.782 30.692 155.918 30.896 154.91 30.896C153.566 30.896 152.45 30.578 151.562 29.942C150.674 29.318 150.17 28.466 150.05 27.386H152.084C152.24 27.902 152.57 28.316 153.074 28.628C153.59 28.952 154.202 29.114 154.91 29.114C155.738 29.114 156.404 28.862 156.908 28.358C157.424 27.854 157.682 27.122 157.682 26.162V24.506C157.334 24.974 156.86 25.37 156.26 25.694C155.672 26.006 155 26.162 154.244 26.162C153.38 26.162 152.588 25.946 151.868 25.514C151.16 25.07 150.596 24.458 150.176 23.678C149.768 22.886 149.564 21.992 149.564 20.996C149.564 20 149.768 19.118 150.176 18.35C150.596 17.582 151.16 16.988 151.868 16.568C152.588 16.136 153.38 15.92 154.244 15.92ZM157.682 21.032C157.682 20.348 157.538 19.754 157.25 19.25C156.974 18.746 156.608 18.362 156.152 18.098C155.696 17.834 155.204 17.702 154.676 17.702C154.148 17.702 153.656 17.834 153.2 18.098C152.744 18.35 152.372 18.728 152.084 19.232C151.808 19.724 151.67 20.312 151.67 20.996C151.67 21.68 151.808 22.28 152.084 22.796C152.372 23.312 152.744 23.708 153.2 23.984C153.668 24.248 154.16 24.38 154.676 24.38C155.204 24.38 155.696 24.248 156.152 23.984C156.608 23.72 156.974 23.336 157.25 22.832C157.538 22.316 157.682 21.716 157.682 21.032ZM171.538 20.798C171.538 21.17 171.514 21.506 171.466 21.806H163.888C163.948 22.598 164.242 23.234 164.77 23.714C165.298 24.194 165.946 24.434 166.714 24.434C167.818 24.434 168.598 23.972 169.054 23.048H171.268C170.968 23.96 170.422 24.71 169.63 25.298C168.85 25.874 167.878 26.162 166.714 26.162C165.766 26.162 164.914 25.952 164.158 25.532C163.414 25.1 162.826 24.5 162.394 23.732C161.974 22.952 161.764 22.052 161.764 21.032C161.764 20.012 161.968 19.118 162.376 18.35C162.796 17.57 163.378 16.97 164.122 16.55C164.878 16.13 165.742 15.92 166.714 15.92C167.65 15.92 168.484 16.124 169.216 16.532C169.948 16.94 170.518 17.516 170.926 18.26C171.334 18.992 171.538 19.838 171.538 20.798ZM169.396 20.15C169.384 19.394 169.114 18.788 168.586 18.332C168.058 17.876 167.404 17.648 166.624 17.648C165.916 17.648 165.31 17.876 164.806 18.332C164.302 18.776 164.002 19.382 163.906 20.15H169.396ZM175.609 12.68V26H173.557V12.68H175.609ZM187.285 16.082V26H185.233V24.83C184.909 25.238 184.483 25.562 183.955 25.802C183.439 26.03 182.887 26.144 182.299 26.144C181.519 26.144 180.817 25.982 180.193 25.658C179.581 25.334 179.095 24.854 178.735 24.218C178.387 23.582 178.213 22.814 178.213 21.914V16.082H180.247V21.608C180.247 22.496 180.469 23.18 180.913 23.66C181.357 24.128 181.963 24.362 182.731 24.362C183.499 24.362 184.105 24.128 184.549 23.66C185.005 23.18 185.233 22.496 185.233 21.608V16.082H187.285ZM189.309 20.996C189.309 20 189.513 19.118 189.921 18.35C190.341 17.582 190.905 16.988 191.613 16.568C192.333 16.136 193.125 15.92 193.989 15.92C194.769 15.92 195.447 16.076 196.023 16.388C196.611 16.688 197.079 17.066 197.427 17.522V16.082H199.497V26H197.427V24.524C197.079 24.992 196.605 25.382 196.005 25.694C195.405 26.006 194.721 26.162 193.953 26.162C193.101 26.162 192.321 25.946 191.613 25.514C190.905 25.07 190.341 24.458 189.921 23.678C189.513 22.886 189.309 21.992 189.309 20.996ZM197.427 21.032C197.427 20.348 197.283 19.754 196.995 19.25C196.719 18.746 196.353 18.362 195.897 18.098C195.441 17.834 194.949 17.702 194.421 17.702C193.893 17.702 193.401 17.834 192.945 18.098C192.489 18.35 192.117 18.728 191.829 19.232C191.553 19.724 191.415 20.312 191.415 20.996C191.415 21.68 191.553 22.28 191.829 22.796C192.117 23.312 192.489 23.708 192.945 23.984C193.413 24.248 193.905 24.38 194.421 24.38C194.949 24.38 195.441 24.248 195.897 23.984C196.353 23.72 196.719 23.336 196.995 22.832C197.283 22.316 197.427 21.716 197.427 21.032ZM204.244 17.522C204.544 17.018 204.94 16.628 205.432 16.352C205.936 16.064 206.53 15.92 207.214 15.92V18.044H206.692C205.888 18.044 205.276 18.248 204.856 18.656C204.448 19.064 204.244 19.772 204.244 20.78V26H202.192V16.082H204.244V17.522ZM208.416 20.996C208.416 20 208.62 19.118 209.028 18.35C209.448 17.582 210.012 16.988 210.72 16.568C211.44 16.136 212.232 15.92 213.096 15.92C213.876 15.92 214.554 16.076 215.13 16.388C215.718 16.688 216.186 17.066 216.534 17.522V16.082H218.604V26H216.534V24.524C216.186 24.992 215.712 25.382 215.112 25.694C214.512 26.006 213.828 26.162 213.06 26.162C212.208 26.162 211.428 25.946 210.72 25.514C210.012 25.07 209.448 24.458 209.028 23.678C208.62 22.886 208.416 21.992 208.416 20.996ZM216.534 21.032C216.534 20.348 216.39 19.754 216.102 19.25C215.826 18.746 215.46 18.362 215.004 18.098C214.548 17.834 214.056 17.702 213.528 17.702C213 17.702 212.508 17.834 212.052 18.098C211.596 18.35 211.224 18.728 210.936 19.232C210.66 19.724 210.522 20.312 210.522 20.996C210.522 21.68 210.66 22.28 210.936 22.796C211.224 23.312 211.596 23.708 212.052 23.984C212.52 24.248 213.012 24.38 213.528 24.38C214.056 24.38 214.548 24.248 215.004 23.984C215.46 23.72 215.826 23.336 216.102 22.832C216.39 22.316 216.534 21.716 216.534 21.032ZM226.303 15.92C227.083 15.92 227.779 16.082 228.391 16.406C229.015 16.73 229.501 17.21 229.849 17.846C230.197 18.482 230.371 19.25 230.371 20.15V26H228.337V20.456C228.337 19.568 228.115 18.89 227.671 18.422C227.227 17.942 226.621 17.702 225.853 17.702C225.085 17.702 224.473 17.942 224.017 18.422C223.573 18.89 223.351 19.568 223.351 20.456V26H221.299V16.082H223.351V17.216C223.687 16.808 224.113 16.49 224.629 16.262C225.157 16.034 225.715 15.92 226.303 15.92Z" fill="black"/>
<path fill-rule="evenodd" clip-rule="evenodd" d="M17.72 12.0533C16.5 13.275 16.5 15.2383 16.5 19.1666C16.5 23.095 16.5 25.0591 17.72 26.2791C18.9417 27.5 20.905 27.5 24.8333 27.5C28.7617 27.5 30.7258 27.5 31.9458 26.2791C33.1667 25.06 33.1667 23.095 33.1667 19.1666C33.1667 15.2383 33.1667 13.2741 31.9458 12.0533C30.7267 10.8333 28.7617 10.8333 24.8333 10.8333C20.905 10.8333 18.9408 10.8333 17.72 12.0533ZM29.48 17.9C29.5814 17.7722 29.6288 17.6098 29.6121 17.4475C29.5954 17.2851 29.5159 17.1358 29.3905 17.0314C29.2652 16.9269 29.1039 16.8756 28.9413 16.8884C28.7786 16.9013 28.6274 16.9772 28.52 17.1L27.0225 18.8966C26.7142 19.2675 26.5233 19.4933 26.3675 19.6341C26.3267 19.6737 26.2811 19.7078 26.2317 19.7358L26.2225 19.74L26.2158 19.7366L26.2133 19.7358C26.1636 19.7079 26.1177 19.6737 26.0767 19.6341C25.9208 19.4925 25.7308 19.2675 25.4217 18.8966L25.1783 18.605C24.905 18.2758 24.6575 17.98 24.4275 17.7716C24.1767 17.545 23.8608 17.3433 23.4442 17.3433C23.0275 17.3433 22.7125 17.545 22.4608 17.7716C22.2308 17.98 21.9842 18.2758 21.7108 18.605L20.1858 20.4333C20.1333 20.4964 20.0937 20.5692 20.0693 20.6476C20.0449 20.726 20.0362 20.8084 20.0437 20.8902C20.0588 21.0553 20.1388 21.2076 20.2662 21.3137C20.3937 21.4198 20.558 21.4709 20.7231 21.4559C20.8882 21.4408 21.0406 21.3607 21.1467 21.2333L22.6442 19.4366C22.9525 19.0658 23.1433 18.84 23.2992 18.6991C23.3399 18.6596 23.3856 18.6254 23.435 18.5975L23.4408 18.595L23.4442 18.5933L23.4533 18.5975C23.503 18.6254 23.549 18.6596 23.59 18.6991C23.7458 18.8408 23.9358 19.0658 24.245 19.4366L24.4883 19.7283C24.7625 20.0575 25.0092 20.3533 25.2392 20.5616C25.49 20.7883 25.8058 20.99 26.2225 20.99C26.6392 20.99 26.9542 20.7883 27.2058 20.5616C27.4358 20.3533 27.6825 20.0575 27.9558 19.7283L29.48 17.9Z" fill="#E53888"/>
</svg>
