<svg width="31" height="34" viewBox="0 0 31 34" fill="none" xmlns="http://www.w3.org/2000/svg">
<path d="M12.9826 20.7377V23.9591C12.9826 24.5562 13.1905 25.063 13.6062 25.4796C14.0219 25.8977 14.5269 26.1067 15.1212 26.1067C15.7155 26.1067 16.2219 25.8977 16.6405 25.4796C17.0591 25.0616 17.2683 24.5547 17.2683 23.9591V20.7377H20.4826C21.0783 20.7377 21.5841 20.5294 21.9998 20.1128C22.4169 19.6962 22.6255 19.19 22.6255 18.5944C22.6255 17.9988 22.4169 17.4913 21.9998 17.0718C21.5826 16.6523 21.0769 16.4426 20.4826 16.4426H17.2683V13.2212C17.2683 12.6241 17.0605 12.1173 16.6448 11.7007C16.2291 11.2826 15.7241 11.0736 15.1298 11.0736C14.5355 11.0736 14.0291 11.2826 13.6105 11.7007C13.1919 12.1187 12.9826 12.6256 12.9826 13.2212V16.4426H9.76834C9.17262 16.4426 8.66691 16.6509 8.25119 17.0675C7.83405 17.4841 7.62548 17.9903 7.62548 18.5859C7.62548 19.1815 7.83405 19.689 8.25119 20.1085C8.66834 20.528 9.17405 20.7377 9.76834 20.7377H12.9826ZM3.58834 33.6233C2.63548 33.6233 1.82048 33.2833 1.14334 32.6032C0.466195 31.9232 0.126909 31.1078 0.125481 30.1571V12.811C0.125481 12.2612 0.248338 11.7407 0.494052 11.2497C0.739766 10.7586 1.07834 10.3541 1.50977 10.0363L13.0491 1.32131C13.6533 0.857429 14.3433 0.625488 15.1191 0.625488C15.8948 0.625488 16.5891 0.857429 17.2019 1.32131L28.7412 10.0341C29.1741 10.352 29.5126 10.7571 29.7569 11.2497C30.0026 11.7407 30.1255 12.2612 30.1255 12.811V30.1571C30.1255 31.1107 29.7862 31.9267 29.1076 32.6054C28.4291 33.284 27.6148 33.6241 26.6648 33.6255L3.58834 33.6233Z" fill="#FAFAFA"/>
</svg>
