<svg width="35" height="35" viewBox="0 0 35 35" fill="none" xmlns="http://www.w3.org/2000/svg">
<path d="M17.4287 21.0295C22.3613 21.0295 26.573 21.8115 26.573 24.9408C26.573 28.0687 22.3883 28.8792 17.4287 28.8792C12.4961 28.8792 8.28429 28.0972 8.28429 24.9692C8.28429 21.84 12.469 21.0295 17.4287 21.0295ZM25.3153 19.1452C27.201 19.1102 29.2284 19.3692 29.9776 19.553C31.5647 19.865 32.6086 20.502 33.0411 21.4277C33.4067 22.1877 33.4067 23.0694 33.0411 23.8281C32.3795 25.2639 30.2466 25.7248 29.4176 25.8439C29.2464 25.8698 29.1087 25.7209 29.1267 25.5487C29.5502 21.5701 26.1816 19.6838 25.3101 19.2501C25.2728 19.2306 25.2651 19.2009 25.2689 19.1827C25.2715 19.1698 25.287 19.1491 25.3153 19.1452ZM9.33443 19.1425L9.68954 19.1457C9.71786 19.1496 9.73202 19.1703 9.73459 19.182C9.73846 19.2014 9.73073 19.2299 9.69469 19.2506C8.82196 19.6843 5.45332 21.5707 5.87682 25.548C5.89484 25.7215 5.75839 25.8691 5.58719 25.8445C4.75823 25.7253 2.62531 25.2644 1.96369 23.8286C1.59683 23.0686 1.59683 22.1882 1.96369 21.4282C2.39619 20.5025 3.43883 19.8656 5.02597 19.5522C5.77641 19.3697 7.80249 19.1107 9.68954 19.1457L9.33443 19.1425ZM17.4287 5.87793C20.787 5.87793 23.4798 8.58384 23.4798 11.963C23.4798 15.3409 20.787 18.0494 17.4287 18.0494C14.0703 18.0494 11.3775 15.3409 11.3775 11.963C11.3775 8.58384 14.0703 5.87793 17.4287 5.87793ZM25.6435 6.89271C28.8873 6.89271 31.4347 9.96243 30.5671 13.3817C29.9814 15.6837 27.8614 17.2127 25.4994 17.1506C25.2625 17.1441 25.0295 17.1221 24.8043 17.0833C24.6408 17.0548 24.5584 16.8696 24.6511 16.7324C25.5521 15.3989 26.0657 13.7947 26.0657 12.0728C26.0657 10.2757 25.5045 8.60041 24.5301 7.22674C24.4992 7.18402 24.476 7.11799 24.5069 7.06879C24.5327 7.02865 24.5803 7.00794 24.6253 6.99758C24.9536 6.93026 25.2908 6.89271 25.6435 6.89271ZM9.35937 6.89258C9.71207 6.89258 10.0493 6.93013 10.3788 6.99745C10.4226 7.00781 10.4715 7.02982 10.4973 7.06866C10.5269 7.11786 10.505 7.18389 10.4741 7.22661C9.49968 8.60028 8.93845 10.2756 8.93845 12.0727C8.93845 13.7946 9.45205 15.3987 10.3531 16.7323C10.4458 16.8695 10.3634 17.0546 10.1999 17.0831C9.97337 17.1233 9.74167 17.144 9.50483 17.1504C7.14279 17.2126 5.02275 15.6836 4.43707 13.3816C3.5682 9.9623 6.11559 6.89258 9.35937 6.89258Z" fill="#E53888"/>
</svg>
