<svg width="89" height="73" viewBox="0 0 89 73" fill="none" xmlns="http://www.w3.org/2000/svg">
<path d="M31.85 0C36.6769 0 41.3062 1.92276 44.7193 5.3453C48.1325 8.76784 50.05 13.4098 50.05 18.25C50.05 23.0902 48.1325 27.7322 44.7193 31.1547C41.3062 34.5772 36.6769 36.5 31.85 36.5C27.0231 36.5 22.3938 34.5772 18.9807 31.1547C15.5675 27.7322 13.65 23.0902 13.65 18.25C13.65 13.4098 15.5675 8.76784 18.9807 5.3453C22.3938 1.92276 27.0231 0 31.85 0ZM25.352 43.3438H38.348C40.0258 43.3438 41.6752 43.5148 43.2534 43.8143C42.9548 46.452 44.3056 48.89 46.3531 50.2018C43.9928 51.7131 42.5567 54.7072 43.5094 57.8012C44.0781 59.6404 44.8459 61.4369 45.8412 63.1621C46.8366 64.8873 48.0025 66.4557 49.3106 67.8672C51.543 70.2768 54.9412 70.4906 57.4437 69.1076V69.2359C57.4437 70.5477 57.8277 71.8736 58.567 72.9857L4.22297 73C1.89109 73 0 71.1037 0 68.7654C0 54.7215 11.3466 43.3438 25.352 43.3438ZM61.9937 31.1105C61.9937 30.1125 62.6336 29.2143 63.6005 29.0004C65.0934 28.6582 66.6575 28.4729 68.25 28.4729C69.8425 28.4729 71.4066 28.6582 72.8995 29.0004C73.8664 29.2143 74.5062 30.1125 74.5062 31.1105V35.4734C75.6295 35.9582 76.6959 36.5713 77.677 37.2984L81.2175 35.2596C82.0848 34.7605 83.1655 34.8746 83.848 35.6018C84.9286 36.7566 85.8812 38.0541 86.7059 39.4799C87.5306 40.9057 88.1705 42.3885 88.6255 43.8998C88.9241 44.8551 88.4691 45.8531 87.6017 46.3521L84.047 48.4053C84.1039 48.9756 84.1466 49.5602 84.1466 50.159C84.1466 50.7578 84.1181 51.3281 84.047 51.9127L87.6017 53.9658C88.4691 54.4648 88.9098 55.4629 88.6255 56.4182C88.1562 57.9295 87.5164 59.4123 86.7059 60.8381C85.8955 62.2639 84.9286 63.5613 83.848 64.7162C83.1655 65.4434 82.0706 65.5574 81.2175 65.0584L77.677 63.0195C76.6959 63.7467 75.6437 64.3598 74.5062 64.8445V69.2074C74.5062 70.2055 73.8664 71.1037 72.8995 71.3176C71.4066 71.6598 69.8425 71.8451 68.25 71.8451C66.6575 71.8451 65.0934 71.6598 63.6005 71.3176C62.6336 71.1037 61.9937 70.2055 61.9937 69.2074V64.8588C60.8562 64.374 59.7756 63.7609 58.7945 63.0195L55.2825 65.0584C54.4151 65.5574 53.3345 65.4434 52.652 64.7162C51.5714 63.5613 50.6187 62.2639 49.7941 60.8381C48.9694 59.4123 48.3295 57.9295 47.8745 56.4182C47.5759 55.4629 48.0309 54.4648 48.8983 53.9658L52.4245 51.927C52.3677 51.3424 52.325 50.7578 52.325 50.159C52.325 49.5602 52.3534 48.9756 52.4245 48.391L48.8841 46.3379C48.0167 45.8389 47.5759 44.8408 47.8603 43.8855C48.3295 42.3742 48.9552 40.8914 49.7798 39.4656C50.6045 38.0398 51.5572 36.7424 52.6378 35.5875C53.3203 34.8604 54.4009 34.7463 55.2683 35.2453L58.7945 37.2842C59.7756 36.557 60.8562 35.9439 61.9937 35.4449V31.0963V31.1105ZM75.0892 50.1447C75.1313 49.2188 74.9859 48.2938 74.6615 47.4258C74.3372 46.5578 73.8407 45.7648 73.2022 45.0946C72.5636 44.4244 71.7962 43.8909 70.9462 43.5265C70.0963 43.162 69.1815 42.9741 68.2571 42.9741C67.3327 42.9741 66.4179 43.162 65.568 43.5265C64.7181 43.8909 63.9506 44.4244 63.3121 45.0946C62.6735 45.7648 62.177 46.5578 61.8527 47.4258C61.5284 48.2938 61.3829 49.2188 61.425 50.1447C61.3829 51.0707 61.5284 51.9956 61.8527 52.8636C62.177 53.7316 62.6735 54.5247 63.3121 55.1949C63.9506 55.8651 64.7181 56.3985 65.568 56.763C66.4179 57.1274 67.3327 57.3154 68.2571 57.3154C69.1815 57.3154 70.0963 57.1274 70.9462 56.763C71.7962 56.3985 72.5636 55.8651 73.2022 55.1949C73.8407 54.5247 74.3372 53.7316 74.6615 52.8636C74.9859 51.9956 75.1313 51.0707 75.0892 50.1447Z" fill="#E53888"/>
</svg>
