<svg width="62" height="63" viewBox="0 0 62 63" fill="none" xmlns="http://www.w3.org/2000/svg">
<path d="M30.9884 44.985C29.2627 44.985 27.7902 44.3715 26.5709 43.1444C25.3515 41.9173 24.7419 40.4409 24.7419 38.7153C24.7419 36.9896 25.3554 35.5171 26.5825 34.2978C27.8096 33.0784 29.2872 32.4688 31.0155 32.4688C32.7437 32.4688 34.2162 33.0836 35.433 34.3132C36.6497 35.5429 37.2594 37.0193 37.262 38.7424C37.2646 40.4655 36.6497 41.938 35.4175 43.1599C34.1852 44.3818 32.7089 44.9915 30.9884 44.9889M16.9531 15.0312H45.0469L49.9875 4.99887C50.5352 3.95779 50.5119 2.94771 49.9178 1.96863C49.3236 0.989542 48.4323 0.5 47.244 0.5H14.756C13.5677 0.5 12.6764 0.989542 12.0823 1.96863C11.4881 2.94771 11.4648 3.95908 12.0125 5.00275L16.9531 15.0312ZM17.9451 62.5H44.0549C49.0407 62.5 53.2774 60.755 56.7649 57.2649C60.255 53.7748 62 49.5304 62 44.5316C62 42.4443 61.6422 40.4112 60.9266 38.4324C60.211 36.4535 59.1777 34.6517 57.8266 33.0267L46.0389 18.9062H15.9611L4.17338 33.0267C2.82229 34.6517 1.78896 36.4535 1.07337 38.4324C0.357791 40.4086 0 42.4417 0 44.5316C0 49.5304 1.74504 53.7748 5.23512 57.2649C8.72521 60.755 12.9619 62.5 17.9451 62.5Z" fill="#FAFAFA"/>
</svg>
