<svg width="71" height="81" viewBox="0 0 71 81" fill="none" xmlns="http://www.w3.org/2000/svg">
<path d="M33.9511 0.422895C34.3656 0.147128 34.8522 0 35.35 0C35.8478 0 36.3344 0.147128 36.7489 0.422895C46.2826 6.85001 57.1502 11.0303 68.5335 12.6489C69.135 12.7352 69.6852 13.0355 70.0831 13.4947C70.481 13.9538 70.7001 14.5411 70.7 15.1487V37.8737C70.7 57.5232 59.0496 71.8602 36.259 80.632C35.674 80.8578 35.026 80.8578 34.441 80.632C11.6554 71.8602 0 57.5182 0 37.8737V15.1487C9.21703e-05 14.5403 0.219826 13.9525 0.618792 13.4932C1.01776 13.0339 1.56913 12.7341 2.1715 12.6489C13.553 11.0295 24.4189 6.8493 33.9511 0.422895Z" fill="#E53888"/>
</svg>
