<svg width="191" height="39" viewBox="0 0 191 39" fill="none" xmlns="http://www.w3.org/2000/svg">
<rect x="0.5" y="0.5" width="190" height="38" rx="19" fill="#FAFAFA" stroke="#E53888"/>
<path d="M45.436 13.49C46.768 13.49 47.932 13.748 48.928 14.264C49.936 14.768 50.71 15.5 51.25 16.46C51.802 17.408 52.078 18.518 52.078 19.79C52.078 21.062 51.802 22.166 51.25 23.102C50.71 24.038 49.936 24.758 48.928 25.262C47.932 25.754 46.768 26 45.436 26H41.35V13.49H45.436ZM45.436 24.326C46.9 24.326 48.022 23.93 48.802 23.138C49.582 22.346 49.972 21.23 49.972 19.79C49.972 18.338 49.582 17.204 48.802 16.388C48.022 15.572 46.9 15.164 45.436 15.164H43.402V24.326H45.436ZM53.4277 20.996C53.4277 20 53.6317 19.118 54.0397 18.35C54.4597 17.582 55.0237 16.988 55.7317 16.568C56.4517 16.136 57.2437 15.92 58.1077 15.92C58.8877 15.92 59.5657 16.076 60.1417 16.388C60.7297 16.688 61.1977 17.066 61.5457 17.522V16.082H63.6157V26H61.5457V24.524C61.1977 24.992 60.7237 25.382 60.1237 25.694C59.5237 26.006 58.8397 26.162 58.0717 26.162C57.2197 26.162 56.4397 25.946 55.7317 25.514C55.0237 25.07 54.4597 24.458 54.0397 23.678C53.6317 22.886 53.4277 21.992 53.4277 20.996ZM61.5457 21.032C61.5457 20.348 61.4017 19.754 61.1137 19.25C60.8377 18.746 60.4717 18.362 60.0157 18.098C59.5597 17.834 59.0677 17.702 58.5397 17.702C58.0117 17.702 57.5197 17.834 57.0637 18.098C56.6077 18.35 56.2357 18.728 55.9477 19.232C55.6717 19.724 55.5337 20.312 55.5337 20.996C55.5337 21.68 55.6717 22.28 55.9477 22.796C56.2357 23.312 56.6077 23.708 57.0637 23.984C57.5317 24.248 58.0237 24.38 58.5397 24.38C59.0677 24.38 59.5597 24.248 60.0157 23.984C60.4717 23.72 60.8377 23.336 61.1137 22.832C61.4017 22.316 61.5457 21.716 61.5457 21.032ZM71.3149 15.92C72.0949 15.92 72.7909 16.082 73.4029 16.406C74.0269 16.73 74.5129 17.21 74.8609 17.846C75.2089 18.482 75.3829 19.25 75.3829 20.15V26H73.3489V20.456C73.3489 19.568 73.1269 18.89 72.6829 18.422C72.2389 17.942 71.6329 17.702 70.8649 17.702C70.0969 17.702 69.4849 17.942 69.0289 18.422C68.5849 18.89 68.3629 19.568 68.3629 20.456V26H66.3109V16.082H68.3629V17.216C68.6989 16.808 69.1249 16.49 69.6409 16.262C70.1689 16.034 70.7269 15.92 71.3149 15.92ZM77.3164 20.996C77.3164 20 77.5204 19.118 77.9284 18.35C78.3484 17.582 78.9124 16.988 79.6204 16.568C80.3404 16.136 81.1324 15.92 81.9964 15.92C82.7764 15.92 83.4544 16.076 84.0304 16.388C84.6184 16.688 85.0864 17.066 85.4344 17.522V16.082H87.5044V26H85.4344V24.524C85.0864 24.992 84.6124 25.382 84.0124 25.694C83.4124 26.006 82.7284 26.162 81.9604 26.162C81.1084 26.162 80.3284 25.946 79.6204 25.514C78.9124 25.07 78.3484 24.458 77.9284 23.678C77.5204 22.886 77.3164 21.992 77.3164 20.996ZM85.4344 21.032C85.4344 20.348 85.2904 19.754 85.0024 19.25C84.7264 18.746 84.3604 18.362 83.9044 18.098C83.4484 17.834 82.9564 17.702 82.4284 17.702C81.9004 17.702 81.4084 17.834 80.9524 18.098C80.4964 18.35 80.1244 18.728 79.8364 19.232C79.5604 19.724 79.4224 20.312 79.4224 20.996C79.4224 21.68 79.5604 22.28 79.8364 22.796C80.1244 23.312 80.4964 23.708 80.9524 23.984C81.4204 24.248 81.9124 24.38 82.4284 24.38C82.9564 24.38 83.4484 24.248 83.9044 23.984C84.3604 23.72 84.7264 23.336 85.0024 22.832C85.2904 22.316 85.4344 21.716 85.4344 21.032ZM101.769 26L96.9274 20.402V26H94.8754V13.49H96.9274V19.196L101.787 13.49H104.361L98.9254 19.754L104.451 26H101.769ZM110.568 26.162C109.632 26.162 108.786 25.952 108.03 25.532C107.274 25.1 106.68 24.5 106.248 23.732C105.816 22.952 105.6 22.052 105.6 21.032C105.6 20.024 105.822 19.13 106.266 18.35C106.71 17.57 107.316 16.97 108.084 16.55C108.852 16.13 109.71 15.92 110.658 15.92C111.606 15.92 112.464 16.13 113.232 16.55C114 16.97 114.606 17.57 115.05 18.35C115.494 19.13 115.716 20.024 115.716 21.032C115.716 22.04 115.488 22.934 115.032 23.714C114.576 24.494 113.952 25.1 113.16 25.532C112.38 25.952 111.516 26.162 110.568 26.162ZM110.568 24.38C111.096 24.38 111.588 24.254 112.044 24.002C112.512 23.75 112.89 23.372 113.178 22.868C113.466 22.364 113.61 21.752 113.61 21.032C113.61 20.312 113.472 19.706 113.196 19.214C112.92 18.71 112.554 18.332 112.098 18.08C111.642 17.828 111.15 17.702 110.622 17.702C110.094 17.702 109.602 17.828 109.146 18.08C108.702 18.332 108.348 18.71 108.084 19.214C107.82 19.706 107.688 20.312 107.688 21.032C107.688 22.1 107.958 22.928 108.498 23.516C109.05 24.092 109.74 24.38 110.568 24.38ZM129.751 15.92C130.531 15.92 131.227 16.082 131.839 16.406C132.463 16.73 132.949 17.21 133.297 17.846C133.657 18.482 133.837 19.25 133.837 20.15V26H131.803V20.456C131.803 19.568 131.581 18.89 131.137 18.422C130.693 17.942 130.087 17.702 129.319 17.702C128.551 17.702 127.939 17.942 127.483 18.422C127.039 18.89 126.817 19.568 126.817 20.456V26H124.783V20.456C124.783 19.568 124.561 18.89 124.117 18.422C123.673 17.942 123.067 17.702 122.299 17.702C121.531 17.702 120.919 17.942 120.463 18.422C120.019 18.89 119.797 19.568 119.797 20.456V26H117.745V16.082H119.797V17.216C120.133 16.808 120.559 16.49 121.075 16.262C121.591 16.034 122.143 15.92 122.731 15.92C123.523 15.92 124.231 16.088 124.855 16.424C125.479 16.76 125.959 17.246 126.295 17.882C126.595 17.282 127.063 16.808 127.699 16.46C128.335 16.1 129.019 15.92 129.751 15.92ZM145.43 16.082V26H143.378V24.83C143.054 25.238 142.628 25.562 142.1 25.802C141.584 26.03 141.032 26.144 140.444 26.144C139.664 26.144 138.962 25.982 138.338 25.658C137.726 25.334 137.24 24.854 136.88 24.218C136.532 23.582 136.358 22.814 136.358 21.914V16.082H138.392V21.608C138.392 22.496 138.614 23.18 139.058 23.66C139.502 24.128 140.108 24.362 140.876 24.362C141.644 24.362 142.25 24.128 142.694 23.66C143.15 23.18 143.378 22.496 143.378 21.608V16.082H145.43ZM153.141 15.92C153.921 15.92 154.617 16.082 155.229 16.406C155.853 16.73 156.339 17.21 156.687 17.846C157.035 18.482 157.209 19.25 157.209 20.15V26H155.175V20.456C155.175 19.568 154.953 18.89 154.509 18.422C154.065 17.942 153.459 17.702 152.691 17.702C151.923 17.702 151.311 17.942 150.855 18.422C150.411 18.89 150.189 19.568 150.189 20.456V26H148.137V16.082H150.189V17.216C150.525 16.808 150.951 16.49 151.467 16.262C151.995 16.034 152.553 15.92 153.141 15.92ZM159.143 20.996C159.143 20 159.347 19.118 159.755 18.35C160.175 17.582 160.739 16.988 161.447 16.568C162.167 16.136 162.959 15.92 163.823 15.92C164.603 15.92 165.281 16.076 165.857 16.388C166.445 16.688 166.913 17.066 167.261 17.522V16.082H169.331V26H167.261V24.524C166.913 24.992 166.439 25.382 165.839 25.694C165.239 26.006 164.555 26.162 163.787 26.162C162.935 26.162 162.155 25.946 161.447 25.514C160.739 25.07 160.175 24.458 159.755 23.678C159.347 22.886 159.143 21.992 159.143 20.996ZM167.261 21.032C167.261 20.348 167.117 19.754 166.829 19.25C166.553 18.746 166.187 18.362 165.731 18.098C165.275 17.834 164.783 17.702 164.255 17.702C163.727 17.702 163.235 17.834 162.779 18.098C162.323 18.35 161.951 18.728 161.663 19.232C161.387 19.724 161.249 20.312 161.249 20.996C161.249 21.68 161.387 22.28 161.663 22.796C161.951 23.312 162.323 23.708 162.779 23.984C163.247 24.248 163.739 24.38 164.255 24.38C164.783 24.38 165.275 24.248 165.731 23.984C166.187 23.72 166.553 23.336 166.829 22.832C167.117 22.316 167.261 21.716 167.261 21.032ZM174.078 12.68V26H172.026V12.68H174.078Z" fill="black"/>
<path d="M24.4964 24.5671C23.9676 24.5671 23.5164 24.3799 23.1427 24.0057C22.769 23.6315 22.5822 23.1812 22.5822 22.6549C22.5822 22.1286 22.7702 21.6795 23.1462 21.3077C23.5223 20.9358 23.9751 20.7499 24.5047 20.7499C25.0344 20.7499 25.4856 20.9374 25.8585 21.3124C26.2314 21.6874 26.4182 22.1377 26.419 22.6632C26.4198 23.1887 26.2314 23.6378 25.8538 24.0104C25.4761 24.3831 25.0237 24.569 24.4964 24.5682M20.1953 15.4318H28.8047L30.3187 12.3721C30.4866 12.0546 30.4795 11.7465 30.2974 11.4479C30.1153 11.1493 29.8422 11 29.478 11H19.522C19.1578 11 18.8847 11.1493 18.7026 11.4479C18.5205 11.7465 18.5134 12.055 18.6812 12.3733L20.1953 15.4318ZM20.4993 29.9088H28.5007C30.0286 29.9088 31.3269 29.3766 32.3957 28.3122C33.4652 27.2478 34 25.9533 34 24.4288C34 23.7922 33.8904 23.1721 33.6711 22.5686C33.4518 21.9651 33.1351 21.4156 32.7211 20.92L29.1087 16.6136H19.8913L16.2789 20.92C15.8649 21.4156 15.5482 21.9651 15.3289 22.5686C15.1096 23.1714 15 23.7914 15 24.4288C15 25.9533 15.5348 27.2478 16.6043 28.3122C17.6739 29.3766 18.9722 29.9088 20.4993 29.9088Z" fill="#E53888"/>
</svg>
