<svg width="157" height="39" viewBox="0 0 157 39" fill="none" xmlns="http://www.w3.org/2000/svg">
<rect x="0.5" y="0.5" width="156" height="38" rx="19" fill="#FAFAFA" stroke="#E53888"/>
<path d="M49.244 26L44.402 20.402V26H42.35V13.49H44.402V19.196L49.262 13.49H51.836L46.4 19.754L51.926 26H49.244ZM58.0426 26.162C57.1066 26.162 56.2606 25.952 55.5046 25.532C54.7486 25.1 54.1546 24.5 53.7226 23.732C53.2906 22.952 53.0746 22.052 53.0746 21.032C53.0746 20.024 53.2966 19.13 53.7406 18.35C54.1846 17.57 54.7906 16.97 55.5586 16.55C56.3266 16.13 57.1846 15.92 58.1326 15.92C59.0806 15.92 59.9386 16.13 60.7066 16.55C61.4746 16.97 62.0806 17.57 62.5246 18.35C62.9686 19.13 63.1906 20.024 63.1906 21.032C63.1906 22.04 62.9626 22.934 62.5066 23.714C62.0506 24.494 61.4266 25.1 60.6346 25.532C59.8546 25.952 58.9906 26.162 58.0426 26.162ZM58.0426 24.38C58.5706 24.38 59.0626 24.254 59.5186 24.002C59.9866 23.75 60.3646 23.372 60.6526 22.868C60.9406 22.364 61.0846 21.752 61.0846 21.032C61.0846 20.312 60.9466 19.706 60.6706 19.214C60.3946 18.71 60.0286 18.332 59.5726 18.08C59.1166 17.828 58.6246 17.702 58.0966 17.702C57.5686 17.702 57.0766 17.828 56.6206 18.08C56.1766 18.332 55.8226 18.71 55.5586 19.214C55.2946 19.706 55.1626 20.312 55.1626 21.032C55.1626 22.1 55.4326 22.928 55.9726 23.516C56.5246 24.092 57.2146 24.38 58.0426 24.38ZM77.2251 15.92C78.0051 15.92 78.7011 16.082 79.3131 16.406C79.9371 16.73 80.4231 17.21 80.7711 17.846C81.1311 18.482 81.3111 19.25 81.3111 20.15V26H79.2771V20.456C79.2771 19.568 79.0551 18.89 78.6111 18.422C78.1671 17.942 77.5611 17.702 76.7931 17.702C76.0251 17.702 75.4131 17.942 74.9571 18.422C74.5131 18.89 74.2911 19.568 74.2911 20.456V26H72.2571V20.456C72.2571 19.568 72.0351 18.89 71.5911 18.422C71.1471 17.942 70.5411 17.702 69.7731 17.702C69.0051 17.702 68.3931 17.942 67.9371 18.422C67.4931 18.89 67.2711 19.568 67.2711 20.456V26H65.2191V16.082H67.2711V17.216C67.6071 16.808 68.0331 16.49 68.5491 16.262C69.0651 16.034 69.6171 15.92 70.2051 15.92C70.9971 15.92 71.7051 16.088 72.3291 16.424C72.9531 16.76 73.4331 17.246 73.7691 17.882C74.0691 17.282 74.5371 16.808 75.1731 16.46C75.8091 16.1 76.4931 15.92 77.2251 15.92ZM92.9043 16.082V26H90.8523V24.83C90.5283 25.238 90.1023 25.562 89.5743 25.802C89.0583 26.03 88.5063 26.144 87.9183 26.144C87.1383 26.144 86.4363 25.982 85.8123 25.658C85.2003 25.334 84.7143 24.854 84.3543 24.218C84.0063 23.582 83.8323 22.814 83.8323 21.914V16.082H85.8663V21.608C85.8663 22.496 86.0883 23.18 86.5323 23.66C86.9763 24.128 87.5823 24.362 88.3503 24.362C89.1183 24.362 89.7243 24.128 90.1683 23.66C90.6243 23.18 90.8523 22.496 90.8523 21.608V16.082H92.9043ZM100.616 15.92C101.396 15.92 102.092 16.082 102.704 16.406C103.328 16.73 103.814 17.21 104.162 17.846C104.51 18.482 104.684 19.25 104.684 20.15V26H102.65V20.456C102.65 19.568 102.428 18.89 101.984 18.422C101.54 17.942 100.934 17.702 100.166 17.702C99.3977 17.702 98.7857 17.942 98.3297 18.422C97.8857 18.89 97.6637 19.568 97.6637 20.456V26H95.6117V16.082H97.6637V17.216C97.9997 16.808 98.4257 16.49 98.9417 16.262C99.4697 16.034 100.028 15.92 100.616 15.92ZM108.345 14.768C107.973 14.768 107.661 14.642 107.409 14.39C107.157 14.138 107.031 13.826 107.031 13.454C107.031 13.082 107.157 12.77 107.409 12.518C107.661 12.266 107.973 12.14 108.345 12.14C108.705 12.14 109.011 12.266 109.263 12.518C109.515 12.77 109.641 13.082 109.641 13.454C109.641 13.826 109.515 14.138 109.263 14.39C109.011 14.642 108.705 14.768 108.345 14.768ZM109.353 16.082V26H107.301V16.082H109.353ZM114.441 17.756V23.246C114.441 23.618 114.525 23.888 114.693 24.056C114.873 24.212 115.173 24.29 115.593 24.29H116.853V26H115.233C114.309 26 113.601 25.784 113.109 25.352C112.617 24.92 112.371 24.218 112.371 23.246V17.756H111.201V16.082H112.371V13.616H114.441V16.082H116.853V17.756H114.441ZM118.061 20.996C118.061 20 118.265 19.118 118.673 18.35C119.093 17.582 119.657 16.988 120.365 16.568C121.085 16.136 121.877 15.92 122.741 15.92C123.521 15.92 124.199 16.076 124.775 16.388C125.363 16.688 125.831 17.066 126.179 17.522V16.082H128.249V26H126.179V24.524C125.831 24.992 125.357 25.382 124.757 25.694C124.157 26.006 123.473 26.162 122.705 26.162C121.853 26.162 121.073 25.946 120.365 25.514C119.657 25.07 119.093 24.458 118.673 23.678C118.265 22.886 118.061 21.992 118.061 20.996ZM126.179 21.032C126.179 20.348 126.035 19.754 125.747 19.25C125.471 18.746 125.105 18.362 124.649 18.098C124.193 17.834 123.701 17.702 123.173 17.702C122.645 17.702 122.153 17.834 121.697 18.098C121.241 18.35 120.869 18.728 120.581 19.232C120.305 19.724 120.167 20.312 120.167 20.996C120.167 21.68 120.305 22.28 120.581 22.796C120.869 23.312 121.241 23.708 121.697 23.984C122.165 24.248 122.657 24.38 123.173 24.38C123.701 24.38 124.193 24.248 124.649 23.984C125.105 23.72 125.471 23.336 125.747 22.832C126.035 22.316 126.179 21.716 126.179 21.032ZM134.544 26.162C133.764 26.162 133.062 26.024 132.438 25.748C131.826 25.46 131.34 25.076 130.98 24.596C130.62 24.104 130.428 23.558 130.404 22.958H132.528C132.564 23.378 132.762 23.732 133.122 24.02C133.494 24.296 133.956 24.434 134.508 24.434C135.084 24.434 135.528 24.326 135.84 24.11C136.164 23.882 136.326 23.594 136.326 23.246C136.326 22.874 136.146 22.598 135.786 22.418C135.438 22.238 134.88 22.04 134.112 21.824C133.368 21.62 132.762 21.422 132.294 21.23C131.826 21.038 131.418 20.744 131.07 20.348C130.734 19.952 130.566 19.43 130.566 18.782C130.566 18.254 130.722 17.774 131.034 17.342C131.346 16.898 131.79 16.55 132.366 16.298C132.954 16.046 133.626 15.92 134.382 15.92C135.51 15.92 136.416 16.208 137.1 16.784C137.796 17.348 138.168 18.122 138.216 19.106H136.164C136.128 18.662 135.948 18.308 135.624 18.044C135.3 17.78 134.862 17.648 134.31 17.648C133.77 17.648 133.356 17.75 133.068 17.954C132.78 18.158 132.636 18.428 132.636 18.764C132.636 19.028 132.732 19.25 132.924 19.43C133.116 19.61 133.35 19.754 133.626 19.862C133.902 19.958 134.31 20.084 134.85 20.24C135.57 20.432 136.158 20.63 136.614 20.834C137.082 21.026 137.484 21.314 137.82 21.698C138.156 22.082 138.33 22.592 138.342 23.228C138.342 23.792 138.186 24.296 137.874 24.74C137.562 25.184 137.118 25.532 136.542 25.784C135.978 26.036 135.312 26.162 134.544 26.162Z" fill="black"/>
<path d="M22.0124 12.4315C22.6104 10.6899 25.0284 10.6371 25.7374 12.2732L25.7974 12.4324L26.6044 14.7811C26.7893 15.3198 27.0882 15.8127 27.4808 16.2266C27.8734 16.6405 28.3507 16.9658 28.8804 17.1805L29.0974 17.2612L31.4574 18.0633C33.2074 18.6584 33.2604 21.0648 31.6174 21.7704L31.4574 21.8301L29.0974 22.6332C28.556 22.8172 28.0605 23.1146 27.6444 23.5053C27.2283 23.896 26.9013 24.3711 26.6854 24.8983L26.6044 25.1133L25.7984 27.463C25.2004 29.2046 22.7824 29.2573 22.0744 27.6222L22.0124 27.463L21.2064 25.1143C21.0216 24.5755 20.7227 24.0824 20.3301 23.6683C19.9375 23.2542 19.4602 22.9287 18.9304 22.7139L18.7144 22.6332L16.3544 21.8311C14.6034 21.236 14.5504 18.8296 16.1944 18.125L16.3544 18.0633L18.7144 17.2612C19.2556 17.0771 19.7509 16.7797 20.1668 16.3889C20.5827 15.9982 20.9096 15.5232 21.1254 14.9961L21.2064 14.7811L22.0124 12.4315ZM31.9054 9C32.0925 9 32.2758 9.05223 32.4345 9.15074C32.5933 9.24926 32.7211 9.39012 32.8034 9.55731L32.8514 9.67375L33.2014 10.6948L34.2284 11.0431C34.4159 11.1065 34.5802 11.2239 34.7006 11.3803C34.821 11.5368 34.892 11.7253 34.9047 11.9219C34.9173 12.1186 34.871 12.3145 34.7716 12.485C34.6722 12.6554 34.5242 12.7926 34.3464 12.8793L34.2284 12.9271L33.2024 13.2754L32.8524 14.2975C32.7886 14.484 32.6706 14.6475 32.5133 14.7672C32.356 14.8869 32.1666 14.9575 31.969 14.9699C31.7714 14.9824 31.5746 14.9362 31.4034 14.8372C31.2322 14.7382 31.0944 14.5909 31.0074 14.4139L30.9594 14.2975L30.6094 13.2764L29.5824 12.9281C29.3949 12.8647 29.2305 12.7473 29.1101 12.5909C28.9898 12.4344 28.9187 12.2459 28.9061 12.0493C28.8935 11.8526 28.9398 11.6567 29.0392 11.4862C29.1385 11.3158 29.2865 11.1786 29.4644 11.0919L29.5824 11.0441L30.6084 10.6958L30.9584 9.67375C31.0258 9.47712 31.1534 9.30643 31.3232 9.1856C31.493 9.06478 31.6966 8.99988 31.9054 9Z" fill="#E53888"/>
</svg>
